<ttFont>
    <TTGlyph name=".notdef" xMin="177" yMin="0" xMax="1593" yMax="1416">
      <contour>
        <pt x="177" y="1416" on="1"/>
        <pt x="1593" y="1416" on="1"/>
        <pt x="1593" y="0" on="1"/>
        <pt x="177" y="0" on="1"/>
      </contour>
      <contour>
        <pt x="559" y="252" on="1"/>
        <pt x="883" y="605" on="1"/>
        <pt x="1220" y="252" on="1"/>
        <pt x="1333" y="365" on="1"/>
        <pt x="985" y="708" on="1"/>
        <pt x="1333" y="1042" on="1"/>
        <pt x="1214" y="1158" on="1"/>
        <pt x="886" y="807" on="1"/>
        <pt x="553" y="1159" on="1"/>
        <pt x="439" y="1043" on="1"/>
        <pt x="783" y="705" on="1"/>
        <pt x="440" y="387" on="1"/>
      </contour>
    </TTGlyph>
    <TTGlyph name="A" xMin="-26" yMin="0" xMax="1417" yMax="1538">
      <contour>
        <pt x="-26" y="82" on="1"/>
        <pt x="107" y="96" on="1"/>
        <pt x="626" y="1538" on="1"/>
        <pt x="772" y="1538" on="1"/>
        <pt x="1282" y="96" on="1"/>
        <pt x="1417" y="82" on="1"/>
        <pt x="1417" y="0" on="1"/>
        <pt x="934" y="0" on="1"/>
        <pt x="934" y="82" on="1"/>
        <pt x="1122" y="96" on="1"/>
        <pt x="1008" y="434" on="1"/>
        <pt x="355" y="434" on="1"/>
        <pt x="239" y="96" on="1"/>
        <pt x="424" y="82" on="1"/>
        <pt x="424" y="0" on="1"/>
        <pt x="-26" y="0" on="1"/>
      </contour>
      <contour>
        <pt x="974" y="533" on="1"/>
        <pt x="742" y="1221" on="1"/>
        <pt x="681" y="1427" on="1"/>
        <pt x="621" y="1212" on="1"/>
        <pt x="389" y="533" on="1"/>
      </contour>
    </TTGlyph>
    <TTGlyph name="AE" xMin="-191" yMin="0" xMax="1824" yMax="1522">
      <contour>
        <pt x="562" y="1426" on="1"/>
        <pt x="279" y="1445" on="1"/>
        <pt x="279" y="1522" on="1"/>
        <pt x="1647" y="1522" on="1"/>
        <pt x="1686" y="1216" on="1"/>
        <pt x="1600" y="1216" on="1"/>
        <pt x="1538" y="1431" on="1"/>
        <pt x="971" y="1439" on="1"/>
        <pt x="971" y="830" on="1"/>
        <pt x="1358" y="835" on="1"/>
        <pt x="1382" y="1006" on="1"/>
        <pt x="1474" y="1006" on="1"/>
        <pt x="1474" y="558" on="1"/>
        <pt x="1382" y="558" on="1"/>
        <pt x="1358" y="736" on="1"/>
        <pt x="971" y="741" on="1"/>
        <pt x="971" y="92" on="1"/>
        <pt x="1624" y="112" on="1"/>
        <pt x="1738" y="369" on="1"/>
        <pt x="1824" y="348" on="1"/>
        <pt x="1746" y="0" on="1"/>
        <pt x="639" y="0" on="1"/>
        <pt x="639" y="82" on="1"/>
        <pt x="826" y="96" on="1"/>
        <pt x="826" y="456" on="1"/>
        <pt x="257" y="456" on="1"/>
        <pt x="103" y="96" on="1"/>
        <pt x="269" y="82" on="1"/>
        <pt x="269" y="0" on="1"/>
        <pt x="-191" y="0" on="1"/>
        <pt x="-191" y="82" on="1"/>
        <pt x="-40" y="96" on="1"/>
      </contour>
      <contour>
        <pt x="826" y="557" on="1"/>
        <pt x="826" y="1434" on="1"/>
        <pt x="675" y="1434" on="1"/>
        <pt x="560" y="1167" on="1"/>
        <pt x="300" y="557" on="1"/>
      </contour>
    </TTGlyph>
    <TTGlyph name="AEacute" xMin="-191" yMin="0" xMax="1824" yMax="2007">
      <contour>
        <pt x="824" y="1699" on="1"/>
        <pt x="1165" y="2007" on="1"/>
        <pt x="1166" y="2007" on="1"/>
        <pt x="1268" y="1908" on="1"/>
        <pt x="1250" y="1887" on="0"/>
        <pt x="1191" y="1838" on="0"/>
        <pt x="1118" y="1788" on="0"/>
        <pt x="1039" y="1740" on="0"/>
        <pt x="963" y="1697" on="0"/>
        <pt x="896" y="1662" on="0"/>
        <pt x="873" y="1651" on="1"/>
        <pt x="872" y="1651" on="1"/>
      </contour>
      <contour>
        <pt x="562" y="1426" on="1"/>
        <pt x="279" y="1445" on="1"/>
        <pt x="279" y="1522" on="1"/>
        <pt x="1647" y="1522" on="1"/>
        <pt x="1686" y="1216" on="1"/>
        <pt x="1600" y="1216" on="1"/>
        <pt x="1538" y="1431" on="1"/>
        <pt x="971" y="1439" on="1"/>
        <pt x="971" y="830" on="1"/>
        <pt x="1358" y="835" on="1"/>
        <pt x="1382" y="1006" on="1"/>
        <pt x="1474" y="1006" on="1"/>
        <pt x="1474" y="558" on="1"/>
        <pt x="1382" y="558" on="1"/>
        <pt x="1358" y="736" on="1"/>
        <pt x="971" y="741" on="1"/>
        <pt x="971" y="92" on="1"/>
        <pt x="1624" y="112" on="1"/>
        <pt x="1738" y="369" on="1"/>
        <pt x="1824" y="348" on="1"/>
        <pt x="1746" y="0" on="1"/>
        <pt x="639" y="0" on="1"/>
        <pt x="639" y="82" on="1"/>
        <pt x="826" y="96" on="1"/>
        <pt x="826" y="456" on="1"/>
        <pt x="257" y="456" on="1"/>
        <pt x="103" y="96" on="1"/>
        <pt x="269" y="82" on="1"/>
        <pt x="269" y="0" on="1"/>
        <pt x="-191" y="0" on="1"/>
        <pt x="-191" y="82" on="1"/>
        <pt x="-40" y="96" on="1"/>
      </contour>
      <contour>
        <pt x="826" y="557" on="1"/>
        <pt x="826" y="1434" on="1"/>
        <pt x="675" y="1434" on="1"/>
        <pt x="560" y="1167" on="1"/>
        <pt x="300" y="557" on="1"/>
      </contour>
    </TTGlyph>
    <TTGlyph name="Aacute" xMin="-26" yMin="0" xMax="1417" yMax="2007">
      <contour>
        <pt x="-26" y="82" on="1"/>
        <pt x="107" y="96" on="1"/>
        <pt x="626" y="1538" on="1"/>
        <pt x="772" y="1538" on="1"/>
        <pt x="1282" y="96" on="1"/>
        <pt x="1417" y="82" on="1"/>
        <pt x="1417" y="0" on="1"/>
        <pt x="934" y="0" on="1"/>
        <pt x="934" y="82" on="1"/>
        <pt x="1122" y="96" on="1"/>
        <pt x="1008" y="434" on="1"/>
        <pt x="355" y="434" on="1"/>
        <pt x="239" y="96" on="1"/>
        <pt x="424" y="82" on="1"/>
        <pt x="424" y="0" on="1"/>
        <pt x="-26" y="0" on="1"/>
      </contour>
      <contour>
        <pt x="974" y="533" on="1"/>
        <pt x="742" y="1221" on="1"/>
        <pt x="681" y="1427" on="1"/>
        <pt x="621" y="1212" on="1"/>
        <pt x="389" y="533" on="1"/>
      </contour>
      <contour>
        <pt x="561" y="1699" on="1"/>
        <pt x="902" y="2007" on="1"/>
        <pt x="903" y="2007" on="1"/>
        <pt x="1005" y="1908" on="1"/>
        <pt x="987" y="1887" on="0"/>
        <pt x="928" y="1838" on="0"/>
        <pt x="855" y="1788" on="0"/>
        <pt x="776" y="1740" on="0"/>
        <pt x="700" y="1697" on="0"/>
        <pt x="633" y="1662" on="0"/>
        <pt x="610" y="1651" on="1"/>
        <pt x="609" y="1651" on="1"/>
      </contour>
    </TTGlyph>
    <TTGlyph name="Abreve" xMin="-26" yMin="0" xMax="1417" yMax="1994">
      <contour>
        <pt x="-26" y="82" on="1"/>
        <pt x="107" y="96" on="1"/>
        <pt x="626" y="1538" on="1"/>
        <pt x="772" y="1538" on="1"/>
        <pt x="1282" y="96" on="1"/>
        <pt x="1417" y="82" on="1"/>
        <pt x="1417" y="0" on="1"/>
        <pt x="934" y="0" on="1"/>
        <pt x="934" y="82" on="1"/>
        <pt x="1122" y="96" on="1"/>
        <pt x="1008" y="434" on="1"/>
        <pt x="355" y="434" on="1"/>
        <pt x="239" y="96" on="1"/>
        <pt x="424" y="82" on="1"/>
        <pt x="424" y="0" on="1"/>
        <pt x="-26" y="0" on="1"/>
      </contour>
      <contour>
        <pt x="974" y="533" on="1"/>
        <pt x="742" y="1221" on="1"/>
        <pt x="681" y="1427" on="1"/>
        <pt x="621" y="1212" on="1"/>
        <pt x="389" y="533" on="1"/>
      </contour>
      <contour>
        <pt x="695" y="1659" on="1"/>
        <pt x="617" y="1659" on="0"/>
        <pt x="495" y="1704" on="0"/>
        <pt x="412" y="1783" on="0"/>
        <pt x="369" y="1891" on="0"/>
        <pt x="369" y="1954" on="1"/>
        <pt x="369" y="1964" on="0"/>
        <pt x="369" y="1983" on="0"/>
        <pt x="371" y="1994" on="1"/>
        <pt x="455" y="1994" on="1"/>
        <pt x="453" y="1982" on="0"/>
        <pt x="456" y="1965" on="1"/>
        <pt x="459" y="1935" on="0"/>
        <pt x="486" y="1870" on="0"/>
        <pt x="543" y="1817" on="0"/>
        <pt x="632" y="1782" on="0"/>
        <pt x="697" y="1782" on="1"/>
        <pt x="761" y="1782" on="0"/>
        <pt x="848" y="1817" on="0"/>
        <pt x="903" y="1871" on="0"/>
        <pt x="928" y="1936" on="0"/>
        <pt x="930" y="1966" on="1"/>
        <pt x="932" y="1975" on="0"/>
        <pt x="932" y="1989" on="0"/>
        <pt x="932" y="1994" on="1"/>
        <pt x="1013" y="1994" on="1"/>
        <pt x="1014" y="1983" on="0"/>
        <pt x="1015" y="1965" on="0"/>
        <pt x="1015" y="1955" on="1"/>
        <pt x="1015" y="1892" on="0"/>
        <pt x="971" y="1783" on="0"/>
        <pt x="888" y="1704" on="0"/>
        <pt x="770" y="1659" on="0"/>
      </contour>
    </TTGlyph>
    <TTGlyph name="Acircumflex" xMin="-26" yMin="0" xMax="1417" yMax="2014">
      <contour>
        <pt x="-26" y="82" on="1"/>
        <pt x="107" y="96" on="1"/>
        <pt x="626" y="1538" on="1"/>
        <pt x="772" y="1538" on="1"/>
        <pt x="1282" y="96" on="1"/>
        <pt x="1417" y="82" on="1"/>
        <pt x="1417" y="0" on="1"/>
        <pt x="934" y="0" on="1"/>
        <pt x="934" y="82" on="1"/>
        <pt x="1122" y="96" on="1"/>
        <pt x="1008" y="434" on="1"/>
        <pt x="355" y="434" on="1"/>
        <pt x="239" y="96" on="1"/>
        <pt x="424" y="82" on="1"/>
        <pt x="424" y="0" on="1"/>
        <pt x="-26" y="0" on="1"/>
      </contour>
      <contour>
        <pt x="974" y="533" on="1"/>
        <pt x="742" y="1221" on="1"/>
        <pt x="681" y="1427" on="1"/>
        <pt x="621" y="1212" on="1"/>
        <pt x="389" y="533" on="1"/>
      </contour>
      <contour>
        <pt x="360" y="1718" on="1"/>
        <pt x="619" y="2014" on="1"/>
        <pt x="763" y="2014" on="1"/>
        <pt x="1025" y="1720" on="1"/>
        <pt x="957" y="1681" on="1"/>
        <pt x="692" y="1904" on="1"/>
        <pt x="422" y="1681" on="1"/>
      </contour>
    </TTGlyph>
    <TTGlyph name="Adieresis" xMin="-26" yMin="0" xMax="1417" yMax="1951">
      <contour>
        <pt x="-26" y="82" on="1"/>
        <pt x="107" y="96" on="1"/>
        <pt x="626" y="1538" on="1"/>
        <pt x="772" y="1538" on="1"/>
        <pt x="1282" y="96" on="1"/>
        <pt x="1417" y="82" on="1"/>
        <pt x="1417" y="0" on="1"/>
        <pt x="934" y="0" on="1"/>
        <pt x="934" y="82" on="1"/>
        <pt x="1122" y="96" on="1"/>
        <pt x="1008" y="434" on="1"/>
        <pt x="355" y="434" on="1"/>
        <pt x="239" y="96" on="1"/>
        <pt x="424" y="82" on="1"/>
        <pt x="424" y="0" on="1"/>
        <pt x="-26" y="0" on="1"/>
      </contour>
      <contour>
        <pt x="974" y="533" on="1"/>
        <pt x="742" y="1221" on="1"/>
        <pt x="681" y="1427" on="1"/>
        <pt x="621" y="1212" on="1"/>
        <pt x="389" y="533" on="1"/>
      </contour>
      <contour>
        <pt x="927" y="1716" on="1"/>
        <pt x="904" y="1716" on="0"/>
        <pt x="869" y="1733" on="0"/>
        <pt x="845" y="1763" on="0"/>
        <pt x="832" y="1803" on="0"/>
        <pt x="832" y="1825" on="1"/>
        <pt x="832" y="1848" on="0"/>
        <pt x="846" y="1893" on="0"/>
        <pt x="873" y="1929" on="0"/>
        <pt x="914" y="1951" on="0"/>
        <pt x="942" y="1951" on="1"/>
        <pt x="943" y="1951" on="1"/>
        <pt x="967" y="1951" on="0"/>
        <pt x="1004" y="1931" on="0"/>
        <pt x="1028" y="1900" on="0"/>
        <pt x="1041" y="1860" on="0"/>
        <pt x="1041" y="1841" on="1"/>
        <pt x="1041" y="1816" on="0"/>
        <pt x="1027" y="1771" on="0"/>
        <pt x="999" y="1736" on="0"/>
        <pt x="957" y="1716" on="0"/>
        <pt x="928" y="1716" on="1"/>
      </contour>
      <contour>
        <pt x="444" y="1716" on="1"/>
        <pt x="422" y="1716" on="0"/>
        <pt x="387" y="1733" on="0"/>
        <pt x="363" y="1763" on="0"/>
        <pt x="350" y="1803" on="0"/>
        <pt x="350" y="1825" on="1"/>
        <pt x="350" y="1848" on="0"/>
        <pt x="363" y="1893" on="0"/>
        <pt x="390" y="1929" on="0"/>
        <pt x="431" y="1951" on="0"/>
        <pt x="459" y="1951" on="1"/>
        <pt x="460" y="1951" on="1"/>
        <pt x="484" y="1951" on="0"/>
        <pt x="521" y="1931" on="0"/>
        <pt x="545" y="1900" on="0"/>
        <pt x="558" y="1860" on="0"/>
        <pt x="558" y="1841" on="1"/>
        <pt x="558" y="1816" on="0"/>
        <pt x="544" y="1771" on="0"/>
        <pt x="516" y="1736" on="0"/>
        <pt x="474" y="1716" on="0"/>
        <pt x="445" y="1716" on="1"/>
      </contour>
    </TTGlyph>
    <TTGlyph name="Agrave" xMin="-26" yMin="0" xMax="1417" yMax="2007">
      <contour>
        <pt x="-26" y="82" on="1"/>
        <pt x="107" y="96" on="1"/>
        <pt x="626" y="1538" on="1"/>
        <pt x="772" y="1538" on="1"/>
        <pt x="1282" y="96" on="1"/>
        <pt x="1417" y="82" on="1"/>
        <pt x="1417" y="0" on="1"/>
        <pt x="934" y="0" on="1"/>
        <pt x="934" y="82" on="1"/>
        <pt x="1122" y="96" on="1"/>
        <pt x="1008" y="434" on="1"/>
        <pt x="355" y="434" on="1"/>
        <pt x="239" y="96" on="1"/>
        <pt x="424" y="82" on="1"/>
        <pt x="424" y="0" on="1"/>
        <pt x="-26" y="0" on="1"/>
      </contour>
      <contour>
        <pt x="974" y="533" on="1"/>
        <pt x="742" y="1221" on="1"/>
        <pt x="681" y="1427" on="1"/>
        <pt x="621" y="1212" on="1"/>
        <pt x="389" y="533" on="1"/>
      </contour>
      <contour>
        <pt x="805" y="1651" on="1"/>
        <pt x="781" y="1662" on="0"/>
        <pt x="714" y="1697" on="0"/>
        <pt x="638" y="1740" on="0"/>
        <pt x="559" y="1788" on="0"/>
        <pt x="487" y="1838" on="0"/>
        <pt x="428" y="1887" on="0"/>
        <pt x="410" y="1908" on="1"/>
        <pt x="512" y="2007" on="1"/>
        <pt x="513" y="2007" on="1"/>
        <pt x="854" y="1699" on="1"/>
        <pt x="806" y="1651" on="1"/>
        <pt x="805" y="1651" on="1"/>
      </contour>
    </TTGlyph>
    <TTGlyph name="Amacron" xMin="-26" yMin="0" xMax="1417" yMax="1876">
      <contour>
        <pt x="-26" y="82" on="1"/>
        <pt x="107" y="96" on="1"/>
        <pt x="626" y="1538" on="1"/>
        <pt x="772" y="1538" on="1"/>
        <pt x="1282" y="96" on="1"/>
        <pt x="1417" y="82" on="1"/>
        <pt x="1417" y="0" on="1"/>
        <pt x="934" y="0" on="1"/>
        <pt x="934" y="82" on="1"/>
        <pt x="1122" y="96" on="1"/>
        <pt x="1008" y="434" on="1"/>
        <pt x="355" y="434" on="1"/>
        <pt x="239" y="96" on="1"/>
        <pt x="424" y="82" on="1"/>
        <pt x="424" y="0" on="1"/>
        <pt x="-26" y="0" on="1"/>
      </contour>
      <contour>
        <pt x="974" y="533" on="1"/>
        <pt x="742" y="1221" on="1"/>
        <pt x="681" y="1427" on="1"/>
        <pt x="621" y="1212" on="1"/>
        <pt x="389" y="533" on="1"/>
      </contour>
      <contour>
        <pt x="434" y="1876" on="1"/>
        <pt x="965" y="1876" on="1"/>
        <pt x="965" y="1763" on="1"/>
        <pt x="434" y="1763" on="1"/>
      </contour>
    </TTGlyph>
    <TTGlyph name="Aogonek" xMin="-26" yMin="-510" xMax="1417" yMax="1538">
      <contour>
        <pt x="-26" y="82" on="1"/>
        <pt x="107" y="96" on="1"/>
        <pt x="626" y="1538" on="1"/>
        <pt x="772" y="1538" on="1"/>
        <pt x="1282" y="96" on="1"/>
        <pt x="1417" y="82" on="1"/>
        <pt x="1417" y="0" on="1"/>
        <pt x="1250" y="0" on="1"/>
        <pt x="1198" y="-22" on="0"/>
        <pt x="1103" y="-87" on="0"/>
        <pt x="1031" y="-161" on="0"/>
        <pt x="988" y="-238" on="0"/>
        <pt x="988" y="-271" on="1"/>
        <pt x="988" y="-309" on="0"/>
        <pt x="1015" y="-361" on="0"/>
        <pt x="1060" y="-393" on="0"/>
        <pt x="1119" y="-407" on="0"/>
        <pt x="1152" y="-407" on="1"/>
        <pt x="1194" y="-407" on="0"/>
        <pt x="1282" y="-382" on="0"/>
        <pt x="1318" y="-362" on="1"/>
        <pt x="1318" y="-440" on="1"/>
        <pt x="1275" y="-472" on="0"/>
        <pt x="1151" y="-510" on="0"/>
        <pt x="1088" y="-510" on="1"/>
        <pt x="1041" y="-510" on="0"/>
        <pt x="953" y="-491" on="0"/>
        <pt x="885" y="-446" on="0"/>
        <pt x="843" y="-374" on="0"/>
        <pt x="843" y="-320" on="1"/>
        <pt x="843" y="-278" on="0"/>
        <pt x="894" y="-184" on="0"/>
        <pt x="976" y="-97" on="0"/>
        <pt x="1080" y="-23" on="0"/>
        <pt x="1133" y="0" on="1"/>
        <pt x="934" y="0" on="1"/>
        <pt x="934" y="82" on="1"/>
        <pt x="1122" y="96" on="1"/>
        <pt x="1008" y="434" on="1"/>
        <pt x="355" y="434" on="1"/>
        <pt x="239" y="96" on="1"/>
        <pt x="424" y="82" on="1"/>
        <pt x="424" y="0" on="1"/>
        <pt x="-26" y="0" on="1"/>
      </contour>
      <contour>
        <pt x="974" y="533" on="1"/>
        <pt x="742" y="1221" on="1"/>
        <pt x="681" y="1427" on="1"/>
        <pt x="621" y="1212" on="1"/>
        <pt x="389" y="533" on="1"/>
      </contour>
    </TTGlyph>
    <TTGlyph name="Aring" xMin="-26" yMin="0" xMax="1417" yMax="2014">
      <contour>
        <pt x="-26" y="82" on="1"/>
        <pt x="107" y="96" on="1"/>
        <pt x="621" y="1523" on="1"/>
        <pt x="561" y="1532" on="0"/>
        <pt x="471" y="1576" on="0"/>
        <pt x="412" y="1641" on="0"/>
        <pt x="383" y="1723" on="0"/>
        <pt x="384" y="1770" on="1"/>
        <pt x="385" y="1832" on="0"/>
        <pt x="443" y="1924" on="0"/>
        <pt x="537" y="1984" on="0"/>
        <pt x="655" y="2014" on="0"/>
        <pt x="715" y="2014" on="1"/>
        <pt x="716" y="2014" on="1"/>
        <pt x="791" y="2014" on="0"/>
        <pt x="906" y="1978" on="0"/>
        <pt x="984" y="1913" on="0"/>
        <pt x="1024" y="1821" on="0"/>
        <pt x="1024" y="1765" on="1"/>
        <pt x="1023" y="1712" on="0"/>
        <pt x="984" y="1630" on="0"/>
        <pt x="917" y="1569" on="0"/>
        <pt x="828" y="1531" on="0"/>
        <pt x="777" y="1523" on="1"/>
        <pt x="1282" y="96" on="1"/>
        <pt x="1417" y="82" on="1"/>
        <pt x="1417" y="0" on="1"/>
        <pt x="934" y="0" on="1"/>
        <pt x="934" y="82" on="1"/>
        <pt x="1122" y="96" on="1"/>
        <pt x="1008" y="434" on="1"/>
        <pt x="355" y="434" on="1"/>
        <pt x="239" y="96" on="1"/>
        <pt x="424" y="82" on="1"/>
        <pt x="424" y="0" on="1"/>
        <pt x="-26" y="0" on="1"/>
      </contour>
      <contour>
        <pt x="708" y="1592" on="1"/>
        <pt x="807" y="1592" on="0"/>
        <pt x="911" y="1676" on="0"/>
        <pt x="911" y="1758" on="1"/>
        <pt x="911" y="1797" on="0"/>
        <pt x="888" y="1863" on="0"/>
        <pt x="840" y="1911" on="0"/>
        <pt x="764" y="1938" on="0"/>
        <pt x="710" y="1938" on="1"/>
        <pt x="709" y="1938" on="1"/>
        <pt x="613" y="1938" on="0"/>
        <pt x="498" y="1855" on="0"/>
        <pt x="498" y="1771" on="1"/>
        <pt x="498" y="1735" on="0"/>
        <pt x="522" y="1670" on="0"/>
        <pt x="573" y="1621" on="0"/>
        <pt x="652" y="1592" on="0"/>
        <pt x="707" y="1592" on="1"/>
      </contour>
      <contour>
        <pt x="974" y="533" on="1"/>
        <pt x="742" y="1221" on="1"/>
        <pt x="681" y="1427" on="1"/>
        <pt x="621" y="1212" on="1"/>
        <pt x="389" y="533" on="1"/>
      </contour>
    </TTGlyph>
    <TTGlyph name="Atilde" xMin="-26" yMin="0" xMax="1417" yMax="2001">
      <contour>
        <pt x="-26" y="82" on="1"/>
        <pt x="107" y="96" on="1"/>
        <pt x="626" y="1538" on="1"/>
        <pt x="772" y="1538" on="1"/>
        <pt x="1282" y="96" on="1"/>
        <pt x="1417" y="82" on="1"/>
        <pt x="1417" y="0" on="1"/>
        <pt x="934" y="0" on="1"/>
        <pt x="934" y="82" on="1"/>
        <pt x="1122" y="96" on="1"/>
        <pt x="1008" y="434" on="1"/>
        <pt x="355" y="434" on="1"/>
        <pt x="239" y="96" on="1"/>
        <pt x="424" y="82" on="1"/>
        <pt x="424" y="0" on="1"/>
        <pt x="-26" y="0" on="1"/>
      </contour>
      <contour>
        <pt x="974" y="533" on="1"/>
        <pt x="742" y="1221" on="1"/>
        <pt x="681" y="1427" on="1"/>
        <pt x="621" y="1212" on="1"/>
        <pt x="389" y="533" on="1"/>
      </contour>
      <contour>
        <pt x="275" y="1796" on="1"/>
        <pt x="283" y="1829" on="0"/>
        <pt x="330" y="1902" on="0"/>
        <pt x="402" y="1962" on="0"/>
        <pt x="494" y="2001" on="0"/>
        <pt x="547" y="2001" on="1"/>
        <pt x="588" y="2001" on="0"/>
        <pt x="652" y="1975" on="0"/>
        <pt x="704" y="1935" on="0"/>
        <pt x="750" y="1890" on="0"/>
        <pt x="795" y="1850" on="0"/>
        <pt x="844" y="1824" on="0"/>
        <pt x="874" y="1824" on="1"/>
        <pt x="911" y="1824" on="0"/>
        <pt x="965" y="1854" on="0"/>
        <pt x="1004" y="1897" on="0"/>
        <pt x="1029" y="1943" on="0"/>
        <pt x="1036" y="1959" on="1"/>
        <pt x="1115" y="1918" on="1"/>
        <pt x="1104" y="1879" on="0"/>
        <pt x="1059" y="1805" on="0"/>
        <pt x="995" y="1748" on="0"/>
        <pt x="912" y="1713" on="0"/>
        <pt x="863" y="1713" on="1"/>
        <pt x="822" y="1713" on="0"/>
        <pt x="759" y="1739" on="0"/>
        <pt x="705" y="1779" on="0"/>
        <pt x="657" y="1824" on="0"/>
        <pt x="609" y="1864" on="0"/>
        <pt x="556" y="1890" on="0"/>
        <pt x="524" y="1890" on="1"/>
        <pt x="487" y="1890" on="0"/>
        <pt x="430" y="1860" on="0"/>
        <pt x="388" y="1817" on="0"/>
        <pt x="361" y="1771" on="0"/>
        <pt x="354" y="1755" on="1"/>
      </contour>
    </TTGlyph>
    <TTGlyph name="B" xMin="106" yMin="-12" xMax="1288" yMax="1538">
      <contour>
        <pt x="106" y="82" on="1"/>
        <pt x="283" y="96" on="1"/>
        <pt x="283" y="1420" on="1"/>
        <pt x="110" y="1441" on="1"/>
        <pt x="110" y="1522" on="1"/>
        <pt x="358" y="1522" on="1"/>
        <pt x="449" y="1522" on="0"/>
        <pt x="603" y="1538" on="0"/>
        <pt x="678" y="1538" on="1"/>
        <pt x="815" y="1538" on="0"/>
        <pt x="1006" y="1491" on="0"/>
        <pt x="1125" y="1402" on="0"/>
        <pt x="1179" y="1274" on="0"/>
        <pt x="1179" y="1194" on="1"/>
        <pt x="1179" y="1126" on="0"/>
        <pt x="1141" y="1000" on="0"/>
        <pt x="1065" y="898" on="0"/>
        <pt x="952" y="825" on="0"/>
        <pt x="877" y="810" on="1"/>
        <pt x="976" y="814" on="0"/>
        <pt x="1129" y="765" on="0"/>
        <pt x="1234" y="670" on="0"/>
        <pt x="1288" y="535" on="0"/>
        <pt x="1288" y="454" on="1"/>
        <pt x="1288" y="364" on="0"/>
        <pt x="1228" y="196" on="0"/>
        <pt x="1086" y="66" on="0"/>
        <pt x="849" y="-12" on="0"/>
        <pt x="671" y="-12" on="1"/>
        <pt x="634" y="-12" on="0"/>
        <pt x="568" y="-8" on="0"/>
        <pt x="495" y="-4" on="0"/>
        <pt x="407" y="0" on="0"/>
        <pt x="349" y="0" on="1"/>
        <pt x="106" y="0" on="1"/>
      </contour>
      <contour>
        <pt x="430" y="843" on="1"/>
        <pt x="454" y="841" on="0"/>
        <pt x="529" y="840" on="0"/>
        <pt x="608" y="840" on="0"/>
        <pt x="679" y="840" on="0"/>
        <pt x="700" y="840" on="1"/>
        <pt x="860" y="840" on="0"/>
        <pt x="1032" y="1007" on="0"/>
        <pt x="1032" y="1159" on="1"/>
        <pt x="1032" y="1231" on="0"/>
        <pt x="995" y="1341" on="0"/>
        <pt x="908" y="1415" on="0"/>
        <pt x="764" y="1453" on="0"/>
        <pt x="658" y="1453" on="1"/>
        <pt x="580" y="1453" on="0"/>
        <pt x="465" y="1439" on="0"/>
        <pt x="430" y="1438" on="1"/>
      </contour>
      <contour>
        <pt x="430" y="95" on="1"/>
        <pt x="452" y="90" on="0"/>
        <pt x="514" y="84" on="0"/>
        <pt x="581" y="80" on="0"/>
        <pt x="647" y="78" on="0"/>
        <pt x="674" y="78" on="1"/>
        <pt x="799" y="78" on="0"/>
        <pt x="972" y="127" on="0"/>
        <pt x="1080" y="217" on="0"/>
        <pt x="1128" y="345" on="0"/>
        <pt x="1128" y="424" on="1"/>
        <pt x="1128" y="506" on="0"/>
        <pt x="1084" y="626" on="0"/>
        <pt x="992" y="704" on="0"/>
        <pt x="847" y="741" on="0"/>
        <pt x="747" y="741" on="1"/>
        <pt x="718" y="741" on="0"/>
        <pt x="630" y="741" on="0"/>
        <pt x="538" y="741" on="0"/>
        <pt x="454" y="740" on="0"/>
        <pt x="430" y="739" on="1"/>
      </contour>
    </TTGlyph>
    <TTGlyph name="C" xMin="76" yMin="-23" xMax="1248" yMax="1538">
      <contour>
        <pt x="772" y="-23" on="1"/>
        <pt x="605" y="-23" on="0"/>
        <pt x="346" y="91" on="0"/>
        <pt x="168" y="298" on="0"/>
        <pt x="76" y="590" on="0"/>
        <pt x="76" y="769" on="1"/>
        <pt x="76" y="880" on="0"/>
        <pt x="128" y="1080" on="0"/>
        <pt x="222" y="1251" on="0"/>
        <pt x="354" y="1389" on="0"/>
        <pt x="515" y="1486" on="0"/>
        <pt x="700" y="1538" on="0"/>
        <pt x="800" y="1538" on="1"/>
        <pt x="869" y="1538" on="0"/>
        <pt x="1001" y="1522" on="0"/>
        <pt x="1115" y="1500" on="0"/>
        <pt x="1205" y="1479" on="0"/>
        <pt x="1231" y="1473" on="1"/>
        <pt x="1214" y="1147" on="1"/>
        <pt x="1122" y="1147" on="1"/>
        <pt x="1083" y="1384" on="1"/>
        <pt x="1054" y="1408" on="0"/>
        <pt x="887" y="1446" on="0"/>
        <pt x="760" y="1446" on="1"/>
        <pt x="652" y="1446" on="0"/>
        <pt x="467" y="1355" on="0"/>
        <pt x="331" y="1185" on="0"/>
        <pt x="253" y="939" on="0"/>
        <pt x="253" y="785" on="1"/>
        <pt x="253" y="643" on="0"/>
        <pt x="314" y="384" on="0"/>
        <pt x="441" y="186" on="0"/>
        <pt x="638" y="68" on="0"/>
        <pt x="774" y="68" on="1"/>
        <pt x="841" y="68" on="0"/>
        <pt x="937" y="80" on="0"/>
        <pt x="1007" y="100" on="0"/>
        <pt x="1058" y="128" on="0"/>
        <pt x="1080" y="143" on="1"/>
        <pt x="1158" y="333" on="1"/>
        <pt x="1248" y="321" on="1"/>
        <pt x="1196" y="56" on="1"/>
        <pt x="1156" y="54" on="0"/>
        <pt x="1082" y="29" on="0"/>
        <pt x="989" y="0" on="0"/>
        <pt x="863" y="-23" on="0"/>
      </contour>
    </TTGlyph>
    <TTGlyph name="Cacute" xMin="92" yMin="-23" xMax="1264" yMax="2007">
      <contour>
        <pt x="788" y="-23" on="1"/>
        <pt x="621" y="-23" on="0"/>
        <pt x="362" y="91" on="0"/>
        <pt x="184" y="298" on="0"/>
        <pt x="92" y="590" on="0"/>
        <pt x="92" y="769" on="1"/>
        <pt x="92" y="880" on="0"/>
        <pt x="144" y="1080" on="0"/>
        <pt x="238" y="1251" on="0"/>
        <pt x="370" y="1389" on="0"/>
        <pt x="531" y="1486" on="0"/>
        <pt x="716" y="1538" on="0"/>
        <pt x="816" y="1538" on="1"/>
        <pt x="885" y="1538" on="0"/>
        <pt x="1017" y="1522" on="0"/>
        <pt x="1131" y="1500" on="0"/>
        <pt x="1221" y="1479" on="0"/>
        <pt x="1247" y="1473" on="1"/>
        <pt x="1230" y="1147" on="1"/>
        <pt x="1138" y="1147" on="1"/>
        <pt x="1099" y="1384" on="1"/>
        <pt x="1070" y="1408" on="0"/>
        <pt x="903" y="1446" on="0"/>
        <pt x="776" y="1446" on="1"/>
        <pt x="668" y="1446" on="0"/>
        <pt x="483" y="1355" on="0"/>
        <pt x="347" y="1185" on="0"/>
        <pt x="269" y="939" on="0"/>
        <pt x="269" y="785" on="1"/>
        <pt x="269" y="643" on="0"/>
        <pt x="330" y="384" on="0"/>
        <pt x="457" y="186" on="0"/>
        <pt x="654" y="68" on="0"/>
        <pt x="790" y="68" on="1"/>
        <pt x="857" y="68" on="0"/>
        <pt x="953" y="80" on="0"/>
        <pt x="1023" y="100" on="0"/>
        <pt x="1074" y="128" on="0"/>
        <pt x="1096" y="143" on="1"/>
        <pt x="1174" y="333" on="1"/>
        <pt x="1264" y="321" on="1"/>
        <pt x="1212" y="56" on="1"/>
        <pt x="1172" y="54" on="0"/>
        <pt x="1098" y="29" on="0"/>
        <pt x="1005" y="0" on="0"/>
        <pt x="879" y="-23" on="0"/>
      </contour>
      <contour>
        <pt x="668" y="1699" on="1"/>
        <pt x="1009" y="2007" on="1"/>
        <pt x="1010" y="2007" on="1"/>
        <pt x="1112" y="1908" on="1"/>
        <pt x="1094" y="1887" on="0"/>
        <pt x="1035" y="1838" on="0"/>
        <pt x="962" y="1788" on="0"/>
        <pt x="883" y="1740" on="0"/>
        <pt x="807" y="1697" on="0"/>
        <pt x="740" y="1662" on="0"/>
        <pt x="717" y="1651" on="1"/>
        <pt x="716" y="1651" on="1"/>
      </contour>
    </TTGlyph>
    <TTGlyph name="Ccaron" xMin="92" yMin="-23" xMax="1264" yMax="2010">
      <contour>
        <pt x="788" y="-23" on="1"/>
        <pt x="621" y="-23" on="0"/>
        <pt x="362" y="91" on="0"/>
        <pt x="184" y="298" on="0"/>
        <pt x="92" y="590" on="0"/>
        <pt x="92" y="769" on="1"/>
        <pt x="92" y="880" on="0"/>
        <pt x="144" y="1080" on="0"/>
        <pt x="238" y="1251" on="0"/>
        <pt x="370" y="1389" on="0"/>
        <pt x="531" y="1486" on="0"/>
        <pt x="716" y="1538" on="0"/>
        <pt x="816" y="1538" on="1"/>
        <pt x="885" y="1538" on="0"/>
        <pt x="1017" y="1522" on="0"/>
        <pt x="1131" y="1500" on="0"/>
        <pt x="1221" y="1479" on="0"/>
        <pt x="1247" y="1473" on="1"/>
        <pt x="1230" y="1147" on="1"/>
        <pt x="1138" y="1147" on="1"/>
        <pt x="1099" y="1384" on="1"/>
        <pt x="1070" y="1408" on="0"/>
        <pt x="903" y="1446" on="0"/>
        <pt x="776" y="1446" on="1"/>
        <pt x="668" y="1446" on="0"/>
        <pt x="483" y="1355" on="0"/>
        <pt x="347" y="1185" on="0"/>
        <pt x="269" y="939" on="0"/>
        <pt x="269" y="785" on="1"/>
        <pt x="269" y="643" on="0"/>
        <pt x="330" y="384" on="0"/>
        <pt x="457" y="186" on="0"/>
        <pt x="654" y="68" on="0"/>
        <pt x="790" y="68" on="1"/>
        <pt x="857" y="68" on="0"/>
        <pt x="953" y="80" on="0"/>
        <pt x="1023" y="100" on="0"/>
        <pt x="1074" y="128" on="0"/>
        <pt x="1096" y="143" on="1"/>
        <pt x="1174" y="333" on="1"/>
        <pt x="1264" y="321" on="1"/>
        <pt x="1212" y="56" on="1"/>
        <pt x="1172" y="54" on="0"/>
        <pt x="1098" y="29" on="0"/>
        <pt x="1005" y="0" on="0"/>
        <pt x="879" y="-23" on="0"/>
      </contour>
      <contour>
        <pt x="484" y="1972" on="1"/>
        <pt x="552" y="2010" on="1"/>
        <pt x="802" y="1800" on="1"/>
        <pt x="1058" y="2010" on="1"/>
        <pt x="1119" y="1974" on="1"/>
        <pt x="875" y="1699" on="1"/>
        <pt x="731" y="1699" on="1"/>
      </contour>
    </TTGlyph>
    <TTGlyph name="Ccedilla" xMin="92" yMin="-477" xMax="1264" yMax="1538">
      <contour>
        <pt x="552" y="-342" on="1"/>
        <pt x="574" y="-350" on="0"/>
        <pt x="632" y="-359" on="0"/>
        <pt x="649" y="-359" on="1"/>
        <pt x="650" y="-359" on="1"/>
        <pt x="689" y="-359" on="0"/>
        <pt x="749" y="-348" on="0"/>
        <pt x="791" y="-316" on="0"/>
        <pt x="812" y="-258" on="0"/>
        <pt x="812" y="-211" on="1"/>
        <pt x="812" y="-183" on="0"/>
        <pt x="798" y="-129" on="0"/>
        <pt x="778" y="-79" on="0"/>
        <pt x="755" y="-37" on="0"/>
        <pt x="745" y="-22" on="1"/>
        <pt x="588" y="-15" on="0"/>
        <pt x="345" y="105" on="0"/>
        <pt x="178" y="311" on="0"/>
        <pt x="92" y="596" on="0"/>
        <pt x="92" y="769" on="1"/>
        <pt x="92" y="880" on="0"/>
        <pt x="144" y="1080" on="0"/>
        <pt x="238" y="1251" on="0"/>
        <pt x="370" y="1389" on="0"/>
        <pt x="531" y="1486" on="0"/>
        <pt x="716" y="1538" on="0"/>
        <pt x="816" y="1538" on="1"/>
        <pt x="885" y="1538" on="0"/>
        <pt x="1017" y="1522" on="0"/>
        <pt x="1131" y="1500" on="0"/>
        <pt x="1221" y="1479" on="0"/>
        <pt x="1247" y="1473" on="1"/>
        <pt x="1230" y="1147" on="1"/>
        <pt x="1138" y="1147" on="1"/>
        <pt x="1099" y="1384" on="1"/>
        <pt x="1070" y="1408" on="0"/>
        <pt x="903" y="1446" on="0"/>
        <pt x="776" y="1446" on="1"/>
        <pt x="668" y="1446" on="0"/>
        <pt x="483" y="1355" on="0"/>
        <pt x="347" y="1185" on="0"/>
        <pt x="269" y="939" on="0"/>
        <pt x="269" y="785" on="1"/>
        <pt x="269" y="643" on="0"/>
        <pt x="330" y="384" on="0"/>
        <pt x="457" y="186" on="0"/>
        <pt x="654" y="68" on="0"/>
        <pt x="790" y="68" on="1"/>
        <pt x="857" y="68" on="0"/>
        <pt x="953" y="80" on="0"/>
        <pt x="1023" y="100" on="0"/>
        <pt x="1074" y="128" on="0"/>
        <pt x="1096" y="143" on="1"/>
        <pt x="1174" y="333" on="1"/>
        <pt x="1264" y="321" on="1"/>
        <pt x="1212" y="56" on="1"/>
        <pt x="1174" y="54" on="0"/>
        <pt x="1104" y="31" on="0"/>
        <pt x="1019" y="4" on="0"/>
        <pt x="907" y="-19" on="0"/>
        <pt x="828" y="-22" on="1"/>
        <pt x="846" y="-42" on="0"/>
        <pt x="886" y="-100" on="0"/>
        <pt x="921" y="-170" on="0"/>
        <pt x="942" y="-250" on="0"/>
        <pt x="941" y="-291" on="1"/>
        <pt x="939" y="-343" on="0"/>
        <pt x="905" y="-414" on="0"/>
        <pt x="842" y="-458" on="0"/>
        <pt x="752" y="-477" on="0"/>
        <pt x="695" y="-477" on="1"/>
        <pt x="694" y="-477" on="1"/>
        <pt x="677" y="-477" on="0"/>
        <pt x="638" y="-473" on="0"/>
        <pt x="599" y="-466" on="0"/>
        <pt x="564" y="-456" on="0"/>
        <pt x="551" y="-450" on="1"/>
        <pt x="552" y="-342" on="1"/>
      </contour>
    </TTGlyph>
    <TTGlyph name="Ccircumflex" xMin="92" yMin="-23" xMax="1264" yMax="2014">
      <contour>
        <pt x="788" y="-23" on="1"/>
        <pt x="621" y="-23" on="0"/>
        <pt x="362" y="91" on="0"/>
        <pt x="184" y="298" on="0"/>
        <pt x="92" y="590" on="0"/>
        <pt x="92" y="769" on="1"/>
        <pt x="92" y="880" on="0"/>
        <pt x="144" y="1080" on="0"/>
        <pt x="238" y="1251" on="0"/>
        <pt x="370" y="1389" on="0"/>
        <pt x="531" y="1486" on="0"/>
        <pt x="716" y="1538" on="0"/>
        <pt x="816" y="1538" on="1"/>
        <pt x="885" y="1538" on="0"/>
        <pt x="1017" y="1522" on="0"/>
        <pt x="1131" y="1500" on="0"/>
        <pt x="1221" y="1479" on="0"/>
        <pt x="1247" y="1473" on="1"/>
        <pt x="1230" y="1147" on="1"/>
        <pt x="1138" y="1147" on="1"/>
        <pt x="1099" y="1384" on="1"/>
        <pt x="1070" y="1408" on="0"/>
        <pt x="903" y="1446" on="0"/>
        <pt x="776" y="1446" on="1"/>
        <pt x="668" y="1446" on="0"/>
        <pt x="483" y="1355" on="0"/>
        <pt x="347" y="1185" on="0"/>
        <pt x="269" y="939" on="0"/>
        <pt x="269" y="785" on="1"/>
        <pt x="269" y="643" on="0"/>
        <pt x="330" y="384" on="0"/>
        <pt x="457" y="186" on="0"/>
        <pt x="654" y="68" on="0"/>
        <pt x="790" y="68" on="1"/>
        <pt x="857" y="68" on="0"/>
        <pt x="953" y="80" on="0"/>
        <pt x="1023" y="100" on="0"/>
        <pt x="1074" y="128" on="0"/>
        <pt x="1096" y="143" on="1"/>
        <pt x="1174" y="333" on="1"/>
        <pt x="1264" y="321" on="1"/>
        <pt x="1212" y="56" on="1"/>
        <pt x="1172" y="54" on="0"/>
        <pt x="1098" y="29" on="0"/>
        <pt x="1005" y="0" on="0"/>
        <pt x="879" y="-23" on="0"/>
      </contour>
      <contour>
        <pt x="467" y="1718" on="1"/>
        <pt x="726" y="2014" on="1"/>
        <pt x="870" y="2014" on="1"/>
        <pt x="1132" y="1720" on="1"/>
        <pt x="1064" y="1681" on="1"/>
        <pt x="799" y="1904" on="1"/>
        <pt x="529" y="1681" on="1"/>
      </contour>
    </TTGlyph>
    <TTGlyph name="Cdotaccent" xMin="92" yMin="-23" xMax="1264" yMax="1955">
      <contour>
        <pt x="792" y="1720" on="1"/>
        <pt x="770" y="1720" on="0"/>
        <pt x="735" y="1737" on="0"/>
        <pt x="711" y="1767" on="0"/>
        <pt x="698" y="1806" on="0"/>
        <pt x="698" y="1828" on="1"/>
        <pt x="698" y="1852" on="0"/>
        <pt x="711" y="1897" on="0"/>
        <pt x="738" y="1933" on="0"/>
        <pt x="779" y="1955" on="0"/>
        <pt x="807" y="1955" on="1"/>
        <pt x="808" y="1955" on="1"/>
        <pt x="832" y="1955" on="0"/>
        <pt x="869" y="1935" on="0"/>
        <pt x="893" y="1904" on="0"/>
        <pt x="906" y="1864" on="0"/>
        <pt x="906" y="1845" on="1"/>
        <pt x="906" y="1819" on="0"/>
        <pt x="892" y="1774" on="0"/>
        <pt x="864" y="1740" on="0"/>
        <pt x="822" y="1720" on="0"/>
        <pt x="793" y="1720" on="1"/>
        <pt x="792" y="1720" on="1"/>
      </contour>
      <contour>
        <pt x="788" y="-23" on="1"/>
        <pt x="621" y="-23" on="0"/>
        <pt x="362" y="91" on="0"/>
        <pt x="184" y="298" on="0"/>
        <pt x="92" y="590" on="0"/>
        <pt x="92" y="769" on="1"/>
        <pt x="92" y="880" on="0"/>
        <pt x="144" y="1080" on="0"/>
        <pt x="238" y="1251" on="0"/>
        <pt x="370" y="1389" on="0"/>
        <pt x="531" y="1486" on="0"/>
        <pt x="716" y="1538" on="0"/>
        <pt x="816" y="1538" on="1"/>
        <pt x="885" y="1538" on="0"/>
        <pt x="1017" y="1522" on="0"/>
        <pt x="1131" y="1500" on="0"/>
        <pt x="1221" y="1479" on="0"/>
        <pt x="1247" y="1473" on="1"/>
        <pt x="1230" y="1147" on="1"/>
        <pt x="1138" y="1147" on="1"/>
        <pt x="1099" y="1384" on="1"/>
        <pt x="1070" y="1408" on="0"/>
        <pt x="903" y="1446" on="0"/>
        <pt x="776" y="1446" on="1"/>
        <pt x="668" y="1446" on="0"/>
        <pt x="483" y="1355" on="0"/>
        <pt x="347" y="1185" on="0"/>
        <pt x="269" y="939" on="0"/>
        <pt x="269" y="785" on="1"/>
        <pt x="269" y="643" on="0"/>
        <pt x="330" y="384" on="0"/>
        <pt x="457" y="186" on="0"/>
        <pt x="654" y="68" on="0"/>
        <pt x="790" y="68" on="1"/>
        <pt x="857" y="68" on="0"/>
        <pt x="953" y="80" on="0"/>
        <pt x="1023" y="100" on="0"/>
        <pt x="1074" y="128" on="0"/>
        <pt x="1096" y="143" on="1"/>
        <pt x="1174" y="333" on="1"/>
        <pt x="1264" y="321" on="1"/>
        <pt x="1212" y="56" on="1"/>
        <pt x="1172" y="54" on="0"/>
        <pt x="1098" y="29" on="0"/>
        <pt x="1005" y="0" on="0"/>
        <pt x="879" y="-23" on="0"/>
      </contour>
    </TTGlyph>
    <TTGlyph name="D" xMin="105" yMin="-20" xMax="1473" yMax="1538">
      <contour>
        <pt x="105" y="82" on="1"/>
        <pt x="283" y="97" on="1"/>
        <pt x="283" y="1420" on="1"/>
        <pt x="117" y="1441" on="1"/>
        <pt x="117" y="1522" on="1"/>
        <pt x="357" y="1522" on="1"/>
        <pt x="452" y="1522" on="0"/>
        <pt x="631" y="1538" on="0"/>
        <pt x="719" y="1538" on="1"/>
        <pt x="919" y="1538" on="0"/>
        <pt x="1205" y="1432" on="0"/>
        <pt x="1388" y="1239" on="0"/>
        <pt x="1473" y="969" on="0"/>
        <pt x="1473" y="805" on="1"/>
        <pt x="1473" y="617" on="0"/>
        <pt x="1358" y="310" on="0"/>
        <pt x="1151" y="94" on="0"/>
        <pt x="865" y="-20" on="0"/>
        <pt x="694" y="-16" on="1"/>
        <pt x="620" y="-14" on="0"/>
        <pt x="452" y="0" on="0"/>
        <pt x="360" y="0" on="1"/>
        <pt x="105" y="0" on="1"/>
      </contour>
      <contour>
        <pt x="430" y="92" on="1"/>
        <pt x="511" y="81" on="0"/>
        <pt x="649" y="73" on="0"/>
        <pt x="721" y="75" on="1"/>
        <pt x="849" y="77" on="0"/>
        <pt x="1067" y="170" on="0"/>
        <pt x="1226" y="346" on="0"/>
        <pt x="1316" y="605" on="0"/>
        <pt x="1316" y="774" on="1"/>
        <pt x="1316" y="1448" on="0"/>
        <pt x="671" y="1448" on="1"/>
        <pt x="599" y="1448" on="0"/>
        <pt x="478" y="1436" on="0"/>
        <pt x="430" y="1434" on="1"/>
      </contour>
    </TTGlyph>
    <TTGlyph name="Dcaron" xMin="105" yMin="-20" xMax="1473" yMax="2010">
      <contour>
        <pt x="487" y="1972" on="1"/>
        <pt x="555" y="2010" on="1"/>
        <pt x="805" y="1800" on="1"/>
        <pt x="1061" y="2010" on="1"/>
        <pt x="1122" y="1974" on="1"/>
        <pt x="878" y="1699" on="1"/>
        <pt x="734" y="1699" on="1"/>
      </contour>
      <contour>
        <pt x="105" y="82" on="1"/>
        <pt x="283" y="97" on="1"/>
        <pt x="283" y="1420" on="1"/>
        <pt x="117" y="1441" on="1"/>
        <pt x="117" y="1522" on="1"/>
        <pt x="357" y="1522" on="1"/>
        <pt x="452" y="1522" on="0"/>
        <pt x="631" y="1538" on="0"/>
        <pt x="719" y="1538" on="1"/>
        <pt x="919" y="1538" on="0"/>
        <pt x="1205" y="1432" on="0"/>
        <pt x="1388" y="1239" on="0"/>
        <pt x="1473" y="969" on="0"/>
        <pt x="1473" y="805" on="1"/>
        <pt x="1473" y="617" on="0"/>
        <pt x="1358" y="310" on="0"/>
        <pt x="1151" y="94" on="0"/>
        <pt x="865" y="-20" on="0"/>
        <pt x="694" y="-16" on="1"/>
        <pt x="620" y="-14" on="0"/>
        <pt x="452" y="0" on="0"/>
        <pt x="360" y="0" on="1"/>
        <pt x="105" y="0" on="1"/>
      </contour>
      <contour>
        <pt x="430" y="92" on="1"/>
        <pt x="511" y="81" on="0"/>
        <pt x="649" y="73" on="0"/>
        <pt x="721" y="75" on="1"/>
        <pt x="849" y="77" on="0"/>
        <pt x="1067" y="170" on="0"/>
        <pt x="1226" y="346" on="0"/>
        <pt x="1316" y="605" on="0"/>
        <pt x="1316" y="774" on="1"/>
        <pt x="1316" y="1448" on="0"/>
        <pt x="671" y="1448" on="1"/>
        <pt x="599" y="1448" on="0"/>
        <pt x="478" y="1436" on="0"/>
        <pt x="430" y="1434" on="1"/>
      </contour>
    </TTGlyph>
    <TTGlyph name="Dcroat" xMin="105" yMin="-20" xMax="1473" yMax="1538">
      <contour>
        <pt x="105" y="82" on="1"/>
        <pt x="283" y="97" on="1"/>
        <pt x="283" y="754" on="1"/>
        <pt x="124" y="754" on="1"/>
        <pt x="124" y="837" on="1"/>
        <pt x="283" y="837" on="1"/>
        <pt x="283" y="1420" on="1"/>
        <pt x="117" y="1441" on="1"/>
        <pt x="117" y="1522" on="1"/>
        <pt x="357" y="1522" on="1"/>
        <pt x="452" y="1522" on="0"/>
        <pt x="631" y="1538" on="0"/>
        <pt x="719" y="1538" on="1"/>
        <pt x="919" y="1538" on="0"/>
        <pt x="1205" y="1432" on="0"/>
        <pt x="1388" y="1239" on="0"/>
        <pt x="1473" y="969" on="0"/>
        <pt x="1473" y="805" on="1"/>
        <pt x="1473" y="617" on="0"/>
        <pt x="1358" y="310" on="0"/>
        <pt x="1151" y="94" on="0"/>
        <pt x="865" y="-20" on="0"/>
        <pt x="694" y="-16" on="1"/>
        <pt x="620" y="-14" on="0"/>
        <pt x="452" y="0" on="0"/>
        <pt x="360" y="0" on="1"/>
        <pt x="105" y="0" on="1"/>
      </contour>
      <contour>
        <pt x="430" y="92" on="1"/>
        <pt x="511" y="81" on="0"/>
        <pt x="649" y="73" on="0"/>
        <pt x="721" y="75" on="1"/>
        <pt x="849" y="77" on="0"/>
        <pt x="1067" y="170" on="0"/>
        <pt x="1226" y="346" on="0"/>
        <pt x="1316" y="605" on="0"/>
        <pt x="1316" y="774" on="1"/>
        <pt x="1316" y="1448" on="0"/>
        <pt x="671" y="1448" on="1"/>
        <pt x="599" y="1448" on="0"/>
        <pt x="478" y="1436" on="0"/>
        <pt x="430" y="1434" on="1"/>
        <pt x="430" y="837" on="1"/>
        <pt x="830" y="837" on="1"/>
        <pt x="830" y="754" on="1"/>
        <pt x="430" y="754" on="1"/>
      </contour>
    </TTGlyph>
    <TTGlyph name="Delta" xMin="150" yMin="1" xMax="1620" yMax="1516">
      <contour>
        <pt x="842" y="1516" on="1"/>
        <pt x="870" y="1516" on="1"/>
        <pt x="1620" y="24" on="1"/>
        <pt x="1605" y="1" on="1"/>
        <pt x="162" y="1" on="1"/>
        <pt x="150" y="20" on="1"/>
      </contour>
      <contour>
        <pt x="1410" y="110" on="1"/>
        <pt x="839" y="1278" on="1"/>
        <pt x="315" y="110" on="1"/>
      </contour>
    </TTGlyph>
    <TTGlyph name="Deltagreek" xMin="150" yMin="1" xMax="1620" yMax="1516">
      <contour>
        <pt x="842" y="1516" on="1"/>
        <pt x="870" y="1516" on="1"/>
        <pt x="1620" y="24" on="1"/>
        <pt x="1605" y="1" on="1"/>
        <pt x="162" y="1" on="1"/>
        <pt x="150" y="20" on="1"/>
      </contour>
      <contour>
        <pt x="1410" y="110" on="1"/>
        <pt x="839" y="1278" on="1"/>
        <pt x="315" y="110" on="1"/>
      </contour>
    </TTGlyph>
    <TTGlyph name="E" xMin="106" yMin="0" xMax="1271" yMax="1522">
      <contour>
        <pt x="106" y="82" on="1"/>
        <pt x="283" y="97" on="1"/>
        <pt x="283" y="1420" on="1"/>
        <pt x="110" y="1441" on="1"/>
        <pt x="110" y="1522" on="1"/>
        <pt x="1114" y="1522" on="1"/>
        <pt x="1143" y="1226" on="1"/>
        <pt x="1058" y="1226" on="1"/>
        <pt x="1005" y="1427" on="1"/>
        <pt x="430" y="1434" on="1"/>
        <pt x="430" y="828" on="1"/>
        <pt x="825" y="833" on="1"/>
        <pt x="849" y="1006" on="1"/>
        <pt x="941" y="1006" on="1"/>
        <pt x="941" y="558" on="1"/>
        <pt x="849" y="558" on="1"/>
        <pt x="825" y="734" on="1"/>
        <pt x="430" y="739" on="1"/>
        <pt x="430" y="95" on="1"/>
        <pt x="1084" y="112" on="1"/>
        <pt x="1185" y="369" on="1"/>
        <pt x="1271" y="340" on="1"/>
        <pt x="1206" y="0" on="1"/>
        <pt x="106" y="0" on="1"/>
      </contour>
    </TTGlyph>
    <TTGlyph name="Eacute" xMin="106" yMin="0" xMax="1271" yMax="2007">
      <contour>
        <pt x="564" y="1699" on="1"/>
        <pt x="905" y="2007" on="1"/>
        <pt x="906" y="2007" on="1"/>
        <pt x="1008" y="1908" on="1"/>
        <pt x="990" y="1887" on="0"/>
        <pt x="931" y="1838" on="0"/>
        <pt x="858" y="1788" on="0"/>
        <pt x="779" y="1740" on="0"/>
        <pt x="703" y="1697" on="0"/>
        <pt x="636" y="1662" on="0"/>
        <pt x="613" y="1651" on="1"/>
        <pt x="612" y="1651" on="1"/>
      </contour>
      <contour>
        <pt x="106" y="82" on="1"/>
        <pt x="283" y="97" on="1"/>
        <pt x="283" y="1420" on="1"/>
        <pt x="110" y="1441" on="1"/>
        <pt x="110" y="1522" on="1"/>
        <pt x="1114" y="1522" on="1"/>
        <pt x="1143" y="1226" on="1"/>
        <pt x="1058" y="1226" on="1"/>
        <pt x="1005" y="1427" on="1"/>
        <pt x="430" y="1434" on="1"/>
        <pt x="430" y="828" on="1"/>
        <pt x="825" y="833" on="1"/>
        <pt x="849" y="1006" on="1"/>
        <pt x="941" y="1006" on="1"/>
        <pt x="941" y="558" on="1"/>
        <pt x="849" y="558" on="1"/>
        <pt x="825" y="734" on="1"/>
        <pt x="430" y="739" on="1"/>
        <pt x="430" y="95" on="1"/>
        <pt x="1084" y="112" on="1"/>
        <pt x="1185" y="369" on="1"/>
        <pt x="1271" y="340" on="1"/>
        <pt x="1206" y="0" on="1"/>
        <pt x="106" y="0" on="1"/>
      </contour>
    </TTGlyph>
    <TTGlyph name="Ebreve" xMin="106" yMin="0" xMax="1271" yMax="1994">
      <contour>
        <pt x="698" y="1659" on="1"/>
        <pt x="620" y="1659" on="0"/>
        <pt x="498" y="1704" on="0"/>
        <pt x="415" y="1783" on="0"/>
        <pt x="372" y="1891" on="0"/>
        <pt x="372" y="1954" on="1"/>
        <pt x="372" y="1964" on="0"/>
        <pt x="372" y="1983" on="0"/>
        <pt x="374" y="1994" on="1"/>
        <pt x="458" y="1994" on="1"/>
        <pt x="456" y="1982" on="0"/>
        <pt x="459" y="1965" on="1"/>
        <pt x="462" y="1935" on="0"/>
        <pt x="489" y="1870" on="0"/>
        <pt x="546" y="1817" on="0"/>
        <pt x="635" y="1782" on="0"/>
        <pt x="700" y="1782" on="1"/>
        <pt x="764" y="1782" on="0"/>
        <pt x="851" y="1817" on="0"/>
        <pt x="906" y="1871" on="0"/>
        <pt x="931" y="1936" on="0"/>
        <pt x="933" y="1966" on="1"/>
        <pt x="935" y="1975" on="0"/>
        <pt x="935" y="1989" on="0"/>
        <pt x="935" y="1994" on="1"/>
        <pt x="1016" y="1994" on="1"/>
        <pt x="1017" y="1983" on="0"/>
        <pt x="1018" y="1965" on="0"/>
        <pt x="1018" y="1955" on="1"/>
        <pt x="1018" y="1892" on="0"/>
        <pt x="974" y="1783" on="0"/>
        <pt x="891" y="1704" on="0"/>
        <pt x="773" y="1659" on="0"/>
      </contour>
      <contour>
        <pt x="106" y="82" on="1"/>
        <pt x="283" y="97" on="1"/>
        <pt x="283" y="1420" on="1"/>
        <pt x="110" y="1441" on="1"/>
        <pt x="110" y="1522" on="1"/>
        <pt x="1114" y="1522" on="1"/>
        <pt x="1143" y="1226" on="1"/>
        <pt x="1058" y="1226" on="1"/>
        <pt x="1005" y="1427" on="1"/>
        <pt x="430" y="1434" on="1"/>
        <pt x="430" y="828" on="1"/>
        <pt x="825" y="833" on="1"/>
        <pt x="849" y="1006" on="1"/>
        <pt x="941" y="1006" on="1"/>
        <pt x="941" y="558" on="1"/>
        <pt x="849" y="558" on="1"/>
        <pt x="825" y="734" on="1"/>
        <pt x="430" y="739" on="1"/>
        <pt x="430" y="95" on="1"/>
        <pt x="1084" y="112" on="1"/>
        <pt x="1185" y="369" on="1"/>
        <pt x="1271" y="340" on="1"/>
        <pt x="1206" y="0" on="1"/>
        <pt x="106" y="0" on="1"/>
      </contour>
    </TTGlyph>
    <TTGlyph name="Ecaron" xMin="106" yMin="0" xMax="1271" yMax="2010">
      <contour>
        <pt x="380" y="1972" on="1"/>
        <pt x="448" y="2010" on="1"/>
        <pt x="698" y="1800" on="1"/>
        <pt x="954" y="2010" on="1"/>
        <pt x="1015" y="1974" on="1"/>
        <pt x="771" y="1699" on="1"/>
        <pt x="627" y="1699" on="1"/>
      </contour>
      <contour>
        <pt x="106" y="82" on="1"/>
        <pt x="283" y="97" on="1"/>
        <pt x="283" y="1420" on="1"/>
        <pt x="110" y="1441" on="1"/>
        <pt x="110" y="1522" on="1"/>
        <pt x="1114" y="1522" on="1"/>
        <pt x="1143" y="1226" on="1"/>
        <pt x="1058" y="1226" on="1"/>
        <pt x="1005" y="1427" on="1"/>
        <pt x="430" y="1434" on="1"/>
        <pt x="430" y="828" on="1"/>
        <pt x="825" y="833" on="1"/>
        <pt x="849" y="1006" on="1"/>
        <pt x="941" y="1006" on="1"/>
        <pt x="941" y="558" on="1"/>
        <pt x="849" y="558" on="1"/>
        <pt x="825" y="734" on="1"/>
        <pt x="430" y="739" on="1"/>
        <pt x="430" y="95" on="1"/>
        <pt x="1084" y="112" on="1"/>
        <pt x="1185" y="369" on="1"/>
        <pt x="1271" y="340" on="1"/>
        <pt x="1206" y="0" on="1"/>
        <pt x="106" y="0" on="1"/>
      </contour>
    </TTGlyph>
    <TTGlyph name="Ecircumflex" xMin="106" yMin="0" xMax="1271" yMax="2014">
      <contour>
        <pt x="106" y="82" on="1"/>
        <pt x="283" y="97" on="1"/>
        <pt x="283" y="1420" on="1"/>
        <pt x="110" y="1441" on="1"/>
        <pt x="110" y="1522" on="1"/>
        <pt x="1114" y="1522" on="1"/>
        <pt x="1143" y="1226" on="1"/>
        <pt x="1058" y="1226" on="1"/>
        <pt x="1005" y="1427" on="1"/>
        <pt x="430" y="1434" on="1"/>
        <pt x="430" y="828" on="1"/>
        <pt x="825" y="833" on="1"/>
        <pt x="849" y="1006" on="1"/>
        <pt x="941" y="1006" on="1"/>
        <pt x="941" y="558" on="1"/>
        <pt x="849" y="558" on="1"/>
        <pt x="825" y="734" on="1"/>
        <pt x="430" y="739" on="1"/>
        <pt x="430" y="95" on="1"/>
        <pt x="1084" y="112" on="1"/>
        <pt x="1185" y="369" on="1"/>
        <pt x="1271" y="340" on="1"/>
        <pt x="1206" y="0" on="1"/>
        <pt x="106" y="0" on="1"/>
      </contour>
      <contour>
        <pt x="363" y="1718" on="1"/>
        <pt x="622" y="2014" on="1"/>
        <pt x="766" y="2014" on="1"/>
        <pt x="1028" y="1720" on="1"/>
        <pt x="960" y="1681" on="1"/>
        <pt x="695" y="1904" on="1"/>
        <pt x="425" y="1681" on="1"/>
      </contour>
    </TTGlyph>
    <TTGlyph name="Edieresis" xMin="106" yMin="0" xMax="1271" yMax="1951">
      <contour>
        <pt x="930" y="1716" on="1"/>
        <pt x="907" y="1716" on="0"/>
        <pt x="872" y="1733" on="0"/>
        <pt x="848" y="1763" on="0"/>
        <pt x="835" y="1803" on="0"/>
        <pt x="835" y="1825" on="1"/>
        <pt x="835" y="1848" on="0"/>
        <pt x="849" y="1893" on="0"/>
        <pt x="876" y="1929" on="0"/>
        <pt x="917" y="1951" on="0"/>
        <pt x="945" y="1951" on="1"/>
        <pt x="946" y="1951" on="1"/>
        <pt x="970" y="1951" on="0"/>
        <pt x="1007" y="1931" on="0"/>
        <pt x="1031" y="1900" on="0"/>
        <pt x="1044" y="1860" on="0"/>
        <pt x="1044" y="1841" on="1"/>
        <pt x="1044" y="1816" on="0"/>
        <pt x="1030" y="1771" on="0"/>
        <pt x="1002" y="1736" on="0"/>
        <pt x="960" y="1716" on="0"/>
        <pt x="931" y="1716" on="1"/>
      </contour>
      <contour>
        <pt x="447" y="1716" on="1"/>
        <pt x="425" y="1716" on="0"/>
        <pt x="390" y="1733" on="0"/>
        <pt x="366" y="1763" on="0"/>
        <pt x="353" y="1803" on="0"/>
        <pt x="353" y="1825" on="1"/>
        <pt x="353" y="1848" on="0"/>
        <pt x="366" y="1893" on="0"/>
        <pt x="393" y="1929" on="0"/>
        <pt x="434" y="1951" on="0"/>
        <pt x="462" y="1951" on="1"/>
        <pt x="463" y="1951" on="1"/>
        <pt x="487" y="1951" on="0"/>
        <pt x="524" y="1931" on="0"/>
        <pt x="548" y="1900" on="0"/>
        <pt x="561" y="1860" on="0"/>
        <pt x="561" y="1841" on="1"/>
        <pt x="561" y="1816" on="0"/>
        <pt x="547" y="1771" on="0"/>
        <pt x="519" y="1736" on="0"/>
        <pt x="477" y="1716" on="0"/>
        <pt x="448" y="1716" on="1"/>
      </contour>
      <contour>
        <pt x="106" y="82" on="1"/>
        <pt x="283" y="97" on="1"/>
        <pt x="283" y="1420" on="1"/>
        <pt x="110" y="1441" on="1"/>
        <pt x="110" y="1522" on="1"/>
        <pt x="1114" y="1522" on="1"/>
        <pt x="1143" y="1226" on="1"/>
        <pt x="1058" y="1226" on="1"/>
        <pt x="1005" y="1427" on="1"/>
        <pt x="430" y="1434" on="1"/>
        <pt x="430" y="828" on="1"/>
        <pt x="825" y="833" on="1"/>
        <pt x="849" y="1006" on="1"/>
        <pt x="941" y="1006" on="1"/>
        <pt x="941" y="558" on="1"/>
        <pt x="849" y="558" on="1"/>
        <pt x="825" y="734" on="1"/>
        <pt x="430" y="739" on="1"/>
        <pt x="430" y="95" on="1"/>
        <pt x="1084" y="112" on="1"/>
        <pt x="1185" y="369" on="1"/>
        <pt x="1271" y="340" on="1"/>
        <pt x="1206" y="0" on="1"/>
        <pt x="106" y="0" on="1"/>
      </contour>
    </TTGlyph>
    <TTGlyph name="Edotaccent" xMin="106" yMin="0" xMax="1271" yMax="1955">
      <contour>
        <pt x="688" y="1720" on="1"/>
        <pt x="666" y="1720" on="0"/>
        <pt x="631" y="1737" on="0"/>
        <pt x="607" y="1767" on="0"/>
        <pt x="594" y="1806" on="0"/>
        <pt x="594" y="1828" on="1"/>
        <pt x="594" y="1852" on="0"/>
        <pt x="607" y="1897" on="0"/>
        <pt x="634" y="1933" on="0"/>
        <pt x="675" y="1955" on="0"/>
        <pt x="703" y="1955" on="1"/>
        <pt x="704" y="1955" on="1"/>
        <pt x="728" y="1955" on="0"/>
        <pt x="765" y="1935" on="0"/>
        <pt x="789" y="1904" on="0"/>
        <pt x="802" y="1864" on="0"/>
        <pt x="802" y="1845" on="1"/>
        <pt x="802" y="1819" on="0"/>
        <pt x="788" y="1774" on="0"/>
        <pt x="760" y="1740" on="0"/>
        <pt x="718" y="1720" on="0"/>
        <pt x="689" y="1720" on="1"/>
        <pt x="688" y="1720" on="1"/>
      </contour>
      <contour>
        <pt x="106" y="82" on="1"/>
        <pt x="283" y="97" on="1"/>
        <pt x="283" y="1420" on="1"/>
        <pt x="110" y="1441" on="1"/>
        <pt x="110" y="1522" on="1"/>
        <pt x="1114" y="1522" on="1"/>
        <pt x="1143" y="1226" on="1"/>
        <pt x="1058" y="1226" on="1"/>
        <pt x="1005" y="1427" on="1"/>
        <pt x="430" y="1434" on="1"/>
        <pt x="430" y="828" on="1"/>
        <pt x="825" y="833" on="1"/>
        <pt x="849" y="1006" on="1"/>
        <pt x="941" y="1006" on="1"/>
        <pt x="941" y="558" on="1"/>
        <pt x="849" y="558" on="1"/>
        <pt x="825" y="734" on="1"/>
        <pt x="430" y="739" on="1"/>
        <pt x="430" y="95" on="1"/>
        <pt x="1084" y="112" on="1"/>
        <pt x="1185" y="369" on="1"/>
        <pt x="1271" y="340" on="1"/>
        <pt x="1206" y="0" on="1"/>
        <pt x="106" y="0" on="1"/>
      </contour>
    </TTGlyph>
    <TTGlyph name="Egrave" xMin="106" yMin="0" xMax="1271" yMax="2007">
      <contour>
        <pt x="808" y="1651" on="1"/>
        <pt x="784" y="1662" on="0"/>
        <pt x="717" y="1697" on="0"/>
        <pt x="641" y="1740" on="0"/>
        <pt x="562" y="1788" on="0"/>
        <pt x="490" y="1838" on="0"/>
        <pt x="431" y="1887" on="0"/>
        <pt x="413" y="1908" on="1"/>
        <pt x="515" y="2007" on="1"/>
        <pt x="516" y="2007" on="1"/>
        <pt x="857" y="1699" on="1"/>
        <pt x="809" y="1651" on="1"/>
        <pt x="808" y="1651" on="1"/>
      </contour>
      <contour>
        <pt x="106" y="82" on="1"/>
        <pt x="283" y="97" on="1"/>
        <pt x="283" y="1420" on="1"/>
        <pt x="110" y="1441" on="1"/>
        <pt x="110" y="1522" on="1"/>
        <pt x="1114" y="1522" on="1"/>
        <pt x="1143" y="1226" on="1"/>
        <pt x="1058" y="1226" on="1"/>
        <pt x="1005" y="1427" on="1"/>
        <pt x="430" y="1434" on="1"/>
        <pt x="430" y="828" on="1"/>
        <pt x="825" y="833" on="1"/>
        <pt x="849" y="1006" on="1"/>
        <pt x="941" y="1006" on="1"/>
        <pt x="941" y="558" on="1"/>
        <pt x="849" y="558" on="1"/>
        <pt x="825" y="734" on="1"/>
        <pt x="430" y="739" on="1"/>
        <pt x="430" y="95" on="1"/>
        <pt x="1084" y="112" on="1"/>
        <pt x="1185" y="369" on="1"/>
        <pt x="1271" y="340" on="1"/>
        <pt x="1206" y="0" on="1"/>
        <pt x="106" y="0" on="1"/>
      </contour>
    </TTGlyph>
    <TTGlyph name="Emacron" xMin="106" yMin="0" xMax="1271" yMax="1876">
      <contour>
        <pt x="437" y="1876" on="1"/>
        <pt x="968" y="1876" on="1"/>
        <pt x="968" y="1763" on="1"/>
        <pt x="437" y="1763" on="1"/>
      </contour>
      <contour>
        <pt x="106" y="82" on="1"/>
        <pt x="283" y="97" on="1"/>
        <pt x="283" y="1420" on="1"/>
        <pt x="110" y="1441" on="1"/>
        <pt x="110" y="1522" on="1"/>
        <pt x="1114" y="1522" on="1"/>
        <pt x="1143" y="1226" on="1"/>
        <pt x="1058" y="1226" on="1"/>
        <pt x="1005" y="1427" on="1"/>
        <pt x="430" y="1434" on="1"/>
        <pt x="430" y="828" on="1"/>
        <pt x="825" y="833" on="1"/>
        <pt x="849" y="1006" on="1"/>
        <pt x="941" y="1006" on="1"/>
        <pt x="941" y="558" on="1"/>
        <pt x="849" y="558" on="1"/>
        <pt x="825" y="734" on="1"/>
        <pt x="430" y="739" on="1"/>
        <pt x="430" y="95" on="1"/>
        <pt x="1084" y="112" on="1"/>
        <pt x="1185" y="369" on="1"/>
        <pt x="1271" y="340" on="1"/>
        <pt x="1206" y="0" on="1"/>
        <pt x="106" y="0" on="1"/>
      </contour>
    </TTGlyph>
    <TTGlyph name="Eng" xMin="123" yMin="-343" xMax="1566" yMax="1522">
      <contour>
        <pt x="123" y="82" on="1"/>
        <pt x="284" y="96" on="1"/>
        <pt x="284" y="1420" on="1"/>
        <pt x="123" y="1440" on="1"/>
        <pt x="123" y="1522" on="1"/>
        <pt x="437" y="1522" on="1"/>
        <pt x="1133" y="447" on="1"/>
        <pt x="1293" y="167" on="1"/>
        <pt x="1293" y="1420" on="1"/>
        <pt x="1121" y="1440" on="1"/>
        <pt x="1121" y="1522" on="1"/>
        <pt x="1566" y="1522" on="1"/>
        <pt x="1566" y="1440" on="1"/>
        <pt x="1400" y="1420" on="1"/>
        <pt x="1400" y="320" on="1"/>
        <pt x="1400" y="210" on="0"/>
        <pt x="1383" y="56" on="0"/>
        <pt x="1351" y="-52" on="0"/>
        <pt x="1307" y="-127" on="0"/>
        <pt x="1280" y="-157" on="1"/>
        <pt x="1237" y="-205" on="0"/>
        <pt x="1149" y="-272" on="0"/>
        <pt x="1058" y="-315" on="0"/>
        <pt x="964" y="-338" on="0"/>
        <pt x="915" y="-343" on="1"/>
        <pt x="876" y="-277" on="1"/>
        <pt x="975" y="-257" on="0"/>
        <pt x="1131" y="-163" on="0"/>
        <pt x="1183" y="-91" on="1"/>
        <pt x="1204" y="-62" on="0"/>
        <pt x="1233" y="-4" on="0"/>
        <pt x="1242" y="26" on="1"/>
        <pt x="555" y="1073" on="1"/>
        <pt x="392" y="1363" on="1"/>
        <pt x="392" y="96" on="1"/>
        <pt x="579" y="82" on="1"/>
        <pt x="579" y="0" on="1"/>
        <pt x="123" y="0" on="1"/>
      </contour>
    </TTGlyph>
    <TTGlyph name="Eogonek" xMin="106" yMin="-510" xMax="1271" yMax="1522">
      <contour>
        <pt x="106" y="82" on="1"/>
        <pt x="283" y="97" on="1"/>
        <pt x="283" y="1420" on="1"/>
        <pt x="110" y="1441" on="1"/>
        <pt x="110" y="1522" on="1"/>
        <pt x="1114" y="1522" on="1"/>
        <pt x="1143" y="1226" on="1"/>
        <pt x="1058" y="1226" on="1"/>
        <pt x="1005" y="1427" on="1"/>
        <pt x="430" y="1434" on="1"/>
        <pt x="430" y="828" on="1"/>
        <pt x="825" y="833" on="1"/>
        <pt x="849" y="1006" on="1"/>
        <pt x="941" y="1006" on="1"/>
        <pt x="941" y="558" on="1"/>
        <pt x="849" y="558" on="1"/>
        <pt x="825" y="734" on="1"/>
        <pt x="430" y="739" on="1"/>
        <pt x="430" y="95" on="1"/>
        <pt x="1084" y="112" on="1"/>
        <pt x="1185" y="369" on="1"/>
        <pt x="1271" y="340" on="1"/>
        <pt x="1206" y="0" on="1"/>
        <pt x="1173" y="0" on="1"/>
        <pt x="1122" y="-10" on="0"/>
        <pt x="1018" y="-69" on="0"/>
        <pt x="933" y="-148" on="0"/>
        <pt x="879" y="-234" on="0"/>
        <pt x="879" y="-271" on="1"/>
        <pt x="879" y="-309" on="0"/>
        <pt x="906" y="-361" on="0"/>
        <pt x="951" y="-393" on="0"/>
        <pt x="1010" y="-407" on="0"/>
        <pt x="1043" y="-407" on="1"/>
        <pt x="1085" y="-407" on="0"/>
        <pt x="1173" y="-382" on="0"/>
        <pt x="1209" y="-362" on="1"/>
        <pt x="1209" y="-440" on="1"/>
        <pt x="1166" y="-472" on="0"/>
        <pt x="1042" y="-510" on="0"/>
        <pt x="979" y="-510" on="1"/>
        <pt x="932" y="-510" on="0"/>
        <pt x="844" y="-491" on="0"/>
        <pt x="776" y="-446" on="0"/>
        <pt x="734" y="-374" on="0"/>
        <pt x="734" y="-320" on="1"/>
        <pt x="734" y="-278" on="0"/>
        <pt x="781" y="-184" on="0"/>
        <pt x="859" y="-97" on="0"/>
        <pt x="961" y="-23" on="0"/>
        <pt x="1017" y="0" on="1"/>
        <pt x="106" y="0" on="1"/>
      </contour>
    </TTGlyph>
    <TTGlyph name="Eth" xMin="105" yMin="-20" xMax="1473" yMax="1538">
      <contour>
        <pt x="105" y="82" on="1"/>
        <pt x="283" y="97" on="1"/>
        <pt x="283" y="754" on="1"/>
        <pt x="124" y="754" on="1"/>
        <pt x="124" y="837" on="1"/>
        <pt x="283" y="837" on="1"/>
        <pt x="283" y="1420" on="1"/>
        <pt x="117" y="1441" on="1"/>
        <pt x="117" y="1522" on="1"/>
        <pt x="357" y="1522" on="1"/>
        <pt x="452" y="1522" on="0"/>
        <pt x="631" y="1538" on="0"/>
        <pt x="719" y="1538" on="1"/>
        <pt x="919" y="1538" on="0"/>
        <pt x="1205" y="1432" on="0"/>
        <pt x="1388" y="1239" on="0"/>
        <pt x="1473" y="969" on="0"/>
        <pt x="1473" y="805" on="1"/>
        <pt x="1473" y="617" on="0"/>
        <pt x="1358" y="310" on="0"/>
        <pt x="1151" y="94" on="0"/>
        <pt x="865" y="-20" on="0"/>
        <pt x="694" y="-16" on="1"/>
        <pt x="620" y="-14" on="0"/>
        <pt x="452" y="0" on="0"/>
        <pt x="360" y="0" on="1"/>
        <pt x="105" y="0" on="1"/>
      </contour>
      <contour>
        <pt x="430" y="92" on="1"/>
        <pt x="511" y="81" on="0"/>
        <pt x="649" y="73" on="0"/>
        <pt x="721" y="75" on="1"/>
        <pt x="849" y="77" on="0"/>
        <pt x="1067" y="170" on="0"/>
        <pt x="1226" y="346" on="0"/>
        <pt x="1316" y="605" on="0"/>
        <pt x="1316" y="774" on="1"/>
        <pt x="1316" y="1448" on="0"/>
        <pt x="671" y="1448" on="1"/>
        <pt x="599" y="1448" on="0"/>
        <pt x="478" y="1436" on="0"/>
        <pt x="430" y="1434" on="1"/>
        <pt x="430" y="837" on="1"/>
        <pt x="830" y="837" on="1"/>
        <pt x="830" y="754" on="1"/>
        <pt x="430" y="754" on="1"/>
      </contour>
    </TTGlyph>
    <TTGlyph name="Euro" xMin="113" yMin="-28" xMax="1393" yMax="1567">
      <contour>
        <pt x="113" y="639" on="1"/>
        <pt x="322" y="639" on="1"/>
        <pt x="321" y="660" on="0"/>
        <pt x="320" y="702" on="0"/>
        <pt x="320" y="724" on="1"/>
        <pt x="320" y="775" on="0"/>
        <pt x="327" y="872" on="0"/>
        <pt x="334" y="918" on="1"/>
        <pt x="137" y="918" on="1"/>
        <pt x="137" y="1018" on="1"/>
        <pt x="353" y="1018" on="1"/>
        <pt x="385" y="1147" on="0"/>
        <pt x="505" y="1350" on="0"/>
        <pt x="674" y="1492" on="0"/>
        <pt x="889" y="1567" on="0"/>
        <pt x="1016" y="1567" on="1"/>
        <pt x="1081" y="1567" on="0"/>
        <pt x="1193" y="1550" on="0"/>
        <pt x="1287" y="1527" on="0"/>
        <pt x="1363" y="1503" on="0"/>
        <pt x="1393" y="1496" on="1"/>
        <pt x="1377" y="1236" on="1"/>
        <pt x="1293" y="1236" on="1"/>
        <pt x="1266" y="1404" on="1"/>
        <pt x="1250" y="1417" on="0"/>
        <pt x="1193" y="1442" on="0"/>
        <pt x="1116" y="1462" on="0"/>
        <pt x="1022" y="1473" on="0"/>
        <pt x="969" y="1473" on="1"/>
        <pt x="875" y="1473" on="0"/>
        <pt x="720" y="1412" on="0"/>
        <pt x="600" y="1295" on="0"/>
        <pt x="518" y="1126" on="0"/>
        <pt x="496" y="1018" on="1"/>
        <pt x="1124" y="1018" on="1"/>
        <pt x="1124" y="918" on="1"/>
        <pt x="481" y="918" on="1"/>
        <pt x="472" y="841" on="0"/>
        <pt x="472" y="756" on="1"/>
        <pt x="472" y="696" on="0"/>
        <pt x="475" y="639" on="1"/>
        <pt x="1092" y="639" on="1"/>
        <pt x="1092" y="539" on="1"/>
        <pt x="485" y="539" on="1"/>
        <pt x="500" y="432" on="0"/>
        <pt x="566" y="256" on="0"/>
        <pt x="680" y="128" on="0"/>
        <pt x="846" y="58" on="0"/>
        <pt x="961" y="58" on="1"/>
        <pt x="1011" y="58" on="0"/>
        <pt x="1093" y="73" on="0"/>
        <pt x="1163" y="100" on="0"/>
        <pt x="1224" y="136" on="0"/>
        <pt x="1254" y="156" on="1"/>
        <pt x="1297" y="281" on="1"/>
        <pt x="1383" y="267" on="1"/>
        <pt x="1366" y="69" on="1"/>
        <pt x="1333" y="67" on="0"/>
        <pt x="1261" y="37" on="0"/>
        <pt x="1161" y="1" on="0"/>
        <pt x="1023" y="-28" on="0"/>
        <pt x="925" y="-28" on="1"/>
        <pt x="793" y="-28" on="0"/>
        <pt x="588" y="53" on="0"/>
        <pt x="441" y="201" on="0"/>
        <pt x="350" y="411" on="0"/>
        <pt x="332" y="539" on="1"/>
        <pt x="113" y="539" on="1"/>
      </contour>
    </TTGlyph>
    <TTGlyph name="F" xMin="103" yMin="0" xMax="1188" yMax="1522">
      <contour>
        <pt x="114" y="82" on="1"/>
        <pt x="283" y="95" on="1"/>
        <pt x="283" y="1420" on="1"/>
        <pt x="103" y="1441" on="1"/>
        <pt x="103" y="1522" on="1"/>
        <pt x="1166" y="1522" on="1"/>
        <pt x="1188" y="1189" on="1"/>
        <pt x="1089" y="1189" on="1"/>
        <pt x="1037" y="1427" on="1"/>
        <pt x="430" y="1434" on="1"/>
        <pt x="430" y="819" on="1"/>
        <pt x="860" y="826" on="1"/>
        <pt x="892" y="995" on="1"/>
        <pt x="975" y="995" on="1"/>
        <pt x="975" y="545" on="1"/>
        <pt x="892" y="545" on="1"/>
        <pt x="860" y="720" on="1"/>
        <pt x="430" y="728" on="1"/>
        <pt x="430" y="96" on="1"/>
        <pt x="758" y="82" on="1"/>
        <pt x="758" y="0" on="1"/>
        <pt x="114" y="0" on="1"/>
      </contour>
    </TTGlyph>
    <TTGlyph name="G" xMin="101" yMin="-23" xMax="1466" yMax="1538">
      <contour>
        <pt x="101" y="734" on="1"/>
        <pt x="101" y="858" on="0"/>
        <pt x="157" y="1074" on="0"/>
        <pt x="258" y="1252" on="0"/>
        <pt x="398" y="1392" on="0"/>
        <pt x="568" y="1488" on="0"/>
        <pt x="761" y="1538" on="0"/>
        <pt x="864" y="1538" on="1"/>
        <pt x="943" y="1538" on="0"/>
        <pt x="1086" y="1523" on="0"/>
        <pt x="1205" y="1502" on="0"/>
        <pt x="1296" y="1480" on="0"/>
        <pt x="1322" y="1474" on="1"/>
        <pt x="1307" y="1139" on="1"/>
        <pt x="1216" y="1139" on="1"/>
        <pt x="1175" y="1376" on="1"/>
        <pt x="1163" y="1384" on="0"/>
        <pt x="1112" y="1408" on="0"/>
        <pt x="1031" y="1431" on="0"/>
        <pt x="919" y="1447" on="0"/>
        <pt x="845" y="1447" on="1"/>
        <pt x="723" y="1447" on="0"/>
        <pt x="513" y="1362" on="0"/>
        <pt x="358" y="1195" on="0"/>
        <pt x="269" y="947" on="0"/>
        <pt x="269" y="784" on="1"/>
        <pt x="269" y="693" on="0"/>
        <pt x="298" y="516" on="0"/>
        <pt x="357" y="357" on="0"/>
        <pt x="447" y="222" on="0"/>
        <pt x="568" y="124" on="0"/>
        <pt x="720" y="69" on="0"/>
        <pt x="813" y="69" on="1"/>
        <pt x="871" y="69" on="0"/>
        <pt x="981" y="84" on="0"/>
        <pt x="1078" y="111" on="0"/>
        <pt x="1159" y="146" on="0"/>
        <pt x="1188" y="167" on="1"/>
        <pt x="1188" y="645" on="1"/>
        <pt x="888" y="663" on="1"/>
        <pt x="888" y="765" on="1"/>
        <pt x="1466" y="765" on="1"/>
        <pt x="1466" y="663" on="1"/>
        <pt x="1336" y="643" on="1"/>
        <pt x="1336" y="82" on="1"/>
        <pt x="1295" y="80" on="0"/>
        <pt x="1195" y="47" on="0"/>
        <pt x="1066" y="8" on="0"/>
        <pt x="904" y="-23" on="0"/>
        <pt x="801" y="-23" on="1"/>
        <pt x="636" y="-23" on="0"/>
        <pt x="376" y="92" on="0"/>
        <pt x="196" y="295" on="0"/>
        <pt x="101" y="572" on="0"/>
      </contour>
    </TTGlyph>
    <TTGlyph name="Gbreve" xMin="101" yMin="-23" xMax="1466" yMax="1994">
      <contour>
        <pt x="812" y="1659" on="1"/>
        <pt x="734" y="1659" on="0"/>
        <pt x="612" y="1704" on="0"/>
        <pt x="529" y="1783" on="0"/>
        <pt x="486" y="1891" on="0"/>
        <pt x="486" y="1954" on="1"/>
        <pt x="486" y="1964" on="0"/>
        <pt x="486" y="1983" on="0"/>
        <pt x="488" y="1994" on="1"/>
        <pt x="572" y="1994" on="1"/>
        <pt x="570" y="1982" on="0"/>
        <pt x="573" y="1965" on="1"/>
        <pt x="576" y="1935" on="0"/>
        <pt x="603" y="1870" on="0"/>
        <pt x="660" y="1817" on="0"/>
        <pt x="749" y="1782" on="0"/>
        <pt x="814" y="1782" on="1"/>
        <pt x="878" y="1782" on="0"/>
        <pt x="965" y="1817" on="0"/>
        <pt x="1020" y="1871" on="0"/>
        <pt x="1045" y="1936" on="0"/>
        <pt x="1047" y="1966" on="1"/>
        <pt x="1049" y="1975" on="0"/>
        <pt x="1049" y="1989" on="0"/>
        <pt x="1049" y="1994" on="1"/>
        <pt x="1130" y="1994" on="1"/>
        <pt x="1131" y="1983" on="0"/>
        <pt x="1132" y="1965" on="0"/>
        <pt x="1132" y="1955" on="1"/>
        <pt x="1132" y="1892" on="0"/>
        <pt x="1088" y="1783" on="0"/>
        <pt x="1005" y="1704" on="0"/>
        <pt x="887" y="1659" on="0"/>
      </contour>
      <contour>
        <pt x="101" y="734" on="1"/>
        <pt x="101" y="858" on="0"/>
        <pt x="157" y="1074" on="0"/>
        <pt x="258" y="1252" on="0"/>
        <pt x="398" y="1392" on="0"/>
        <pt x="568" y="1488" on="0"/>
        <pt x="761" y="1538" on="0"/>
        <pt x="864" y="1538" on="1"/>
        <pt x="943" y="1538" on="0"/>
        <pt x="1086" y="1523" on="0"/>
        <pt x="1205" y="1502" on="0"/>
        <pt x="1296" y="1480" on="0"/>
        <pt x="1322" y="1474" on="1"/>
        <pt x="1307" y="1139" on="1"/>
        <pt x="1216" y="1139" on="1"/>
        <pt x="1175" y="1376" on="1"/>
        <pt x="1163" y="1384" on="0"/>
        <pt x="1112" y="1408" on="0"/>
        <pt x="1031" y="1431" on="0"/>
        <pt x="919" y="1447" on="0"/>
        <pt x="845" y="1447" on="1"/>
        <pt x="723" y="1447" on="0"/>
        <pt x="513" y="1362" on="0"/>
        <pt x="358" y="1195" on="0"/>
        <pt x="269" y="947" on="0"/>
        <pt x="269" y="784" on="1"/>
        <pt x="269" y="693" on="0"/>
        <pt x="298" y="516" on="0"/>
        <pt x="357" y="357" on="0"/>
        <pt x="447" y="222" on="0"/>
        <pt x="568" y="124" on="0"/>
        <pt x="720" y="69" on="0"/>
        <pt x="813" y="69" on="1"/>
        <pt x="871" y="69" on="0"/>
        <pt x="981" y="84" on="0"/>
        <pt x="1078" y="111" on="0"/>
        <pt x="1159" y="146" on="0"/>
        <pt x="1188" y="167" on="1"/>
        <pt x="1188" y="645" on="1"/>
        <pt x="888" y="663" on="1"/>
        <pt x="888" y="765" on="1"/>
        <pt x="1466" y="765" on="1"/>
        <pt x="1466" y="663" on="1"/>
        <pt x="1336" y="643" on="1"/>
        <pt x="1336" y="82" on="1"/>
        <pt x="1295" y="80" on="0"/>
        <pt x="1195" y="47" on="0"/>
        <pt x="1066" y="8" on="0"/>
        <pt x="904" y="-23" on="0"/>
        <pt x="801" y="-23" on="1"/>
        <pt x="636" y="-23" on="0"/>
        <pt x="376" y="92" on="0"/>
        <pt x="196" y="295" on="0"/>
        <pt x="101" y="572" on="0"/>
      </contour>
    </TTGlyph>
    <TTGlyph name="Gcircumflex" xMin="101" yMin="-23" xMax="1466" yMax="2014">
      <contour>
        <pt x="101" y="734" on="1"/>
        <pt x="101" y="858" on="0"/>
        <pt x="157" y="1074" on="0"/>
        <pt x="258" y="1252" on="0"/>
        <pt x="398" y="1392" on="0"/>
        <pt x="568" y="1488" on="0"/>
        <pt x="761" y="1538" on="0"/>
        <pt x="864" y="1538" on="1"/>
        <pt x="943" y="1538" on="0"/>
        <pt x="1086" y="1523" on="0"/>
        <pt x="1205" y="1502" on="0"/>
        <pt x="1296" y="1480" on="0"/>
        <pt x="1322" y="1474" on="1"/>
        <pt x="1307" y="1139" on="1"/>
        <pt x="1216" y="1139" on="1"/>
        <pt x="1175" y="1376" on="1"/>
        <pt x="1163" y="1384" on="0"/>
        <pt x="1112" y="1408" on="0"/>
        <pt x="1031" y="1431" on="0"/>
        <pt x="919" y="1447" on="0"/>
        <pt x="845" y="1447" on="1"/>
        <pt x="723" y="1447" on="0"/>
        <pt x="513" y="1362" on="0"/>
        <pt x="358" y="1195" on="0"/>
        <pt x="269" y="947" on="0"/>
        <pt x="269" y="784" on="1"/>
        <pt x="269" y="693" on="0"/>
        <pt x="298" y="516" on="0"/>
        <pt x="357" y="357" on="0"/>
        <pt x="447" y="222" on="0"/>
        <pt x="568" y="124" on="0"/>
        <pt x="720" y="69" on="0"/>
        <pt x="813" y="69" on="1"/>
        <pt x="871" y="69" on="0"/>
        <pt x="981" y="84" on="0"/>
        <pt x="1078" y="111" on="0"/>
        <pt x="1159" y="146" on="0"/>
        <pt x="1188" y="167" on="1"/>
        <pt x="1188" y="645" on="1"/>
        <pt x="888" y="663" on="1"/>
        <pt x="888" y="765" on="1"/>
        <pt x="1466" y="765" on="1"/>
        <pt x="1466" y="663" on="1"/>
        <pt x="1336" y="643" on="1"/>
        <pt x="1336" y="82" on="1"/>
        <pt x="1295" y="80" on="0"/>
        <pt x="1195" y="47" on="0"/>
        <pt x="1066" y="8" on="0"/>
        <pt x="904" y="-23" on="0"/>
        <pt x="801" y="-23" on="1"/>
        <pt x="636" y="-23" on="0"/>
        <pt x="376" y="92" on="0"/>
        <pt x="196" y="295" on="0"/>
        <pt x="101" y="572" on="0"/>
      </contour>
      <contour>
        <pt x="477" y="1718" on="1"/>
        <pt x="736" y="2014" on="1"/>
        <pt x="880" y="2014" on="1"/>
        <pt x="1142" y="1720" on="1"/>
        <pt x="1074" y="1681" on="1"/>
        <pt x="809" y="1904" on="1"/>
        <pt x="539" y="1681" on="1"/>
      </contour>
    </TTGlyph>
    <TTGlyph name="Gcommaaccent" xMin="107" yMin="-560" xMax="1472" yMax="1538">
      <contour>
        <pt x="713" y="-205" on="1"/>
        <pt x="713" y="-179" on="0"/>
        <pt x="731" y="-146" on="0"/>
        <pt x="756" y="-128" on="0"/>
        <pt x="782" y="-121" on="0"/>
        <pt x="790" y="-121" on="1"/>
        <pt x="799" y="-121" on="1"/>
        <pt x="851" y="-121" on="0"/>
        <pt x="918" y="-209" on="0"/>
        <pt x="918" y="-290" on="1"/>
        <pt x="918" y="-354" on="0"/>
        <pt x="875" y="-452" on="0"/>
        <pt x="820" y="-519" on="0"/>
        <pt x="770" y="-556" on="0"/>
        <pt x="763" y="-560" on="1"/>
        <pt x="761" y="-560" on="1"/>
        <pt x="719" y="-521" on="1"/>
        <pt x="719" y="-511" on="1"/>
        <pt x="734" y="-504" on="0"/>
        <pt x="762" y="-472" on="0"/>
        <pt x="783" y="-429" on="0"/>
        <pt x="795" y="-379" on="0"/>
        <pt x="795" y="-353" on="1"/>
        <pt x="795" y="-319" on="0"/>
        <pt x="771" y="-287" on="0"/>
        <pt x="755" y="-276" on="1"/>
        <pt x="739" y="-265" on="0"/>
        <pt x="713" y="-236" on="0"/>
      </contour>
      <contour>
        <pt x="107" y="734" on="1"/>
        <pt x="107" y="858" on="0"/>
        <pt x="163" y="1074" on="0"/>
        <pt x="264" y="1252" on="0"/>
        <pt x="404" y="1392" on="0"/>
        <pt x="574" y="1488" on="0"/>
        <pt x="767" y="1538" on="0"/>
        <pt x="870" y="1538" on="1"/>
        <pt x="949" y="1538" on="0"/>
        <pt x="1092" y="1523" on="0"/>
        <pt x="1211" y="1502" on="0"/>
        <pt x="1302" y="1480" on="0"/>
        <pt x="1328" y="1474" on="1"/>
        <pt x="1313" y="1139" on="1"/>
        <pt x="1222" y="1139" on="1"/>
        <pt x="1181" y="1376" on="1"/>
        <pt x="1169" y="1384" on="0"/>
        <pt x="1118" y="1408" on="0"/>
        <pt x="1037" y="1431" on="0"/>
        <pt x="925" y="1447" on="0"/>
        <pt x="851" y="1447" on="1"/>
        <pt x="729" y="1447" on="0"/>
        <pt x="519" y="1362" on="0"/>
        <pt x="364" y="1195" on="0"/>
        <pt x="275" y="947" on="0"/>
        <pt x="275" y="784" on="1"/>
        <pt x="275" y="693" on="0"/>
        <pt x="304" y="516" on="0"/>
        <pt x="363" y="357" on="0"/>
        <pt x="453" y="222" on="0"/>
        <pt x="574" y="124" on="0"/>
        <pt x="726" y="69" on="0"/>
        <pt x="819" y="69" on="1"/>
        <pt x="877" y="69" on="0"/>
        <pt x="987" y="84" on="0"/>
        <pt x="1084" y="111" on="0"/>
        <pt x="1165" y="146" on="0"/>
        <pt x="1194" y="167" on="1"/>
        <pt x="1194" y="645" on="1"/>
        <pt x="894" y="663" on="1"/>
        <pt x="894" y="765" on="1"/>
        <pt x="1472" y="765" on="1"/>
        <pt x="1472" y="663" on="1"/>
        <pt x="1342" y="643" on="1"/>
        <pt x="1342" y="82" on="1"/>
        <pt x="1301" y="80" on="0"/>
        <pt x="1201" y="47" on="0"/>
        <pt x="1072" y="8" on="0"/>
        <pt x="910" y="-23" on="0"/>
        <pt x="807" y="-23" on="1"/>
        <pt x="642" y="-23" on="0"/>
        <pt x="382" y="92" on="0"/>
        <pt x="202" y="295" on="0"/>
        <pt x="107" y="572" on="0"/>
      </contour>
    </TTGlyph>
    <TTGlyph name="Gdotaccent" xMin="101" yMin="-23" xMax="1466" yMax="1955">
      <contour>
        <pt x="802" y="1720" on="1"/>
        <pt x="780" y="1720" on="0"/>
        <pt x="745" y="1737" on="0"/>
        <pt x="721" y="1767" on="0"/>
        <pt x="708" y="1806" on="0"/>
        <pt x="708" y="1828" on="1"/>
        <pt x="708" y="1852" on="0"/>
        <pt x="721" y="1897" on="0"/>
        <pt x="748" y="1933" on="0"/>
        <pt x="789" y="1955" on="0"/>
        <pt x="817" y="1955" on="1"/>
        <pt x="818" y="1955" on="1"/>
        <pt x="842" y="1955" on="0"/>
        <pt x="879" y="1935" on="0"/>
        <pt x="903" y="1904" on="0"/>
        <pt x="916" y="1864" on="0"/>
        <pt x="916" y="1845" on="1"/>
        <pt x="916" y="1819" on="0"/>
        <pt x="902" y="1774" on="0"/>
        <pt x="874" y="1740" on="0"/>
        <pt x="832" y="1720" on="0"/>
        <pt x="803" y="1720" on="1"/>
        <pt x="802" y="1720" on="1"/>
      </contour>
      <contour>
        <pt x="101" y="734" on="1"/>
        <pt x="101" y="858" on="0"/>
        <pt x="157" y="1074" on="0"/>
        <pt x="258" y="1252" on="0"/>
        <pt x="398" y="1392" on="0"/>
        <pt x="568" y="1488" on="0"/>
        <pt x="761" y="1538" on="0"/>
        <pt x="864" y="1538" on="1"/>
        <pt x="943" y="1538" on="0"/>
        <pt x="1086" y="1523" on="0"/>
        <pt x="1205" y="1502" on="0"/>
        <pt x="1296" y="1480" on="0"/>
        <pt x="1322" y="1474" on="1"/>
        <pt x="1307" y="1139" on="1"/>
        <pt x="1216" y="1139" on="1"/>
        <pt x="1175" y="1376" on="1"/>
        <pt x="1163" y="1384" on="0"/>
        <pt x="1112" y="1408" on="0"/>
        <pt x="1031" y="1431" on="0"/>
        <pt x="919" y="1447" on="0"/>
        <pt x="845" y="1447" on="1"/>
        <pt x="723" y="1447" on="0"/>
        <pt x="513" y="1362" on="0"/>
        <pt x="358" y="1195" on="0"/>
        <pt x="269" y="947" on="0"/>
        <pt x="269" y="784" on="1"/>
        <pt x="269" y="693" on="0"/>
        <pt x="298" y="516" on="0"/>
        <pt x="357" y="357" on="0"/>
        <pt x="447" y="222" on="0"/>
        <pt x="568" y="124" on="0"/>
        <pt x="720" y="69" on="0"/>
        <pt x="813" y="69" on="1"/>
        <pt x="871" y="69" on="0"/>
        <pt x="981" y="84" on="0"/>
        <pt x="1078" y="111" on="0"/>
        <pt x="1159" y="146" on="0"/>
        <pt x="1188" y="167" on="1"/>
        <pt x="1188" y="645" on="1"/>
        <pt x="888" y="663" on="1"/>
        <pt x="888" y="765" on="1"/>
        <pt x="1466" y="765" on="1"/>
        <pt x="1466" y="663" on="1"/>
        <pt x="1336" y="643" on="1"/>
        <pt x="1336" y="82" on="1"/>
        <pt x="1295" y="80" on="0"/>
        <pt x="1195" y="47" on="0"/>
        <pt x="1066" y="8" on="0"/>
        <pt x="904" y="-23" on="0"/>
        <pt x="801" y="-23" on="1"/>
        <pt x="636" y="-23" on="0"/>
        <pt x="376" y="92" on="0"/>
        <pt x="196" y="295" on="0"/>
        <pt x="101" y="572" on="0"/>
      </contour>
    </TTGlyph>
    <TTGlyph name="H" xMin="116" yMin="0" xMax="1567" yMax="1522">
      <contour>
        <pt x="116" y="82" on="1"/>
        <pt x="292" y="97" on="1"/>
        <pt x="292" y="1420" on="1"/>
        <pt x="122" y="1441" on="1"/>
        <pt x="122" y="1522" on="1"/>
        <pt x="620" y="1522" on="1"/>
        <pt x="620" y="1441" on="1"/>
        <pt x="439" y="1420" on="1"/>
        <pt x="439" y="832" on="1"/>
        <pt x="1249" y="832" on="1"/>
        <pt x="1249" y="1420" on="1"/>
        <pt x="1076" y="1441" on="1"/>
        <pt x="1076" y="1522" on="1"/>
        <pt x="1567" y="1522" on="1"/>
        <pt x="1567" y="1441" on="1"/>
        <pt x="1396" y="1420" on="1"/>
        <pt x="1396" y="96" on="1"/>
        <pt x="1567" y="82" on="1"/>
        <pt x="1567" y="0" on="1"/>
        <pt x="1073" y="0" on="1"/>
        <pt x="1073" y="82" on="1"/>
        <pt x="1249" y="96" on="1"/>
        <pt x="1249" y="731" on="1"/>
        <pt x="439" y="731" on="1"/>
        <pt x="439" y="96" on="1"/>
        <pt x="622" y="82" on="1"/>
        <pt x="622" y="0" on="1"/>
        <pt x="116" y="0" on="1"/>
      </contour>
    </TTGlyph>
    <TTGlyph name="Hbar" xMin="51" yMin="0" xMax="1635" yMax="1523">
      <contour>
        <pt x="115" y="83" on="1"/>
        <pt x="291" y="96" on="1"/>
        <pt x="291" y="1038" on="1"/>
        <pt x="51" y="1038" on="1"/>
        <pt x="51" y="1125" on="1"/>
        <pt x="291" y="1125" on="1"/>
        <pt x="291" y="1420" on="1"/>
        <pt x="121" y="1442" on="1"/>
        <pt x="121" y="1523" on="1"/>
        <pt x="617" y="1523" on="1"/>
        <pt x="617" y="1442" on="1"/>
        <pt x="436" y="1420" on="1"/>
        <pt x="436" y="1125" on="1"/>
        <pt x="1250" y="1125" on="1"/>
        <pt x="1250" y="1420" on="1"/>
        <pt x="1077" y="1442" on="1"/>
        <pt x="1077" y="1523" on="1"/>
        <pt x="1566" y="1523" on="1"/>
        <pt x="1566" y="1442" on="1"/>
        <pt x="1395" y="1420" on="1"/>
        <pt x="1395" y="1125" on="1"/>
        <pt x="1635" y="1125" on="1"/>
        <pt x="1635" y="1038" on="1"/>
        <pt x="1395" y="1038" on="1"/>
        <pt x="1395" y="100" on="1"/>
        <pt x="1566" y="78" on="1"/>
        <pt x="1566" y="1" on="1"/>
        <pt x="1075" y="1" on="1"/>
        <pt x="1075" y="78" on="1"/>
        <pt x="1250" y="100" on="1"/>
        <pt x="1250" y="638" on="1"/>
        <pt x="436" y="638" on="1"/>
        <pt x="436" y="96" on="1"/>
        <pt x="619" y="83" on="1"/>
        <pt x="619" y="0" on="1"/>
        <pt x="115" y="0" on="1"/>
      </contour>
      <contour>
        <pt x="1250" y="739" on="1"/>
        <pt x="1250" y="1038" on="1"/>
        <pt x="436" y="1038" on="1"/>
        <pt x="436" y="739" on="1"/>
      </contour>
    </TTGlyph>
    <TTGlyph name="Hcircumflex" xMin="116" yMin="0" xMax="1567" yMax="2014">
      <contour>
        <pt x="116" y="82" on="1"/>
        <pt x="292" y="97" on="1"/>
        <pt x="292" y="1420" on="1"/>
        <pt x="122" y="1441" on="1"/>
        <pt x="122" y="1522" on="1"/>
        <pt x="620" y="1522" on="1"/>
        <pt x="620" y="1441" on="1"/>
        <pt x="439" y="1420" on="1"/>
        <pt x="439" y="832" on="1"/>
        <pt x="1249" y="832" on="1"/>
        <pt x="1249" y="1420" on="1"/>
        <pt x="1076" y="1441" on="1"/>
        <pt x="1076" y="1522" on="1"/>
        <pt x="1567" y="1522" on="1"/>
        <pt x="1567" y="1441" on="1"/>
        <pt x="1396" y="1420" on="1"/>
        <pt x="1396" y="96" on="1"/>
        <pt x="1567" y="82" on="1"/>
        <pt x="1567" y="0" on="1"/>
        <pt x="1073" y="0" on="1"/>
        <pt x="1073" y="82" on="1"/>
        <pt x="1249" y="96" on="1"/>
        <pt x="1249" y="731" on="1"/>
        <pt x="439" y="731" on="1"/>
        <pt x="439" y="96" on="1"/>
        <pt x="622" y="82" on="1"/>
        <pt x="622" y="0" on="1"/>
        <pt x="116" y="0" on="1"/>
      </contour>
      <contour>
        <pt x="510" y="1718" on="1"/>
        <pt x="769" y="2014" on="1"/>
        <pt x="913" y="2014" on="1"/>
        <pt x="1175" y="1720" on="1"/>
        <pt x="1107" y="1681" on="1"/>
        <pt x="842" y="1904" on="1"/>
        <pt x="572" y="1681" on="1"/>
      </contour>
    </TTGlyph>
    <TTGlyph name="I" xMin="127" yMin="0" xMax="685" yMax="1522">
      <contour>
        <pt x="127" y="82" on="1"/>
        <pt x="332" y="96" on="1"/>
        <pt x="332" y="1420" on="1"/>
        <pt x="127" y="1441" on="1"/>
        <pt x="127" y="1522" on="1"/>
        <pt x="685" y="1522" on="1"/>
        <pt x="685" y="1441" on="1"/>
        <pt x="481" y="1421" on="1"/>
        <pt x="481" y="96" on="1"/>
        <pt x="685" y="82" on="1"/>
        <pt x="685" y="0" on="1"/>
        <pt x="127" y="0" on="1"/>
      </contour>
    </TTGlyph>
    <TTGlyph name="IJ" xMin="127" yMin="-350" xMax="1483" yMax="1522">
      <contour>
        <pt x="127" y="82" on="1"/>
        <pt x="332" y="96" on="1"/>
        <pt x="332" y="1420" on="1"/>
        <pt x="127" y="1441" on="1"/>
        <pt x="127" y="1522" on="1"/>
        <pt x="685" y="1522" on="1"/>
        <pt x="685" y="1441" on="1"/>
        <pt x="481" y="1421" on="1"/>
        <pt x="481" y="96" on="1"/>
        <pt x="685" y="82" on="1"/>
        <pt x="685" y="0" on="1"/>
        <pt x="127" y="0" on="1"/>
      </contour>
      <contour>
        <pt x="1092" y="-25" on="1"/>
        <pt x="1107" y="20" on="0"/>
        <pt x="1123" y="115" on="0"/>
        <pt x="1132" y="241" on="0"/>
        <pt x="1134" y="410" on="0"/>
        <pt x="1134" y="528" on="1"/>
        <pt x="1134" y="1419" on="1"/>
        <pt x="927" y="1441" on="1"/>
        <pt x="927" y="1522" on="1"/>
        <pt x="1483" y="1522" on="1"/>
        <pt x="1483" y="1441" on="1"/>
        <pt x="1282" y="1419" on="1"/>
        <pt x="1282" y="562" on="1"/>
        <pt x="1282" y="475" on="0"/>
        <pt x="1282" y="326" on="0"/>
        <pt x="1279" y="198" on="0"/>
        <pt x="1270" y="89" on="0"/>
        <pt x="1261" y="41" on="1"/>
        <pt x="1244" y="-47" on="0"/>
        <pt x="1162" y="-182" on="0"/>
        <pt x="1050" y="-280" on="0"/>
        <pt x="919" y="-339" on="0"/>
        <pt x="853" y="-350" on="1"/>
        <pt x="810" y="-284" on="1"/>
        <pt x="858" y="-272" on="0"/>
        <pt x="946" y="-226" on="0"/>
        <pt x="1019" y="-161" on="0"/>
        <pt x="1076" y="-76" on="0"/>
      </contour>
    </TTGlyph>
    <TTGlyph name="Iacute" xMin="127" yMin="0" xMax="722" yMax="2007">
      <contour>
        <pt x="127" y="82" on="1"/>
        <pt x="332" y="96" on="1"/>
        <pt x="332" y="1420" on="1"/>
        <pt x="127" y="1441" on="1"/>
        <pt x="127" y="1522" on="1"/>
        <pt x="685" y="1522" on="1"/>
        <pt x="685" y="1441" on="1"/>
        <pt x="481" y="1421" on="1"/>
        <pt x="481" y="96" on="1"/>
        <pt x="685" y="82" on="1"/>
        <pt x="685" y="0" on="1"/>
        <pt x="127" y="0" on="1"/>
      </contour>
      <contour>
        <pt x="278" y="1699" on="1"/>
        <pt x="619" y="2007" on="1"/>
        <pt x="620" y="2007" on="1"/>
        <pt x="722" y="1908" on="1"/>
        <pt x="704" y="1887" on="0"/>
        <pt x="645" y="1838" on="0"/>
        <pt x="572" y="1788" on="0"/>
        <pt x="493" y="1740" on="0"/>
        <pt x="417" y="1697" on="0"/>
        <pt x="350" y="1662" on="0"/>
        <pt x="327" y="1651" on="1"/>
        <pt x="326" y="1651" on="1"/>
      </contour>
    </TTGlyph>
    <TTGlyph name="Ibreve" xMin="86" yMin="0" xMax="732" yMax="1994">
      <contour>
        <pt x="127" y="82" on="1"/>
        <pt x="332" y="96" on="1"/>
        <pt x="332" y="1420" on="1"/>
        <pt x="127" y="1441" on="1"/>
        <pt x="127" y="1522" on="1"/>
        <pt x="685" y="1522" on="1"/>
        <pt x="685" y="1441" on="1"/>
        <pt x="481" y="1421" on="1"/>
        <pt x="481" y="96" on="1"/>
        <pt x="685" y="82" on="1"/>
        <pt x="685" y="0" on="1"/>
        <pt x="127" y="0" on="1"/>
      </contour>
      <contour>
        <pt x="412" y="1659" on="1"/>
        <pt x="334" y="1659" on="0"/>
        <pt x="212" y="1704" on="0"/>
        <pt x="129" y="1783" on="0"/>
        <pt x="86" y="1891" on="0"/>
        <pt x="86" y="1954" on="1"/>
        <pt x="86" y="1964" on="0"/>
        <pt x="86" y="1983" on="0"/>
        <pt x="88" y="1994" on="1"/>
        <pt x="172" y="1994" on="1"/>
        <pt x="170" y="1982" on="0"/>
        <pt x="173" y="1965" on="1"/>
        <pt x="176" y="1935" on="0"/>
        <pt x="203" y="1870" on="0"/>
        <pt x="260" y="1817" on="0"/>
        <pt x="349" y="1782" on="0"/>
        <pt x="414" y="1782" on="1"/>
        <pt x="478" y="1782" on="0"/>
        <pt x="565" y="1817" on="0"/>
        <pt x="620" y="1871" on="0"/>
        <pt x="645" y="1936" on="0"/>
        <pt x="647" y="1966" on="1"/>
        <pt x="649" y="1975" on="0"/>
        <pt x="649" y="1989" on="0"/>
        <pt x="649" y="1994" on="1"/>
        <pt x="730" y="1994" on="1"/>
        <pt x="731" y="1983" on="0"/>
        <pt x="732" y="1965" on="0"/>
        <pt x="732" y="1955" on="1"/>
        <pt x="732" y="1892" on="0"/>
        <pt x="688" y="1783" on="0"/>
        <pt x="605" y="1704" on="0"/>
        <pt x="487" y="1659" on="0"/>
      </contour>
    </TTGlyph>
    <TTGlyph name="Icircumflex" xMin="77" yMin="0" xMax="742" yMax="2014">
      <contour>
        <pt x="127" y="82" on="1"/>
        <pt x="332" y="96" on="1"/>
        <pt x="332" y="1420" on="1"/>
        <pt x="127" y="1441" on="1"/>
        <pt x="127" y="1522" on="1"/>
        <pt x="685" y="1522" on="1"/>
        <pt x="685" y="1441" on="1"/>
        <pt x="481" y="1421" on="1"/>
        <pt x="481" y="96" on="1"/>
        <pt x="685" y="82" on="1"/>
        <pt x="685" y="0" on="1"/>
        <pt x="127" y="0" on="1"/>
      </contour>
      <contour>
        <pt x="77" y="1718" on="1"/>
        <pt x="336" y="2014" on="1"/>
        <pt x="480" y="2014" on="1"/>
        <pt x="742" y="1720" on="1"/>
        <pt x="674" y="1681" on="1"/>
        <pt x="409" y="1904" on="1"/>
        <pt x="139" y="1681" on="1"/>
      </contour>
    </TTGlyph>
    <TTGlyph name="Idieresis" xMin="67" yMin="0" xMax="758" yMax="1951">
      <contour>
        <pt x="127" y="82" on="1"/>
        <pt x="332" y="96" on="1"/>
        <pt x="332" y="1420" on="1"/>
        <pt x="127" y="1441" on="1"/>
        <pt x="127" y="1522" on="1"/>
        <pt x="685" y="1522" on="1"/>
        <pt x="685" y="1441" on="1"/>
        <pt x="481" y="1421" on="1"/>
        <pt x="481" y="96" on="1"/>
        <pt x="685" y="82" on="1"/>
        <pt x="685" y="0" on="1"/>
        <pt x="127" y="0" on="1"/>
      </contour>
      <contour>
        <pt x="644" y="1716" on="1"/>
        <pt x="621" y="1716" on="0"/>
        <pt x="586" y="1733" on="0"/>
        <pt x="562" y="1763" on="0"/>
        <pt x="549" y="1803" on="0"/>
        <pt x="549" y="1825" on="1"/>
        <pt x="549" y="1848" on="0"/>
        <pt x="563" y="1893" on="0"/>
        <pt x="590" y="1929" on="0"/>
        <pt x="631" y="1951" on="0"/>
        <pt x="659" y="1951" on="1"/>
        <pt x="660" y="1951" on="1"/>
        <pt x="684" y="1951" on="0"/>
        <pt x="721" y="1931" on="0"/>
        <pt x="745" y="1900" on="0"/>
        <pt x="758" y="1860" on="0"/>
        <pt x="758" y="1841" on="1"/>
        <pt x="758" y="1816" on="0"/>
        <pt x="744" y="1771" on="0"/>
        <pt x="716" y="1736" on="0"/>
        <pt x="674" y="1716" on="0"/>
        <pt x="645" y="1716" on="1"/>
      </contour>
      <contour>
        <pt x="161" y="1716" on="1"/>
        <pt x="139" y="1716" on="0"/>
        <pt x="104" y="1733" on="0"/>
        <pt x="80" y="1763" on="0"/>
        <pt x="67" y="1803" on="0"/>
        <pt x="67" y="1825" on="1"/>
        <pt x="67" y="1848" on="0"/>
        <pt x="80" y="1893" on="0"/>
        <pt x="107" y="1929" on="0"/>
        <pt x="148" y="1951" on="0"/>
        <pt x="176" y="1951" on="1"/>
        <pt x="177" y="1951" on="1"/>
        <pt x="201" y="1951" on="0"/>
        <pt x="238" y="1931" on="0"/>
        <pt x="262" y="1900" on="0"/>
        <pt x="275" y="1860" on="0"/>
        <pt x="275" y="1841" on="1"/>
        <pt x="275" y="1816" on="0"/>
        <pt x="261" y="1771" on="0"/>
        <pt x="233" y="1736" on="0"/>
        <pt x="191" y="1716" on="0"/>
        <pt x="162" y="1716" on="1"/>
      </contour>
    </TTGlyph>
    <TTGlyph name="Idotaccent" xMin="127" yMin="0" xMax="685" yMax="1955">
      <contour>
        <pt x="127" y="82" on="1"/>
        <pt x="332" y="96" on="1"/>
        <pt x="332" y="1420" on="1"/>
        <pt x="127" y="1441" on="1"/>
        <pt x="127" y="1522" on="1"/>
        <pt x="685" y="1522" on="1"/>
        <pt x="685" y="1441" on="1"/>
        <pt x="481" y="1421" on="1"/>
        <pt x="481" y="96" on="1"/>
        <pt x="685" y="82" on="1"/>
        <pt x="685" y="0" on="1"/>
        <pt x="127" y="0" on="1"/>
      </contour>
      <contour>
        <pt x="400" y="1720" on="1"/>
        <pt x="378" y="1720" on="0"/>
        <pt x="343" y="1737" on="0"/>
        <pt x="319" y="1767" on="0"/>
        <pt x="306" y="1806" on="0"/>
        <pt x="306" y="1828" on="1"/>
        <pt x="306" y="1852" on="0"/>
        <pt x="319" y="1897" on="0"/>
        <pt x="346" y="1933" on="0"/>
        <pt x="387" y="1955" on="0"/>
        <pt x="415" y="1955" on="1"/>
        <pt x="416" y="1955" on="1"/>
        <pt x="440" y="1955" on="0"/>
        <pt x="477" y="1935" on="0"/>
        <pt x="501" y="1904" on="0"/>
        <pt x="514" y="1864" on="0"/>
        <pt x="514" y="1845" on="1"/>
        <pt x="514" y="1819" on="0"/>
        <pt x="500" y="1774" on="0"/>
        <pt x="472" y="1740" on="0"/>
        <pt x="430" y="1720" on="0"/>
        <pt x="401" y="1720" on="1"/>
        <pt x="400" y="1720" on="1"/>
      </contour>
    </TTGlyph>
    <TTGlyph name="Igrave" xMin="125" yMin="0" xMax="685" yMax="2007">
      <contour>
        <pt x="127" y="82" on="1"/>
        <pt x="332" y="96" on="1"/>
        <pt x="332" y="1420" on="1"/>
        <pt x="127" y="1441" on="1"/>
        <pt x="127" y="1522" on="1"/>
        <pt x="685" y="1522" on="1"/>
        <pt x="685" y="1441" on="1"/>
        <pt x="481" y="1421" on="1"/>
        <pt x="481" y="96" on="1"/>
        <pt x="685" y="82" on="1"/>
        <pt x="685" y="0" on="1"/>
        <pt x="127" y="0" on="1"/>
      </contour>
      <contour>
        <pt x="520" y="1651" on="1"/>
        <pt x="496" y="1662" on="0"/>
        <pt x="429" y="1697" on="0"/>
        <pt x="353" y="1740" on="0"/>
        <pt x="274" y="1788" on="0"/>
        <pt x="202" y="1838" on="0"/>
        <pt x="143" y="1887" on="0"/>
        <pt x="125" y="1908" on="1"/>
        <pt x="227" y="2007" on="1"/>
        <pt x="228" y="2007" on="1"/>
        <pt x="569" y="1699" on="1"/>
        <pt x="521" y="1651" on="1"/>
        <pt x="520" y="1651" on="1"/>
      </contour>
    </TTGlyph>
    <TTGlyph name="Imacron" xMin="127" yMin="0" xMax="685" yMax="1876">
      <contour>
        <pt x="127" y="82" on="1"/>
        <pt x="332" y="96" on="1"/>
        <pt x="332" y="1420" on="1"/>
        <pt x="127" y="1441" on="1"/>
        <pt x="127" y="1522" on="1"/>
        <pt x="685" y="1522" on="1"/>
        <pt x="685" y="1441" on="1"/>
        <pt x="481" y="1421" on="1"/>
        <pt x="481" y="96" on="1"/>
        <pt x="685" y="82" on="1"/>
        <pt x="685" y="0" on="1"/>
        <pt x="127" y="0" on="1"/>
      </contour>
      <contour>
        <pt x="149" y="1876" on="1"/>
        <pt x="680" y="1876" on="1"/>
        <pt x="680" y="1763" on="1"/>
        <pt x="149" y="1763" on="1"/>
      </contour>
    </TTGlyph>
    <TTGlyph name="Iogonek" xMin="114" yMin="-510" xMax="685" yMax="1522">
      <contour>
        <pt x="127" y="82" on="1"/>
        <pt x="332" y="96" on="1"/>
        <pt x="332" y="1420" on="1"/>
        <pt x="127" y="1441" on="1"/>
        <pt x="127" y="1522" on="1"/>
        <pt x="685" y="1522" on="1"/>
        <pt x="685" y="1441" on="1"/>
        <pt x="481" y="1421" on="1"/>
        <pt x="481" y="96" on="1"/>
        <pt x="685" y="82" on="1"/>
        <pt x="685" y="0" on="1"/>
        <pt x="500" y="0" on="1"/>
        <pt x="452" y="-22" on="0"/>
        <pt x="365" y="-87" on="0"/>
        <pt x="298" y="-161" on="0"/>
        <pt x="259" y="-238" on="0"/>
        <pt x="259" y="-271" on="1"/>
        <pt x="259" y="-309" on="0"/>
        <pt x="286" y="-361" on="0"/>
        <pt x="331" y="-393" on="0"/>
        <pt x="390" y="-407" on="0"/>
        <pt x="422" y="-407" on="1"/>
        <pt x="464" y="-407" on="0"/>
        <pt x="553" y="-382" on="0"/>
        <pt x="589" y="-362" on="1"/>
        <pt x="589" y="-440" on="1"/>
        <pt x="546" y="-472" on="0"/>
        <pt x="422" y="-510" on="0"/>
        <pt x="359" y="-510" on="1"/>
        <pt x="312" y="-510" on="0"/>
        <pt x="224" y="-491" on="0"/>
        <pt x="156" y="-446" on="0"/>
        <pt x="114" y="-374" on="0"/>
        <pt x="114" y="-320" on="1"/>
        <pt x="114" y="-278" on="0"/>
        <pt x="161" y="-184" on="0"/>
        <pt x="237" y="-97" on="0"/>
        <pt x="332" y="-23" on="0"/>
        <pt x="381" y="0" on="1"/>
        <pt x="127" y="0" on="1"/>
      </contour>
    </TTGlyph>
    <TTGlyph name="Itilde" xMin="-8" yMin="0" xMax="832" yMax="2001">
      <contour>
        <pt x="127" y="82" on="1"/>
        <pt x="332" y="96" on="1"/>
        <pt x="332" y="1420" on="1"/>
        <pt x="127" y="1441" on="1"/>
        <pt x="127" y="1522" on="1"/>
        <pt x="685" y="1522" on="1"/>
        <pt x="685" y="1441" on="1"/>
        <pt x="481" y="1421" on="1"/>
        <pt x="481" y="96" on="1"/>
        <pt x="685" y="82" on="1"/>
        <pt x="685" y="0" on="1"/>
        <pt x="127" y="0" on="1"/>
      </contour>
      <contour>
        <pt x="-8" y="1796" on="1"/>
        <pt x="0" y="1829" on="0"/>
        <pt x="47" y="1902" on="0"/>
        <pt x="119" y="1962" on="0"/>
        <pt x="211" y="2001" on="0"/>
        <pt x="264" y="2001" on="1"/>
        <pt x="305" y="2001" on="0"/>
        <pt x="369" y="1975" on="0"/>
        <pt x="421" y="1935" on="0"/>
        <pt x="467" y="1890" on="0"/>
        <pt x="512" y="1850" on="0"/>
        <pt x="561" y="1824" on="0"/>
        <pt x="591" y="1824" on="1"/>
        <pt x="628" y="1824" on="0"/>
        <pt x="682" y="1854" on="0"/>
        <pt x="721" y="1897" on="0"/>
        <pt x="746" y="1943" on="0"/>
        <pt x="753" y="1959" on="1"/>
        <pt x="832" y="1918" on="1"/>
        <pt x="821" y="1879" on="0"/>
        <pt x="776" y="1805" on="0"/>
        <pt x="712" y="1748" on="0"/>
        <pt x="629" y="1713" on="0"/>
        <pt x="580" y="1713" on="1"/>
        <pt x="539" y="1713" on="0"/>
        <pt x="476" y="1739" on="0"/>
        <pt x="422" y="1779" on="0"/>
        <pt x="374" y="1824" on="0"/>
        <pt x="326" y="1864" on="0"/>
        <pt x="273" y="1890" on="0"/>
        <pt x="241" y="1890" on="1"/>
        <pt x="204" y="1890" on="0"/>
        <pt x="147" y="1860" on="0"/>
        <pt x="105" y="1817" on="0"/>
        <pt x="78" y="1771" on="0"/>
        <pt x="71" y="1755" on="1"/>
      </contour>
    </TTGlyph>
    <TTGlyph name="J" xMin="-3" yMin="-350" xMax="670" yMax="1522">
      <contour>
        <pt x="279" y="-25" on="1"/>
        <pt x="294" y="20" on="0"/>
        <pt x="310" y="115" on="0"/>
        <pt x="319" y="241" on="0"/>
        <pt x="321" y="410" on="0"/>
        <pt x="321" y="528" on="1"/>
        <pt x="321" y="1419" on="1"/>
        <pt x="114" y="1441" on="1"/>
        <pt x="114" y="1522" on="1"/>
        <pt x="670" y="1522" on="1"/>
        <pt x="670" y="1441" on="1"/>
        <pt x="469" y="1419" on="1"/>
        <pt x="469" y="562" on="1"/>
        <pt x="469" y="475" on="0"/>
        <pt x="469" y="326" on="0"/>
        <pt x="466" y="198" on="0"/>
        <pt x="457" y="89" on="0"/>
        <pt x="448" y="41" on="1"/>
        <pt x="431" y="-47" on="0"/>
        <pt x="349" y="-182" on="0"/>
        <pt x="237" y="-280" on="0"/>
        <pt x="106" y="-339" on="0"/>
        <pt x="40" y="-350" on="1"/>
        <pt x="-3" y="-284" on="1"/>
        <pt x="45" y="-272" on="0"/>
        <pt x="133" y="-226" on="0"/>
        <pt x="206" y="-161" on="0"/>
        <pt x="263" y="-76" on="0"/>
      </contour>
    </TTGlyph>
    <TTGlyph name="Jcircumflex" xMin="-3" yMin="-350" xMax="721" yMax="2014">
      <contour>
        <pt x="279" y="-25" on="1"/>
        <pt x="294" y="20" on="0"/>
        <pt x="310" y="115" on="0"/>
        <pt x="319" y="241" on="0"/>
        <pt x="321" y="410" on="0"/>
        <pt x="321" y="528" on="1"/>
        <pt x="321" y="1419" on="1"/>
        <pt x="114" y="1441" on="1"/>
        <pt x="114" y="1522" on="1"/>
        <pt x="670" y="1522" on="1"/>
        <pt x="670" y="1441" on="1"/>
        <pt x="469" y="1419" on="1"/>
        <pt x="469" y="562" on="1"/>
        <pt x="469" y="475" on="0"/>
        <pt x="469" y="326" on="0"/>
        <pt x="466" y="198" on="0"/>
        <pt x="457" y="89" on="0"/>
        <pt x="448" y="41" on="1"/>
        <pt x="431" y="-47" on="0"/>
        <pt x="349" y="-182" on="0"/>
        <pt x="237" y="-280" on="0"/>
        <pt x="106" y="-339" on="0"/>
        <pt x="40" y="-350" on="1"/>
        <pt x="-3" y="-284" on="1"/>
        <pt x="45" y="-272" on="0"/>
        <pt x="133" y="-226" on="0"/>
        <pt x="206" y="-161" on="0"/>
        <pt x="263" y="-76" on="0"/>
      </contour>
      <contour>
        <pt x="56" y="1718" on="1"/>
        <pt x="315" y="2014" on="1"/>
        <pt x="459" y="2014" on="1"/>
        <pt x="721" y="1720" on="1"/>
        <pt x="653" y="1681" on="1"/>
        <pt x="388" y="1904" on="1"/>
        <pt x="118" y="1681" on="1"/>
      </contour>
    </TTGlyph>
    <TTGlyph name="K" xMin="115" yMin="0" xMax="1457" yMax="1522">
      <contour>
        <pt x="115" y="82" on="1"/>
        <pt x="292" y="96" on="1"/>
        <pt x="292" y="1420" on="1"/>
        <pt x="119" y="1441" on="1"/>
        <pt x="119" y="1522" on="1"/>
        <pt x="621" y="1522" on="1"/>
        <pt x="621" y="1441" on="1"/>
        <pt x="439" y="1420" on="1"/>
        <pt x="439" y="661" on="1"/>
        <pt x="1104" y="1421" on="1"/>
        <pt x="929" y="1441" on="1"/>
        <pt x="929" y="1522" on="1"/>
        <pt x="1392" y="1522" on="1"/>
        <pt x="1392" y="1441" on="1"/>
        <pt x="1245" y="1421" on="1"/>
        <pt x="757" y="881" on="1"/>
        <pt x="797" y="846" on="0"/>
        <pt x="883" y="743" on="0"/>
        <pt x="972" y="621" on="0"/>
        <pt x="1062" y="488" on="0"/>
        <pt x="1147" y="360" on="0"/>
        <pt x="1224" y="243" on="0"/>
        <pt x="1291" y="154" on="0"/>
        <pt x="1342" y="99" on="0"/>
        <pt x="1359" y="97" on="1"/>
        <pt x="1457" y="77" on="1"/>
        <pt x="1457" y="0" on="1"/>
        <pt x="1231" y="0" on="1"/>
        <pt x="1203" y="0" on="0"/>
        <pt x="1127" y="88" on="0"/>
        <pt x="1036" y="229" on="0"/>
        <pt x="934" y="405" on="0"/>
        <pt x="828" y="579" on="0"/>
        <pt x="721" y="733" on="0"/>
        <pt x="671" y="783" on="1"/>
        <pt x="439" y="522" on="1"/>
        <pt x="439" y="96" on="1"/>
        <pt x="634" y="79" on="1"/>
        <pt x="634" y="0" on="1"/>
        <pt x="115" y="0" on="1"/>
      </contour>
    </TTGlyph>
    <TTGlyph name="Kcommaaccent" xMin="107" yMin="-560" xMax="1449" yMax="1522">
      <contour>
        <pt x="701" y="-205" on="1"/>
        <pt x="701" y="-179" on="0"/>
        <pt x="719" y="-146" on="0"/>
        <pt x="744" y="-128" on="0"/>
        <pt x="770" y="-121" on="0"/>
        <pt x="778" y="-121" on="1"/>
        <pt x="787" y="-121" on="1"/>
        <pt x="839" y="-121" on="0"/>
        <pt x="906" y="-209" on="0"/>
        <pt x="906" y="-290" on="1"/>
        <pt x="906" y="-354" on="0"/>
        <pt x="863" y="-452" on="0"/>
        <pt x="808" y="-519" on="0"/>
        <pt x="758" y="-556" on="0"/>
        <pt x="751" y="-560" on="1"/>
        <pt x="749" y="-560" on="1"/>
        <pt x="707" y="-521" on="1"/>
        <pt x="707" y="-511" on="1"/>
        <pt x="722" y="-504" on="0"/>
        <pt x="750" y="-472" on="0"/>
        <pt x="771" y="-429" on="0"/>
        <pt x="783" y="-379" on="0"/>
        <pt x="783" y="-353" on="1"/>
        <pt x="783" y="-319" on="0"/>
        <pt x="759" y="-287" on="0"/>
        <pt x="743" y="-276" on="1"/>
        <pt x="727" y="-265" on="0"/>
        <pt x="701" y="-236" on="0"/>
      </contour>
      <contour>
        <pt x="107" y="82" on="1"/>
        <pt x="284" y="96" on="1"/>
        <pt x="284" y="1420" on="1"/>
        <pt x="111" y="1441" on="1"/>
        <pt x="111" y="1522" on="1"/>
        <pt x="613" y="1522" on="1"/>
        <pt x="613" y="1441" on="1"/>
        <pt x="431" y="1420" on="1"/>
        <pt x="431" y="661" on="1"/>
        <pt x="1096" y="1421" on="1"/>
        <pt x="921" y="1441" on="1"/>
        <pt x="921" y="1522" on="1"/>
        <pt x="1384" y="1522" on="1"/>
        <pt x="1384" y="1441" on="1"/>
        <pt x="1237" y="1421" on="1"/>
        <pt x="749" y="881" on="1"/>
        <pt x="789" y="846" on="0"/>
        <pt x="875" y="743" on="0"/>
        <pt x="964" y="621" on="0"/>
        <pt x="1054" y="488" on="0"/>
        <pt x="1139" y="360" on="0"/>
        <pt x="1216" y="243" on="0"/>
        <pt x="1283" y="154" on="0"/>
        <pt x="1334" y="99" on="0"/>
        <pt x="1351" y="97" on="1"/>
        <pt x="1449" y="77" on="1"/>
        <pt x="1449" y="0" on="1"/>
        <pt x="1223" y="0" on="1"/>
        <pt x="1195" y="0" on="0"/>
        <pt x="1119" y="88" on="0"/>
        <pt x="1028" y="229" on="0"/>
        <pt x="926" y="405" on="0"/>
        <pt x="820" y="579" on="0"/>
        <pt x="713" y="733" on="0"/>
        <pt x="663" y="783" on="1"/>
        <pt x="431" y="522" on="1"/>
        <pt x="431" y="96" on="1"/>
        <pt x="626" y="79" on="1"/>
        <pt x="626" y="0" on="1"/>
        <pt x="107" y="0" on="1"/>
      </contour>
    </TTGlyph>
    <TTGlyph name="L" xMin="115" yMin="0" xMax="1246" yMax="1522">
      <contour>
        <pt x="115" y="82" on="1"/>
        <pt x="292" y="96" on="1"/>
        <pt x="292" y="1420" on="1"/>
        <pt x="119" y="1441" on="1"/>
        <pt x="119" y="1522" on="1"/>
        <pt x="647" y="1522" on="1"/>
        <pt x="647" y="1441" on="1"/>
        <pt x="439" y="1420" on="1"/>
        <pt x="439" y="96" on="1"/>
        <pt x="1048" y="110" on="1"/>
        <pt x="1162" y="429" on="1"/>
        <pt x="1246" y="415" on="1"/>
        <pt x="1169" y="0" on="1"/>
        <pt x="115" y="0" on="1"/>
      </contour>
    </TTGlyph>
    <TTGlyph name="Lacute" xMin="115" yMin="0" xMax="1246" yMax="2007">
      <contour>
        <pt x="448" y="1699" on="1"/>
        <pt x="789" y="2007" on="1"/>
        <pt x="790" y="2007" on="1"/>
        <pt x="892" y="1908" on="1"/>
        <pt x="874" y="1887" on="0"/>
        <pt x="815" y="1838" on="0"/>
        <pt x="742" y="1788" on="0"/>
        <pt x="663" y="1740" on="0"/>
        <pt x="587" y="1697" on="0"/>
        <pt x="520" y="1662" on="0"/>
        <pt x="497" y="1651" on="1"/>
        <pt x="496" y="1651" on="1"/>
      </contour>
      <contour>
        <pt x="115" y="82" on="1"/>
        <pt x="292" y="96" on="1"/>
        <pt x="292" y="1420" on="1"/>
        <pt x="119" y="1441" on="1"/>
        <pt x="119" y="1522" on="1"/>
        <pt x="647" y="1522" on="1"/>
        <pt x="647" y="1441" on="1"/>
        <pt x="439" y="1420" on="1"/>
        <pt x="439" y="96" on="1"/>
        <pt x="1048" y="110" on="1"/>
        <pt x="1162" y="429" on="1"/>
        <pt x="1246" y="415" on="1"/>
        <pt x="1169" y="0" on="1"/>
        <pt x="115" y="0" on="1"/>
      </contour>
    </TTGlyph>
    <TTGlyph name="Lcaron" xMin="115" yMin="0" xMax="1246" yMax="1676">
      <contour>
        <pt x="115" y="82" on="1"/>
        <pt x="292" y="96" on="1"/>
        <pt x="292" y="1420" on="1"/>
        <pt x="119" y="1441" on="1"/>
        <pt x="119" y="1522" on="1"/>
        <pt x="647" y="1522" on="1"/>
        <pt x="647" y="1441" on="1"/>
        <pt x="439" y="1420" on="1"/>
        <pt x="439" y="96" on="1"/>
        <pt x="1048" y="110" on="1"/>
        <pt x="1162" y="429" on="1"/>
        <pt x="1246" y="415" on="1"/>
        <pt x="1169" y="0" on="1"/>
        <pt x="115" y="0" on="1"/>
      </contour>
      <contour>
        <pt x="942" y="1076" on="1"/>
        <pt x="939" y="1096" on="1"/>
        <pt x="959" y="1156" on="0"/>
        <pt x="982" y="1293" on="0"/>
        <pt x="982" y="1353" on="1"/>
        <pt x="982" y="1395" on="0"/>
        <pt x="974" y="1477" on="0"/>
        <pt x="960" y="1548" on="0"/>
        <pt x="941" y="1602" on="0"/>
        <pt x="931" y="1616" on="1"/>
        <pt x="943" y="1649" on="1"/>
        <pt x="1059" y="1676" on="1"/>
        <pt x="1072" y="1661" on="0"/>
        <pt x="1095" y="1610" on="0"/>
        <pt x="1110" y="1545" on="0"/>
        <pt x="1119" y="1472" on="0"/>
        <pt x="1119" y="1436" on="1"/>
        <pt x="1119" y="1376" on="0"/>
        <pt x="1100" y="1257" on="0"/>
        <pt x="1069" y="1154" on="0"/>
        <pt x="1027" y="1072" on="0"/>
        <pt x="1003" y="1049" on="1"/>
      </contour>
    </TTGlyph>
    <TTGlyph name="Lcommaaccent" xMin="115" yMin="-560" xMax="1246" yMax="1522">
      <contour>
        <pt x="619" y="-205" on="1"/>
        <pt x="619" y="-179" on="0"/>
        <pt x="637" y="-146" on="0"/>
        <pt x="662" y="-128" on="0"/>
        <pt x="688" y="-121" on="0"/>
        <pt x="696" y="-121" on="1"/>
        <pt x="705" y="-121" on="1"/>
        <pt x="757" y="-121" on="0"/>
        <pt x="824" y="-209" on="0"/>
        <pt x="824" y="-290" on="1"/>
        <pt x="824" y="-354" on="0"/>
        <pt x="781" y="-452" on="0"/>
        <pt x="726" y="-519" on="0"/>
        <pt x="676" y="-556" on="0"/>
        <pt x="669" y="-560" on="1"/>
        <pt x="667" y="-560" on="1"/>
        <pt x="625" y="-521" on="1"/>
        <pt x="625" y="-511" on="1"/>
        <pt x="640" y="-504" on="0"/>
        <pt x="668" y="-472" on="0"/>
        <pt x="689" y="-429" on="0"/>
        <pt x="701" y="-379" on="0"/>
        <pt x="701" y="-353" on="1"/>
        <pt x="701" y="-319" on="0"/>
        <pt x="677" y="-287" on="0"/>
        <pt x="661" y="-276" on="1"/>
        <pt x="645" y="-265" on="0"/>
        <pt x="619" y="-236" on="0"/>
      </contour>
      <contour>
        <pt x="115" y="82" on="1"/>
        <pt x="292" y="96" on="1"/>
        <pt x="292" y="1420" on="1"/>
        <pt x="119" y="1441" on="1"/>
        <pt x="119" y="1522" on="1"/>
        <pt x="647" y="1522" on="1"/>
        <pt x="647" y="1441" on="1"/>
        <pt x="439" y="1420" on="1"/>
        <pt x="439" y="96" on="1"/>
        <pt x="1048" y="110" on="1"/>
        <pt x="1162" y="429" on="1"/>
        <pt x="1246" y="415" on="1"/>
        <pt x="1169" y="0" on="1"/>
        <pt x="115" y="0" on="1"/>
      </contour>
    </TTGlyph>
    <TTGlyph name="Ldot" xMin="115" yMin="0" xMax="1246" yMax="1522">
      <contour>
        <pt x="115" y="82" on="1"/>
        <pt x="292" y="96" on="1"/>
        <pt x="292" y="1420" on="1"/>
        <pt x="119" y="1441" on="1"/>
        <pt x="119" y="1522" on="1"/>
        <pt x="647" y="1522" on="1"/>
        <pt x="647" y="1441" on="1"/>
        <pt x="439" y="1420" on="1"/>
        <pt x="439" y="96" on="1"/>
        <pt x="1048" y="110" on="1"/>
        <pt x="1162" y="429" on="1"/>
        <pt x="1246" y="415" on="1"/>
        <pt x="1169" y="0" on="1"/>
        <pt x="115" y="0" on="1"/>
      </contour>
      <contour>
        <pt x="803" y="813" on="1"/>
        <pt x="803" y="839" on="0"/>
        <pt x="823" y="884" on="0"/>
        <pt x="857" y="918" on="0"/>
        <pt x="899" y="938" on="0"/>
        <pt x="922" y="938" on="1"/>
        <pt x="949" y="938" on="0"/>
        <pt x="987" y="920" on="0"/>
        <pt x="1011" y="891" on="0"/>
        <pt x="1022" y="852" on="0"/>
        <pt x="1022" y="831" on="1"/>
        <pt x="1022" y="803" on="0"/>
        <pt x="1002" y="757" on="0"/>
        <pt x="969" y="724" on="0"/>
        <pt x="926" y="706" on="0"/>
        <pt x="903" y="706" on="1"/>
        <pt x="861" y="706" on="0"/>
        <pt x="803" y="764" on="0"/>
      </contour>
    </TTGlyph>
    <TTGlyph name="Lslash" xMin="54" yMin="0" xMax="1246" yMax="1522">
      <contour>
        <pt x="115" y="82" on="1"/>
        <pt x="292" y="96" on="1"/>
        <pt x="292" y="638" on="1"/>
        <pt x="54" y="533" on="1"/>
        <pt x="54" y="632" on="1"/>
        <pt x="292" y="740" on="1"/>
        <pt x="292" y="1420" on="1"/>
        <pt x="119" y="1441" on="1"/>
        <pt x="119" y="1522" on="1"/>
        <pt x="647" y="1522" on="1"/>
        <pt x="647" y="1441" on="1"/>
        <pt x="439" y="1420" on="1"/>
        <pt x="439" y="801" on="1"/>
        <pt x="883" y="1001" on="1"/>
        <pt x="883" y="896" on="1"/>
        <pt x="439" y="698" on="1"/>
        <pt x="439" y="96" on="1"/>
        <pt x="1048" y="110" on="1"/>
        <pt x="1162" y="429" on="1"/>
        <pt x="1246" y="415" on="1"/>
        <pt x="1169" y="0" on="1"/>
        <pt x="115" y="0" on="1"/>
      </contour>
    </TTGlyph>
    <TTGlyph name="M" xMin="8" yMin="-16" xMax="2022" yMax="1522">
      <contour>
        <pt x="8" y="82" on="1"/>
        <pt x="187" y="97" on="1"/>
        <pt x="361" y="1421" on="1"/>
        <pt x="125" y="1441" on="1"/>
        <pt x="125" y="1522" on="1"/>
        <pt x="584" y="1522" on="1"/>
        <pt x="941" y="479" on="1"/>
        <pt x="1015" y="191" on="1"/>
        <pt x="1090" y="479" on="1"/>
        <pt x="1435" y="1522" on="1"/>
        <pt x="1872" y="1522" on="1"/>
        <pt x="1872" y="1441" on="1"/>
        <pt x="1648" y="1420" on="1"/>
        <pt x="1834" y="96" on="1"/>
        <pt x="2022" y="82" on="1"/>
        <pt x="2022" y="0" on="1"/>
        <pt x="1493" y="0" on="1"/>
        <pt x="1493" y="82" on="1"/>
        <pt x="1683" y="96" on="1"/>
        <pt x="1567" y="1040" on="1"/>
        <pt x="1512" y="1455" on="1"/>
        <pt x="1422" y="1165" on="1"/>
        <pt x="1030" y="-16" on="1"/>
        <pt x="973" y="-16" on="1"/>
        <pt x="592" y="1052" on="1"/>
        <pt x="460" y="1453" on="1"/>
        <pt x="419" y="1041" on="1"/>
        <pt x="310" y="96" on="1"/>
        <pt x="514" y="82" on="1"/>
        <pt x="514" y="0" on="1"/>
        <pt x="8" y="0" on="1"/>
      </contour>
    </TTGlyph>
    <TTGlyph name="N" xMin="123" yMin="0" xMax="1566" yMax="1522">
      <contour>
        <pt x="123" y="82" on="1"/>
        <pt x="284" y="96" on="1"/>
        <pt x="284" y="1419" on="1"/>
        <pt x="123" y="1441" on="1"/>
        <pt x="123" y="1522" on="1"/>
        <pt x="431" y="1522" on="1"/>
        <pt x="1172" y="447" on="1"/>
        <pt x="1293" y="237" on="1"/>
        <pt x="1293" y="1419" on="1"/>
        <pt x="1113" y="1441" on="1"/>
        <pt x="1113" y="1522" on="1"/>
        <pt x="1566" y="1522" on="1"/>
        <pt x="1566" y="1441" on="1"/>
        <pt x="1400" y="1420" on="1"/>
        <pt x="1400" y="0" on="1"/>
        <pt x="1311" y="0" on="1"/>
        <pt x="566" y="1073" on="1"/>
        <pt x="392" y="1348" on="1"/>
        <pt x="392" y="96" on="1"/>
        <pt x="579" y="82" on="1"/>
        <pt x="579" y="0" on="1"/>
        <pt x="123" y="0" on="1"/>
      </contour>
    </TTGlyph>
    <TTGlyph name="Nacute" xMin="123" yMin="0" xMax="1566" yMax="2007">
      <contour>
        <pt x="700" y="1699" on="1"/>
        <pt x="1041" y="2007" on="1"/>
        <pt x="1042" y="2007" on="1"/>
        <pt x="1144" y="1908" on="1"/>
        <pt x="1126" y="1887" on="0"/>
        <pt x="1067" y="1838" on="0"/>
        <pt x="994" y="1788" on="0"/>
        <pt x="915" y="1740" on="0"/>
        <pt x="839" y="1697" on="0"/>
        <pt x="772" y="1662" on="0"/>
        <pt x="749" y="1651" on="1"/>
        <pt x="748" y="1651" on="1"/>
      </contour>
      <contour>
        <pt x="123" y="82" on="1"/>
        <pt x="284" y="96" on="1"/>
        <pt x="284" y="1419" on="1"/>
        <pt x="123" y="1441" on="1"/>
        <pt x="123" y="1522" on="1"/>
        <pt x="431" y="1522" on="1"/>
        <pt x="1172" y="447" on="1"/>
        <pt x="1293" y="237" on="1"/>
        <pt x="1293" y="1419" on="1"/>
        <pt x="1113" y="1441" on="1"/>
        <pt x="1113" y="1522" on="1"/>
        <pt x="1566" y="1522" on="1"/>
        <pt x="1566" y="1441" on="1"/>
        <pt x="1400" y="1420" on="1"/>
        <pt x="1400" y="0" on="1"/>
        <pt x="1311" y="0" on="1"/>
        <pt x="566" y="1073" on="1"/>
        <pt x="392" y="1348" on="1"/>
        <pt x="392" y="96" on="1"/>
        <pt x="579" y="82" on="1"/>
        <pt x="579" y="0" on="1"/>
        <pt x="123" y="0" on="1"/>
      </contour>
    </TTGlyph>
    <TTGlyph name="Ncaron" xMin="123" yMin="0" xMax="1566" yMax="2010">
      <contour>
        <pt x="516" y="1972" on="1"/>
        <pt x="584" y="2010" on="1"/>
        <pt x="834" y="1800" on="1"/>
        <pt x="1090" y="2010" on="1"/>
        <pt x="1151" y="1974" on="1"/>
        <pt x="907" y="1699" on="1"/>
        <pt x="763" y="1699" on="1"/>
      </contour>
      <contour>
        <pt x="123" y="82" on="1"/>
        <pt x="284" y="96" on="1"/>
        <pt x="284" y="1419" on="1"/>
        <pt x="123" y="1441" on="1"/>
        <pt x="123" y="1522" on="1"/>
        <pt x="431" y="1522" on="1"/>
        <pt x="1172" y="447" on="1"/>
        <pt x="1293" y="237" on="1"/>
        <pt x="1293" y="1419" on="1"/>
        <pt x="1113" y="1441" on="1"/>
        <pt x="1113" y="1522" on="1"/>
        <pt x="1566" y="1522" on="1"/>
        <pt x="1566" y="1441" on="1"/>
        <pt x="1400" y="1420" on="1"/>
        <pt x="1400" y="0" on="1"/>
        <pt x="1311" y="0" on="1"/>
        <pt x="566" y="1073" on="1"/>
        <pt x="392" y="1348" on="1"/>
        <pt x="392" y="96" on="1"/>
        <pt x="579" y="82" on="1"/>
        <pt x="579" y="0" on="1"/>
        <pt x="123" y="0" on="1"/>
      </contour>
    </TTGlyph>
    <TTGlyph name="Ncommaaccent" xMin="123" yMin="-560" xMax="1566" yMax="1522">
      <contour>
        <pt x="753" y="-205" on="1"/>
        <pt x="753" y="-179" on="0"/>
        <pt x="771" y="-146" on="0"/>
        <pt x="796" y="-128" on="0"/>
        <pt x="822" y="-121" on="0"/>
        <pt x="830" y="-121" on="1"/>
        <pt x="839" y="-121" on="1"/>
        <pt x="891" y="-121" on="0"/>
        <pt x="958" y="-209" on="0"/>
        <pt x="958" y="-290" on="1"/>
        <pt x="958" y="-354" on="0"/>
        <pt x="915" y="-452" on="0"/>
        <pt x="860" y="-519" on="0"/>
        <pt x="810" y="-556" on="0"/>
        <pt x="803" y="-560" on="1"/>
        <pt x="801" y="-560" on="1"/>
        <pt x="759" y="-521" on="1"/>
        <pt x="759" y="-511" on="1"/>
        <pt x="774" y="-504" on="0"/>
        <pt x="802" y="-472" on="0"/>
        <pt x="823" y="-429" on="0"/>
        <pt x="835" y="-379" on="0"/>
        <pt x="835" y="-353" on="1"/>
        <pt x="835" y="-319" on="0"/>
        <pt x="811" y="-287" on="0"/>
        <pt x="795" y="-276" on="1"/>
        <pt x="779" y="-265" on="0"/>
        <pt x="753" y="-236" on="0"/>
      </contour>
      <contour>
        <pt x="123" y="82" on="1"/>
        <pt x="284" y="96" on="1"/>
        <pt x="284" y="1419" on="1"/>
        <pt x="123" y="1441" on="1"/>
        <pt x="123" y="1522" on="1"/>
        <pt x="431" y="1522" on="1"/>
        <pt x="1172" y="447" on="1"/>
        <pt x="1293" y="237" on="1"/>
        <pt x="1293" y="1419" on="1"/>
        <pt x="1113" y="1441" on="1"/>
        <pt x="1113" y="1522" on="1"/>
        <pt x="1566" y="1522" on="1"/>
        <pt x="1566" y="1441" on="1"/>
        <pt x="1400" y="1420" on="1"/>
        <pt x="1400" y="0" on="1"/>
        <pt x="1311" y="0" on="1"/>
        <pt x="566" y="1073" on="1"/>
        <pt x="392" y="1348" on="1"/>
        <pt x="392" y="96" on="1"/>
        <pt x="579" y="82" on="1"/>
        <pt x="579" y="0" on="1"/>
        <pt x="123" y="0" on="1"/>
      </contour>
    </TTGlyph>
    <TTGlyph name="Ntilde" xMin="123" yMin="0" xMax="1566" yMax="2001">
      <contour>
        <pt x="414" y="1796" on="1"/>
        <pt x="422" y="1829" on="0"/>
        <pt x="469" y="1902" on="0"/>
        <pt x="541" y="1962" on="0"/>
        <pt x="633" y="2001" on="0"/>
        <pt x="686" y="2001" on="1"/>
        <pt x="727" y="2001" on="0"/>
        <pt x="791" y="1975" on="0"/>
        <pt x="843" y="1935" on="0"/>
        <pt x="889" y="1890" on="0"/>
        <pt x="934" y="1850" on="0"/>
        <pt x="983" y="1824" on="0"/>
        <pt x="1013" y="1824" on="1"/>
        <pt x="1050" y="1824" on="0"/>
        <pt x="1104" y="1854" on="0"/>
        <pt x="1143" y="1897" on="0"/>
        <pt x="1168" y="1943" on="0"/>
        <pt x="1175" y="1959" on="1"/>
        <pt x="1254" y="1918" on="1"/>
        <pt x="1243" y="1879" on="0"/>
        <pt x="1198" y="1805" on="0"/>
        <pt x="1134" y="1748" on="0"/>
        <pt x="1051" y="1713" on="0"/>
        <pt x="1002" y="1713" on="1"/>
        <pt x="961" y="1713" on="0"/>
        <pt x="898" y="1739" on="0"/>
        <pt x="844" y="1779" on="0"/>
        <pt x="796" y="1824" on="0"/>
        <pt x="748" y="1864" on="0"/>
        <pt x="695" y="1890" on="0"/>
        <pt x="663" y="1890" on="1"/>
        <pt x="626" y="1890" on="0"/>
        <pt x="569" y="1860" on="0"/>
        <pt x="527" y="1817" on="0"/>
        <pt x="500" y="1771" on="0"/>
        <pt x="493" y="1755" on="1"/>
      </contour>
      <contour>
        <pt x="123" y="82" on="1"/>
        <pt x="284" y="96" on="1"/>
        <pt x="284" y="1419" on="1"/>
        <pt x="123" y="1441" on="1"/>
        <pt x="123" y="1522" on="1"/>
        <pt x="431" y="1522" on="1"/>
        <pt x="1172" y="447" on="1"/>
        <pt x="1293" y="237" on="1"/>
        <pt x="1293" y="1419" on="1"/>
        <pt x="1113" y="1441" on="1"/>
        <pt x="1113" y="1522" on="1"/>
        <pt x="1566" y="1522" on="1"/>
        <pt x="1566" y="1441" on="1"/>
        <pt x="1400" y="1420" on="1"/>
        <pt x="1400" y="0" on="1"/>
        <pt x="1311" y="0" on="1"/>
        <pt x="566" y="1073" on="1"/>
        <pt x="392" y="1348" on="1"/>
        <pt x="392" y="96" on="1"/>
        <pt x="579" y="82" on="1"/>
        <pt x="579" y="0" on="1"/>
        <pt x="123" y="0" on="1"/>
      </contour>
    </TTGlyph>
    <TTGlyph name="O" xMin="78" yMin="-26" xMax="1392" yMax="1538">
      <contour>
        <pt x="720" y="-23" on="1"/>
        <pt x="567" y="-26" on="0"/>
        <pt x="328" y="86" on="0"/>
        <pt x="164" y="291" on="0"/>
        <pt x="78" y="577" on="0"/>
        <pt x="78" y="749" on="1"/>
        <pt x="78" y="870" on="0"/>
        <pt x="126" y="1081" on="0"/>
        <pt x="215" y="1256" on="0"/>
        <pt x="338" y="1393" on="0"/>
        <pt x="489" y="1488" on="0"/>
        <pt x="662" y="1538" on="0"/>
        <pt x="756" y="1538" on="1"/>
        <pt x="909" y="1538" on="0"/>
        <pt x="1146" y="1428" on="0"/>
        <pt x="1308" y="1228" on="0"/>
        <pt x="1392" y="947" on="0"/>
        <pt x="1392" y="775" on="1"/>
        <pt x="1392" y="594" on="0"/>
        <pt x="1287" y="301" on="0"/>
        <pt x="1105" y="94" on="0"/>
        <pt x="860" y="-20" on="0"/>
      </contour>
      <contour>
        <pt x="733" y="65" on="1"/>
        <pt x="841" y="65" on="0"/>
        <pt x="1023" y="155" on="0"/>
        <pt x="1155" y="334" on="0"/>
        <pt x="1228" y="599" on="0"/>
        <pt x="1228" y="774" on="1"/>
        <pt x="1228" y="921" on="0"/>
        <pt x="1163" y="1169" on="0"/>
        <pt x="1039" y="1350" on="0"/>
        <pt x="857" y="1451" on="0"/>
        <pt x="739" y="1451" on="1"/>
        <pt x="629" y="1451" on="0"/>
        <pt x="446" y="1363" on="0"/>
        <pt x="314" y="1188" on="0"/>
        <pt x="241" y="925" on="0"/>
        <pt x="241" y="750" on="1"/>
        <pt x="241" y="604" on="0"/>
        <pt x="306" y="354" on="0"/>
        <pt x="431" y="170" on="0"/>
        <pt x="614" y="65" on="0"/>
      </contour>
    </TTGlyph>
    <TTGlyph name="OE" xMin="96" yMin="-20" xMax="2064" yMax="1548">
      <contour>
        <pt x="748" y="-16" on="1"/>
        <pt x="594" y="-20" on="0"/>
        <pt x="352" y="90" on="0"/>
        <pt x="184" y="294" on="0"/>
        <pt x="96" y="580" on="0"/>
        <pt x="96" y="752" on="1"/>
        <pt x="96" y="933" on="0"/>
        <pt x="204" y="1224" on="0"/>
        <pt x="390" y="1430" on="0"/>
        <pt x="638" y="1543" on="0"/>
        <pt x="778" y="1546" on="1"/>
        <pt x="856" y="1548" on="0"/>
        <pt x="996" y="1520" on="0"/>
        <pt x="1058" y="1491" on="1"/>
        <pt x="1058" y="1522" on="1"/>
        <pt x="1887" y="1522" on="1"/>
        <pt x="1916" y="1216" on="1"/>
        <pt x="1831" y="1216" on="1"/>
        <pt x="1778" y="1421" on="1"/>
        <pt x="1203" y="1429" on="1"/>
        <pt x="1203" y="831" on="1"/>
        <pt x="1601" y="836" on="1"/>
        <pt x="1624" y="1006" on="1"/>
        <pt x="1717" y="1006" on="1"/>
        <pt x="1717" y="558" on="1"/>
        <pt x="1624" y="558" on="1"/>
        <pt x="1601" y="737" on="1"/>
        <pt x="1203" y="742" on="1"/>
        <pt x="1203" y="90" on="1"/>
        <pt x="1863" y="110" on="1"/>
        <pt x="1978" y="369" on="1"/>
        <pt x="2064" y="347" on="1"/>
        <pt x="1986" y="0" on="1"/>
        <pt x="1058" y="0" on="1"/>
        <pt x="1058" y="67" on="1"/>
        <pt x="988" y="28" on="0"/>
        <pt x="832" y="-14" on="0"/>
      </contour>
      <contour>
        <pt x="758" y="70" on="1"/>
        <pt x="852" y="70" on="0"/>
        <pt x="1001" y="128" on="0"/>
        <pt x="1058" y="183" on="1"/>
        <pt x="1058" y="1365" on="1"/>
        <pt x="1009" y="1407" on="0"/>
        <pt x="869" y="1461" on="0"/>
        <pt x="768" y="1461" on="1"/>
        <pt x="653" y="1461" on="0"/>
        <pt x="464" y="1367" on="0"/>
        <pt x="330" y="1186" on="0"/>
        <pt x="256" y="922" on="0"/>
        <pt x="256" y="753" on="1"/>
        <pt x="256" y="612" on="0"/>
        <pt x="322" y="364" on="0"/>
        <pt x="450" y="178" on="0"/>
        <pt x="637" y="70" on="0"/>
      </contour>
    </TTGlyph>
    <TTGlyph name="Oacute" xMin="92" yMin="-26" xMax="1406" yMax="2007">
      <contour>
        <pt x="621" y="1699" on="1"/>
        <pt x="962" y="2007" on="1"/>
        <pt x="963" y="2007" on="1"/>
        <pt x="1065" y="1908" on="1"/>
        <pt x="1047" y="1887" on="0"/>
        <pt x="988" y="1838" on="0"/>
        <pt x="915" y="1788" on="0"/>
        <pt x="836" y="1740" on="0"/>
        <pt x="760" y="1697" on="0"/>
        <pt x="693" y="1662" on="0"/>
        <pt x="670" y="1651" on="1"/>
        <pt x="669" y="1651" on="1"/>
      </contour>
      <contour>
        <pt x="734" y="-23" on="1"/>
        <pt x="581" y="-26" on="0"/>
        <pt x="342" y="86" on="0"/>
        <pt x="178" y="291" on="0"/>
        <pt x="92" y="577" on="0"/>
        <pt x="92" y="749" on="1"/>
        <pt x="92" y="870" on="0"/>
        <pt x="140" y="1081" on="0"/>
        <pt x="229" y="1256" on="0"/>
        <pt x="352" y="1393" on="0"/>
        <pt x="503" y="1488" on="0"/>
        <pt x="676" y="1538" on="0"/>
        <pt x="770" y="1538" on="1"/>
        <pt x="923" y="1538" on="0"/>
        <pt x="1160" y="1428" on="0"/>
        <pt x="1322" y="1228" on="0"/>
        <pt x="1406" y="947" on="0"/>
        <pt x="1406" y="775" on="1"/>
        <pt x="1406" y="594" on="0"/>
        <pt x="1301" y="301" on="0"/>
        <pt x="1119" y="94" on="0"/>
        <pt x="874" y="-20" on="0"/>
      </contour>
      <contour>
        <pt x="747" y="65" on="1"/>
        <pt x="855" y="65" on="0"/>
        <pt x="1037" y="155" on="0"/>
        <pt x="1169" y="334" on="0"/>
        <pt x="1242" y="599" on="0"/>
        <pt x="1242" y="774" on="1"/>
        <pt x="1242" y="921" on="0"/>
        <pt x="1177" y="1169" on="0"/>
        <pt x="1053" y="1350" on="0"/>
        <pt x="871" y="1451" on="0"/>
        <pt x="753" y="1451" on="1"/>
        <pt x="643" y="1451" on="0"/>
        <pt x="460" y="1363" on="0"/>
        <pt x="328" y="1188" on="0"/>
        <pt x="255" y="925" on="0"/>
        <pt x="255" y="750" on="1"/>
        <pt x="255" y="604" on="0"/>
        <pt x="320" y="354" on="0"/>
        <pt x="445" y="170" on="0"/>
        <pt x="628" y="65" on="0"/>
      </contour>
    </TTGlyph>
    <TTGlyph name="Obreve" xMin="92" yMin="-26" xMax="1406" yMax="1994">
      <contour>
        <pt x="755" y="1659" on="1"/>
        <pt x="677" y="1659" on="0"/>
        <pt x="555" y="1704" on="0"/>
        <pt x="472" y="1783" on="0"/>
        <pt x="429" y="1891" on="0"/>
        <pt x="429" y="1954" on="1"/>
        <pt x="429" y="1964" on="0"/>
        <pt x="429" y="1983" on="0"/>
        <pt x="431" y="1994" on="1"/>
        <pt x="515" y="1994" on="1"/>
        <pt x="513" y="1982" on="0"/>
        <pt x="516" y="1965" on="1"/>
        <pt x="519" y="1935" on="0"/>
        <pt x="546" y="1870" on="0"/>
        <pt x="603" y="1817" on="0"/>
        <pt x="692" y="1782" on="0"/>
        <pt x="757" y="1782" on="1"/>
        <pt x="821" y="1782" on="0"/>
        <pt x="908" y="1817" on="0"/>
        <pt x="963" y="1871" on="0"/>
        <pt x="988" y="1936" on="0"/>
        <pt x="990" y="1966" on="1"/>
        <pt x="992" y="1975" on="0"/>
        <pt x="992" y="1989" on="0"/>
        <pt x="992" y="1994" on="1"/>
        <pt x="1073" y="1994" on="1"/>
        <pt x="1074" y="1983" on="0"/>
        <pt x="1075" y="1965" on="0"/>
        <pt x="1075" y="1955" on="1"/>
        <pt x="1075" y="1892" on="0"/>
        <pt x="1031" y="1783" on="0"/>
        <pt x="948" y="1704" on="0"/>
        <pt x="830" y="1659" on="0"/>
      </contour>
      <contour>
        <pt x="734" y="-23" on="1"/>
        <pt x="581" y="-26" on="0"/>
        <pt x="342" y="86" on="0"/>
        <pt x="178" y="291" on="0"/>
        <pt x="92" y="577" on="0"/>
        <pt x="92" y="749" on="1"/>
        <pt x="92" y="870" on="0"/>
        <pt x="140" y="1081" on="0"/>
        <pt x="229" y="1256" on="0"/>
        <pt x="352" y="1393" on="0"/>
        <pt x="503" y="1488" on="0"/>
        <pt x="676" y="1538" on="0"/>
        <pt x="770" y="1538" on="1"/>
        <pt x="923" y="1538" on="0"/>
        <pt x="1160" y="1428" on="0"/>
        <pt x="1322" y="1228" on="0"/>
        <pt x="1406" y="947" on="0"/>
        <pt x="1406" y="775" on="1"/>
        <pt x="1406" y="594" on="0"/>
        <pt x="1301" y="301" on="0"/>
        <pt x="1119" y="94" on="0"/>
        <pt x="874" y="-20" on="0"/>
      </contour>
      <contour>
        <pt x="747" y="65" on="1"/>
        <pt x="855" y="65" on="0"/>
        <pt x="1037" y="155" on="0"/>
        <pt x="1169" y="334" on="0"/>
        <pt x="1242" y="599" on="0"/>
        <pt x="1242" y="774" on="1"/>
        <pt x="1242" y="921" on="0"/>
        <pt x="1177" y="1169" on="0"/>
        <pt x="1053" y="1350" on="0"/>
        <pt x="871" y="1451" on="0"/>
        <pt x="753" y="1451" on="1"/>
        <pt x="643" y="1451" on="0"/>
        <pt x="460" y="1363" on="0"/>
        <pt x="328" y="1188" on="0"/>
        <pt x="255" y="925" on="0"/>
        <pt x="255" y="750" on="1"/>
        <pt x="255" y="604" on="0"/>
        <pt x="320" y="354" on="0"/>
        <pt x="445" y="170" on="0"/>
        <pt x="628" y="65" on="0"/>
      </contour>
    </TTGlyph>
    <TTGlyph name="Ocircumflex" xMin="92" yMin="-26" xMax="1406" yMax="2014">
      <contour>
        <pt x="734" y="-23" on="1"/>
        <pt x="581" y="-26" on="0"/>
        <pt x="342" y="86" on="0"/>
        <pt x="178" y="291" on="0"/>
        <pt x="92" y="577" on="0"/>
        <pt x="92" y="749" on="1"/>
        <pt x="92" y="870" on="0"/>
        <pt x="140" y="1081" on="0"/>
        <pt x="229" y="1256" on="0"/>
        <pt x="352" y="1393" on="0"/>
        <pt x="503" y="1488" on="0"/>
        <pt x="676" y="1538" on="0"/>
        <pt x="770" y="1538" on="1"/>
        <pt x="923" y="1538" on="0"/>
        <pt x="1160" y="1428" on="0"/>
        <pt x="1322" y="1228" on="0"/>
        <pt x="1406" y="947" on="0"/>
        <pt x="1406" y="775" on="1"/>
        <pt x="1406" y="594" on="0"/>
        <pt x="1301" y="301" on="0"/>
        <pt x="1119" y="94" on="0"/>
        <pt x="874" y="-20" on="0"/>
      </contour>
      <contour>
        <pt x="747" y="65" on="1"/>
        <pt x="855" y="65" on="0"/>
        <pt x="1037" y="155" on="0"/>
        <pt x="1169" y="334" on="0"/>
        <pt x="1242" y="599" on="0"/>
        <pt x="1242" y="774" on="1"/>
        <pt x="1242" y="921" on="0"/>
        <pt x="1177" y="1169" on="0"/>
        <pt x="1053" y="1350" on="0"/>
        <pt x="871" y="1451" on="0"/>
        <pt x="753" y="1451" on="1"/>
        <pt x="643" y="1451" on="0"/>
        <pt x="460" y="1363" on="0"/>
        <pt x="328" y="1188" on="0"/>
        <pt x="255" y="925" on="0"/>
        <pt x="255" y="750" on="1"/>
        <pt x="255" y="604" on="0"/>
        <pt x="320" y="354" on="0"/>
        <pt x="445" y="170" on="0"/>
        <pt x="628" y="65" on="0"/>
      </contour>
      <contour>
        <pt x="420" y="1718" on="1"/>
        <pt x="679" y="2014" on="1"/>
        <pt x="823" y="2014" on="1"/>
        <pt x="1085" y="1720" on="1"/>
        <pt x="1017" y="1681" on="1"/>
        <pt x="752" y="1904" on="1"/>
        <pt x="482" y="1681" on="1"/>
      </contour>
    </TTGlyph>
    <TTGlyph name="Odieresis" xMin="92" yMin="-26" xMax="1406" yMax="1951">
      <contour>
        <pt x="987" y="1716" on="1"/>
        <pt x="964" y="1716" on="0"/>
        <pt x="929" y="1733" on="0"/>
        <pt x="905" y="1763" on="0"/>
        <pt x="892" y="1803" on="0"/>
        <pt x="892" y="1825" on="1"/>
        <pt x="892" y="1848" on="0"/>
        <pt x="906" y="1893" on="0"/>
        <pt x="933" y="1929" on="0"/>
        <pt x="974" y="1951" on="0"/>
        <pt x="1002" y="1951" on="1"/>
        <pt x="1003" y="1951" on="1"/>
        <pt x="1027" y="1951" on="0"/>
        <pt x="1064" y="1931" on="0"/>
        <pt x="1088" y="1900" on="0"/>
        <pt x="1101" y="1860" on="0"/>
        <pt x="1101" y="1841" on="1"/>
        <pt x="1101" y="1816" on="0"/>
        <pt x="1087" y="1771" on="0"/>
        <pt x="1059" y="1736" on="0"/>
        <pt x="1017" y="1716" on="0"/>
        <pt x="988" y="1716" on="1"/>
      </contour>
      <contour>
        <pt x="504" y="1716" on="1"/>
        <pt x="482" y="1716" on="0"/>
        <pt x="447" y="1733" on="0"/>
        <pt x="423" y="1763" on="0"/>
        <pt x="410" y="1803" on="0"/>
        <pt x="410" y="1825" on="1"/>
        <pt x="410" y="1848" on="0"/>
        <pt x="423" y="1893" on="0"/>
        <pt x="450" y="1929" on="0"/>
        <pt x="491" y="1951" on="0"/>
        <pt x="519" y="1951" on="1"/>
        <pt x="520" y="1951" on="1"/>
        <pt x="544" y="1951" on="0"/>
        <pt x="581" y="1931" on="0"/>
        <pt x="605" y="1900" on="0"/>
        <pt x="618" y="1860" on="0"/>
        <pt x="618" y="1841" on="1"/>
        <pt x="618" y="1816" on="0"/>
        <pt x="604" y="1771" on="0"/>
        <pt x="576" y="1736" on="0"/>
        <pt x="534" y="1716" on="0"/>
        <pt x="505" y="1716" on="1"/>
      </contour>
      <contour>
        <pt x="734" y="-23" on="1"/>
        <pt x="581" y="-26" on="0"/>
        <pt x="342" y="86" on="0"/>
        <pt x="178" y="291" on="0"/>
        <pt x="92" y="577" on="0"/>
        <pt x="92" y="749" on="1"/>
        <pt x="92" y="870" on="0"/>
        <pt x="140" y="1081" on="0"/>
        <pt x="229" y="1256" on="0"/>
        <pt x="352" y="1393" on="0"/>
        <pt x="503" y="1488" on="0"/>
        <pt x="676" y="1538" on="0"/>
        <pt x="770" y="1538" on="1"/>
        <pt x="923" y="1538" on="0"/>
        <pt x="1160" y="1428" on="0"/>
        <pt x="1322" y="1228" on="0"/>
        <pt x="1406" y="947" on="0"/>
        <pt x="1406" y="775" on="1"/>
        <pt x="1406" y="594" on="0"/>
        <pt x="1301" y="301" on="0"/>
        <pt x="1119" y="94" on="0"/>
        <pt x="874" y="-20" on="0"/>
      </contour>
      <contour>
        <pt x="747" y="65" on="1"/>
        <pt x="855" y="65" on="0"/>
        <pt x="1037" y="155" on="0"/>
        <pt x="1169" y="334" on="0"/>
        <pt x="1242" y="599" on="0"/>
        <pt x="1242" y="774" on="1"/>
        <pt x="1242" y="921" on="0"/>
        <pt x="1177" y="1169" on="0"/>
        <pt x="1053" y="1350" on="0"/>
        <pt x="871" y="1451" on="0"/>
        <pt x="753" y="1451" on="1"/>
        <pt x="643" y="1451" on="0"/>
        <pt x="460" y="1363" on="0"/>
        <pt x="328" y="1188" on="0"/>
        <pt x="255" y="925" on="0"/>
        <pt x="255" y="750" on="1"/>
        <pt x="255" y="604" on="0"/>
        <pt x="320" y="354" on="0"/>
        <pt x="445" y="170" on="0"/>
        <pt x="628" y="65" on="0"/>
      </contour>
    </TTGlyph>
    <TTGlyph name="Ograve" xMin="92" yMin="-26" xMax="1406" yMax="2007">
      <contour>
        <pt x="865" y="1651" on="1"/>
        <pt x="841" y="1662" on="0"/>
        <pt x="774" y="1697" on="0"/>
        <pt x="698" y="1740" on="0"/>
        <pt x="619" y="1788" on="0"/>
        <pt x="547" y="1838" on="0"/>
        <pt x="488" y="1887" on="0"/>
        <pt x="470" y="1908" on="1"/>
        <pt x="572" y="2007" on="1"/>
        <pt x="573" y="2007" on="1"/>
        <pt x="914" y="1699" on="1"/>
        <pt x="866" y="1651" on="1"/>
        <pt x="865" y="1651" on="1"/>
      </contour>
      <contour>
        <pt x="734" y="-23" on="1"/>
        <pt x="581" y="-26" on="0"/>
        <pt x="342" y="86" on="0"/>
        <pt x="178" y="291" on="0"/>
        <pt x="92" y="577" on="0"/>
        <pt x="92" y="749" on="1"/>
        <pt x="92" y="870" on="0"/>
        <pt x="140" y="1081" on="0"/>
        <pt x="229" y="1256" on="0"/>
        <pt x="352" y="1393" on="0"/>
        <pt x="503" y="1488" on="0"/>
        <pt x="676" y="1538" on="0"/>
        <pt x="770" y="1538" on="1"/>
        <pt x="923" y="1538" on="0"/>
        <pt x="1160" y="1428" on="0"/>
        <pt x="1322" y="1228" on="0"/>
        <pt x="1406" y="947" on="0"/>
        <pt x="1406" y="775" on="1"/>
        <pt x="1406" y="594" on="0"/>
        <pt x="1301" y="301" on="0"/>
        <pt x="1119" y="94" on="0"/>
        <pt x="874" y="-20" on="0"/>
      </contour>
      <contour>
        <pt x="747" y="65" on="1"/>
        <pt x="855" y="65" on="0"/>
        <pt x="1037" y="155" on="0"/>
        <pt x="1169" y="334" on="0"/>
        <pt x="1242" y="599" on="0"/>
        <pt x="1242" y="774" on="1"/>
        <pt x="1242" y="921" on="0"/>
        <pt x="1177" y="1169" on="0"/>
        <pt x="1053" y="1350" on="0"/>
        <pt x="871" y="1451" on="0"/>
        <pt x="753" y="1451" on="1"/>
        <pt x="643" y="1451" on="0"/>
        <pt x="460" y="1363" on="0"/>
        <pt x="328" y="1188" on="0"/>
        <pt x="255" y="925" on="0"/>
        <pt x="255" y="750" on="1"/>
        <pt x="255" y="604" on="0"/>
        <pt x="320" y="354" on="0"/>
        <pt x="445" y="170" on="0"/>
        <pt x="628" y="65" on="0"/>
      </contour>
    </TTGlyph>
    <TTGlyph name="Ohungarumlaut" xMin="92" yMin="-26" xMax="1406" yMax="2007">
      <contour>
        <pt x="734" y="-23" on="1"/>
        <pt x="581" y="-26" on="0"/>
        <pt x="342" y="86" on="0"/>
        <pt x="178" y="291" on="0"/>
        <pt x="92" y="577" on="0"/>
        <pt x="92" y="749" on="1"/>
        <pt x="92" y="870" on="0"/>
        <pt x="140" y="1081" on="0"/>
        <pt x="229" y="1256" on="0"/>
        <pt x="352" y="1393" on="0"/>
        <pt x="503" y="1488" on="0"/>
        <pt x="676" y="1538" on="0"/>
        <pt x="770" y="1538" on="1"/>
        <pt x="923" y="1538" on="0"/>
        <pt x="1160" y="1428" on="0"/>
        <pt x="1322" y="1228" on="0"/>
        <pt x="1406" y="947" on="0"/>
        <pt x="1406" y="775" on="1"/>
        <pt x="1406" y="594" on="0"/>
        <pt x="1301" y="301" on="0"/>
        <pt x="1119" y="94" on="0"/>
        <pt x="874" y="-20" on="0"/>
      </contour>
      <contour>
        <pt x="747" y="65" on="1"/>
        <pt x="855" y="65" on="0"/>
        <pt x="1037" y="155" on="0"/>
        <pt x="1169" y="334" on="0"/>
        <pt x="1242" y="599" on="0"/>
        <pt x="1242" y="774" on="1"/>
        <pt x="1242" y="921" on="0"/>
        <pt x="1177" y="1169" on="0"/>
        <pt x="1053" y="1350" on="0"/>
        <pt x="871" y="1451" on="0"/>
        <pt x="753" y="1451" on="1"/>
        <pt x="643" y="1451" on="0"/>
        <pt x="460" y="1363" on="0"/>
        <pt x="328" y="1188" on="0"/>
        <pt x="255" y="925" on="0"/>
        <pt x="255" y="750" on="1"/>
        <pt x="255" y="604" on="0"/>
        <pt x="320" y="354" on="0"/>
        <pt x="445" y="170" on="0"/>
        <pt x="628" y="65" on="0"/>
      </contour>
      <contour>
        <pt x="878" y="1719" on="1"/>
        <pt x="1169" y="2007" on="1"/>
        <pt x="1263" y="1915" on="1"/>
        <pt x="1231" y="1881" on="0"/>
        <pt x="1151" y="1810" on="0"/>
        <pt x="1065" y="1744" on="0"/>
        <pt x="979" y="1685" on="0"/>
        <pt x="942" y="1662" on="1"/>
      </contour>
      <contour>
        <pt x="394" y="1719" on="1"/>
        <pt x="672" y="2007" on="1"/>
        <pt x="776" y="1916" on="1"/>
        <pt x="740" y="1879" on="0"/>
        <pt x="659" y="1807" on="0"/>
        <pt x="575" y="1742" on="0"/>
        <pt x="494" y="1685" on="0"/>
        <pt x="458" y="1662" on="1"/>
      </contour>
    </TTGlyph>
    <TTGlyph name="Omacron" xMin="92" yMin="-26" xMax="1406" yMax="1876">
      <contour>
        <pt x="494" y="1876" on="1"/>
        <pt x="1025" y="1876" on="1"/>
        <pt x="1025" y="1763" on="1"/>
        <pt x="494" y="1763" on="1"/>
      </contour>
      <contour>
        <pt x="734" y="-23" on="1"/>
        <pt x="581" y="-26" on="0"/>
        <pt x="342" y="86" on="0"/>
        <pt x="178" y="291" on="0"/>
        <pt x="92" y="577" on="0"/>
        <pt x="92" y="749" on="1"/>
        <pt x="92" y="870" on="0"/>
        <pt x="140" y="1081" on="0"/>
        <pt x="229" y="1256" on="0"/>
        <pt x="352" y="1393" on="0"/>
        <pt x="503" y="1488" on="0"/>
        <pt x="676" y="1538" on="0"/>
        <pt x="770" y="1538" on="1"/>
        <pt x="923" y="1538" on="0"/>
        <pt x="1160" y="1428" on="0"/>
        <pt x="1322" y="1228" on="0"/>
        <pt x="1406" y="947" on="0"/>
        <pt x="1406" y="775" on="1"/>
        <pt x="1406" y="594" on="0"/>
        <pt x="1301" y="301" on="0"/>
        <pt x="1119" y="94" on="0"/>
        <pt x="874" y="-20" on="0"/>
      </contour>
      <contour>
        <pt x="747" y="65" on="1"/>
        <pt x="855" y="65" on="0"/>
        <pt x="1037" y="155" on="0"/>
        <pt x="1169" y="334" on="0"/>
        <pt x="1242" y="599" on="0"/>
        <pt x="1242" y="774" on="1"/>
        <pt x="1242" y="921" on="0"/>
        <pt x="1177" y="1169" on="0"/>
        <pt x="1053" y="1350" on="0"/>
        <pt x="871" y="1451" on="0"/>
        <pt x="753" y="1451" on="1"/>
        <pt x="643" y="1451" on="0"/>
        <pt x="460" y="1363" on="0"/>
        <pt x="328" y="1188" on="0"/>
        <pt x="255" y="925" on="0"/>
        <pt x="255" y="750" on="1"/>
        <pt x="255" y="604" on="0"/>
        <pt x="320" y="354" on="0"/>
        <pt x="445" y="170" on="0"/>
        <pt x="628" y="65" on="0"/>
      </contour>
    </TTGlyph>
    <TTGlyph name="Omega" xMin="130" yMin="0" xMax="1808" yMax="1546">
      <contour>
        <pt x="130" y="390" on="1"/>
        <pt x="226" y="390" on="1"/>
        <pt x="287" y="122" on="1"/>
        <pt x="720" y="114" on="1"/>
        <pt x="675" y="138" on="0"/>
        <pt x="575" y="228" on="0"/>
        <pt x="476" y="347" on="0"/>
        <pt x="386" y="491" on="0"/>
        <pt x="319" y="647" on="0"/>
        <pt x="279" y="810" on="0"/>
        <pt x="280" y="890" on="1"/>
        <pt x="282" y="1007" on="0"/>
        <pt x="337" y="1196" on="0"/>
        <pt x="432" y="1341" on="0"/>
        <pt x="562" y="1446" on="0"/>
        <pt x="716" y="1514" on="0"/>
        <pt x="887" y="1546" on="0"/>
        <pt x="976" y="1546" on="1"/>
        <pt x="1130" y="1546" on="0"/>
        <pt x="1377" y="1462" on="0"/>
        <pt x="1548" y="1298" on="0"/>
        <pt x="1638" y="1057" on="0"/>
        <pt x="1636" y="901" on="1"/>
        <pt x="1635" y="828" on="0"/>
        <pt x="1599" y="672" on="0"/>
        <pt x="1539" y="518" on="0"/>
        <pt x="1458" y="373" on="0"/>
        <pt x="1365" y="248" on="0"/>
        <pt x="1266" y="147" on="0"/>
        <pt x="1217" y="115" on="1"/>
        <pt x="1639" y="122" on="1"/>
        <pt x="1709" y="390" on="1"/>
        <pt x="1808" y="390" on="1"/>
        <pt x="1752" y="0" on="1"/>
        <pt x="1087" y="0" on="1"/>
        <pt x="1087" y="109" on="1"/>
        <pt x="1165" y="155" on="0"/>
        <pt x="1309" y="316" on="0"/>
        <pt x="1420" y="522" on="0"/>
        <pt x="1487" y="761" on="0"/>
        <pt x="1487" y="885" on="1"/>
        <pt x="1487" y="1028" on="0"/>
        <pt x="1416" y="1240" on="0"/>
        <pt x="1284" y="1381" on="0"/>
        <pt x="1094" y="1450" on="0"/>
        <pt x="975" y="1450" on="1"/>
        <pt x="854" y="1450" on="0"/>
        <pt x="652" y="1386" on="0"/>
        <pt x="507" y="1245" on="0"/>
        <pt x="427" y="1021" on="0"/>
        <pt x="427" y="861" on="1"/>
        <pt x="427" y="779" on="0"/>
        <pt x="466" y="617" on="0"/>
        <pt x="532" y="464" on="0"/>
        <pt x="618" y="327" on="0"/>
        <pt x="712" y="215" on="0"/>
        <pt x="809" y="131" on="0"/>
        <pt x="852" y="109" on="1"/>
        <pt x="852" y="0" on="1"/>
        <pt x="170" y="0" on="1"/>
      </contour>
    </TTGlyph>
    <TTGlyph name="Omegagreek" xMin="130" yMin="0" xMax="1808" yMax="1546">
      <contour>
        <pt x="130" y="390" on="1"/>
        <pt x="226" y="390" on="1"/>
        <pt x="287" y="122" on="1"/>
        <pt x="720" y="114" on="1"/>
        <pt x="675" y="138" on="0"/>
        <pt x="575" y="228" on="0"/>
        <pt x="476" y="347" on="0"/>
        <pt x="386" y="491" on="0"/>
        <pt x="319" y="647" on="0"/>
        <pt x="279" y="810" on="0"/>
        <pt x="280" y="890" on="1"/>
        <pt x="282" y="1007" on="0"/>
        <pt x="337" y="1196" on="0"/>
        <pt x="432" y="1341" on="0"/>
        <pt x="562" y="1446" on="0"/>
        <pt x="716" y="1514" on="0"/>
        <pt x="887" y="1546" on="0"/>
        <pt x="976" y="1546" on="1"/>
        <pt x="1130" y="1546" on="0"/>
        <pt x="1377" y="1462" on="0"/>
        <pt x="1548" y="1298" on="0"/>
        <pt x="1638" y="1057" on="0"/>
        <pt x="1636" y="901" on="1"/>
        <pt x="1635" y="828" on="0"/>
        <pt x="1599" y="672" on="0"/>
        <pt x="1539" y="518" on="0"/>
        <pt x="1458" y="373" on="0"/>
        <pt x="1365" y="248" on="0"/>
        <pt x="1266" y="147" on="0"/>
        <pt x="1217" y="115" on="1"/>
        <pt x="1639" y="122" on="1"/>
        <pt x="1709" y="390" on="1"/>
        <pt x="1808" y="390" on="1"/>
        <pt x="1752" y="0" on="1"/>
        <pt x="1087" y="0" on="1"/>
        <pt x="1087" y="109" on="1"/>
        <pt x="1165" y="155" on="0"/>
        <pt x="1309" y="316" on="0"/>
        <pt x="1420" y="522" on="0"/>
        <pt x="1487" y="761" on="0"/>
        <pt x="1487" y="885" on="1"/>
        <pt x="1487" y="1028" on="0"/>
        <pt x="1416" y="1240" on="0"/>
        <pt x="1284" y="1381" on="0"/>
        <pt x="1094" y="1450" on="0"/>
        <pt x="975" y="1450" on="1"/>
        <pt x="854" y="1450" on="0"/>
        <pt x="652" y="1386" on="0"/>
        <pt x="507" y="1245" on="0"/>
        <pt x="427" y="1021" on="0"/>
        <pt x="427" y="861" on="1"/>
        <pt x="427" y="779" on="0"/>
        <pt x="466" y="617" on="0"/>
        <pt x="532" y="464" on="0"/>
        <pt x="618" y="327" on="0"/>
        <pt x="712" y="215" on="0"/>
        <pt x="809" y="131" on="0"/>
        <pt x="852" y="109" on="1"/>
        <pt x="852" y="0" on="1"/>
        <pt x="170" y="0" on="1"/>
      </contour>
    </TTGlyph>
    <TTGlyph name="Oslash" xMin="98" yMin="-199" xMax="1412" yMax="1703">
      <contour>
        <pt x="441" y="43" on="1"/>
        <pt x="358" y="86" on="0"/>
        <pt x="230" y="225" on="0"/>
        <pt x="143" y="406" on="0"/>
        <pt x="98" y="625" on="0"/>
        <pt x="98" y="749" on="1"/>
        <pt x="98" y="870" on="0"/>
        <pt x="146" y="1081" on="0"/>
        <pt x="235" y="1256" on="0"/>
        <pt x="358" y="1393" on="0"/>
        <pt x="509" y="1488" on="0"/>
        <pt x="682" y="1538" on="0"/>
        <pt x="776" y="1538" on="1"/>
        <pt x="839" y="1538" on="0"/>
        <pt x="951" y="1519" on="0"/>
        <pt x="1002" y="1501" on="1"/>
        <pt x="1082" y="1703" on="1"/>
        <pt x="1153" y="1677" on="1"/>
        <pt x="1070" y="1472" on="1"/>
        <pt x="1153" y="1430" on="0"/>
        <pt x="1281" y="1295" on="0"/>
        <pt x="1368" y="1117" on="0"/>
        <pt x="1412" y="899" on="0"/>
        <pt x="1412" y="775" on="1"/>
        <pt x="1412" y="594" on="0"/>
        <pt x="1307" y="301" on="0"/>
        <pt x="1125" y="94" on="0"/>
        <pt x="880" y="-20" on="0"/>
        <pt x="740" y="-23" on="1"/>
        <pt x="613" y="-24" on="0"/>
        <pt x="507" y="14" on="1"/>
        <pt x="417" y="-199" on="1"/>
        <pt x="347" y="-176" on="1"/>
      </contour>
      <contour>
        <pt x="960" y="1404" on="1"/>
        <pt x="915" y="1427" on="0"/>
        <pt x="816" y="1451" on="0"/>
        <pt x="759" y="1451" on="1"/>
        <pt x="649" y="1451" on="0"/>
        <pt x="466" y="1363" on="0"/>
        <pt x="334" y="1188" on="0"/>
        <pt x="261" y="925" on="0"/>
        <pt x="261" y="750" on="1"/>
        <pt x="261" y="652" on="0"/>
        <pt x="290" y="474" on="0"/>
        <pt x="347" y="321" on="0"/>
        <pt x="432" y="197" on="0"/>
        <pt x="487" y="154" on="1"/>
      </contour>
      <contour>
        <pt x="550" y="113" on="1"/>
        <pt x="595" y="90" on="0"/>
        <pt x="696" y="65" on="0"/>
        <pt x="753" y="65" on="1"/>
        <pt x="861" y="65" on="0"/>
        <pt x="1043" y="155" on="0"/>
        <pt x="1175" y="334" on="0"/>
        <pt x="1248" y="599" on="0"/>
        <pt x="1248" y="774" on="1"/>
        <pt x="1248" y="872" on="0"/>
        <pt x="1219" y="1048" on="0"/>
        <pt x="1163" y="1199" on="0"/>
        <pt x="1079" y="1320" on="0"/>
        <pt x="1025" y="1363" on="1"/>
      </contour>
    </TTGlyph>
    <TTGlyph name="Otilde" xMin="92" yMin="-26" xMax="1406" yMax="2001">
      <contour>
        <pt x="335" y="1796" on="1"/>
        <pt x="343" y="1829" on="0"/>
        <pt x="390" y="1902" on="0"/>
        <pt x="462" y="1962" on="0"/>
        <pt x="554" y="2001" on="0"/>
        <pt x="607" y="2001" on="1"/>
        <pt x="648" y="2001" on="0"/>
        <pt x="712" y="1975" on="0"/>
        <pt x="764" y="1935" on="0"/>
        <pt x="810" y="1890" on="0"/>
        <pt x="855" y="1850" on="0"/>
        <pt x="904" y="1824" on="0"/>
        <pt x="934" y="1824" on="1"/>
        <pt x="971" y="1824" on="0"/>
        <pt x="1025" y="1854" on="0"/>
        <pt x="1064" y="1897" on="0"/>
        <pt x="1089" y="1943" on="0"/>
        <pt x="1096" y="1959" on="1"/>
        <pt x="1175" y="1918" on="1"/>
        <pt x="1164" y="1879" on="0"/>
        <pt x="1119" y="1805" on="0"/>
        <pt x="1055" y="1748" on="0"/>
        <pt x="972" y="1713" on="0"/>
        <pt x="923" y="1713" on="1"/>
        <pt x="882" y="1713" on="0"/>
        <pt x="819" y="1739" on="0"/>
        <pt x="765" y="1779" on="0"/>
        <pt x="717" y="1824" on="0"/>
        <pt x="669" y="1864" on="0"/>
        <pt x="616" y="1890" on="0"/>
        <pt x="584" y="1890" on="1"/>
        <pt x="547" y="1890" on="0"/>
        <pt x="490" y="1860" on="0"/>
        <pt x="448" y="1817" on="0"/>
        <pt x="421" y="1771" on="0"/>
        <pt x="414" y="1755" on="1"/>
      </contour>
      <contour>
        <pt x="734" y="-23" on="1"/>
        <pt x="581" y="-26" on="0"/>
        <pt x="342" y="86" on="0"/>
        <pt x="178" y="291" on="0"/>
        <pt x="92" y="577" on="0"/>
        <pt x="92" y="749" on="1"/>
        <pt x="92" y="870" on="0"/>
        <pt x="140" y="1081" on="0"/>
        <pt x="229" y="1256" on="0"/>
        <pt x="352" y="1393" on="0"/>
        <pt x="503" y="1488" on="0"/>
        <pt x="676" y="1538" on="0"/>
        <pt x="770" y="1538" on="1"/>
        <pt x="923" y="1538" on="0"/>
        <pt x="1160" y="1428" on="0"/>
        <pt x="1322" y="1228" on="0"/>
        <pt x="1406" y="947" on="0"/>
        <pt x="1406" y="775" on="1"/>
        <pt x="1406" y="594" on="0"/>
        <pt x="1301" y="301" on="0"/>
        <pt x="1119" y="94" on="0"/>
        <pt x="874" y="-20" on="0"/>
      </contour>
      <contour>
        <pt x="747" y="65" on="1"/>
        <pt x="855" y="65" on="0"/>
        <pt x="1037" y="155" on="0"/>
        <pt x="1169" y="334" on="0"/>
        <pt x="1242" y="599" on="0"/>
        <pt x="1242" y="774" on="1"/>
        <pt x="1242" y="921" on="0"/>
        <pt x="1177" y="1169" on="0"/>
        <pt x="1053" y="1350" on="0"/>
        <pt x="871" y="1451" on="0"/>
        <pt x="753" y="1451" on="1"/>
        <pt x="643" y="1451" on="0"/>
        <pt x="460" y="1363" on="0"/>
        <pt x="328" y="1188" on="0"/>
        <pt x="255" y="925" on="0"/>
        <pt x="255" y="750" on="1"/>
        <pt x="255" y="604" on="0"/>
        <pt x="320" y="354" on="0"/>
        <pt x="445" y="170" on="0"/>
        <pt x="628" y="65" on="0"/>
      </contour>
    </TTGlyph>
    <TTGlyph name="P" xMin="115" yMin="0" xMax="1252" yMax="1537">
      <contour>
        <pt x="115" y="82" on="1"/>
        <pt x="292" y="96" on="1"/>
        <pt x="292" y="1420" on="1"/>
        <pt x="127" y="1441" on="1"/>
        <pt x="127" y="1522" on="1"/>
        <pt x="367" y="1522" on="1"/>
        <pt x="418" y="1522" on="0"/>
        <pt x="492" y="1527" on="0"/>
        <pt x="569" y="1532" on="0"/>
        <pt x="660" y="1537" on="0"/>
        <pt x="728" y="1537" on="1"/>
        <pt x="878" y="1537" on="0"/>
        <pt x="1079" y="1478" on="0"/>
        <pt x="1200" y="1367" on="0"/>
        <pt x="1252" y="1208" on="0"/>
        <pt x="1252" y="1107" on="1"/>
        <pt x="1252" y="984" on="0"/>
        <pt x="1160" y="790" on="0"/>
        <pt x="1003" y="656" on="0"/>
        <pt x="791" y="585" on="0"/>
        <pt x="671" y="585" on="1"/>
        <pt x="640" y="585" on="0"/>
        <pt x="565" y="587" on="0"/>
        <pt x="498" y="589" on="0"/>
        <pt x="446" y="592" on="0"/>
        <pt x="439" y="594" on="1"/>
        <pt x="439" y="96" on="1"/>
        <pt x="729" y="82" on="1"/>
        <pt x="729" y="0" on="1"/>
        <pt x="115" y="0" on="1"/>
      </contour>
      <contour>
        <pt x="439" y="691" on="1"/>
        <pt x="468" y="686" on="0"/>
        <pt x="596" y="682" on="0"/>
        <pt x="674" y="682" on="1"/>
        <pt x="756" y="682" on="0"/>
        <pt x="908" y="723" on="0"/>
        <pt x="1025" y="821" on="0"/>
        <pt x="1096" y="985" on="0"/>
        <pt x="1096" y="1107" on="1"/>
        <pt x="1096" y="1200" on="0"/>
        <pt x="1046" y="1329" on="0"/>
        <pt x="942" y="1408" on="0"/>
        <pt x="785" y="1443" on="0"/>
        <pt x="678" y="1443" on="1"/>
        <pt x="603" y="1443" on="0"/>
        <pt x="484" y="1430" on="0"/>
        <pt x="439" y="1430" on="1"/>
      </contour>
    </TTGlyph>
    <TTGlyph name="Q" xMin="78" yMin="-348" xMax="1490" yMax="1538">
      <contour>
        <pt x="720" y="-23" on="1"/>
        <pt x="567" y="-26" on="0"/>
        <pt x="328" y="86" on="0"/>
        <pt x="164" y="291" on="0"/>
        <pt x="78" y="577" on="0"/>
        <pt x="78" y="749" on="1"/>
        <pt x="78" y="870" on="0"/>
        <pt x="126" y="1081" on="0"/>
        <pt x="215" y="1256" on="0"/>
        <pt x="338" y="1393" on="0"/>
        <pt x="489" y="1488" on="0"/>
        <pt x="662" y="1538" on="0"/>
        <pt x="756" y="1538" on="1"/>
        <pt x="909" y="1538" on="0"/>
        <pt x="1146" y="1428" on="0"/>
        <pt x="1308" y="1228" on="0"/>
        <pt x="1392" y="947" on="0"/>
        <pt x="1392" y="775" on="1"/>
        <pt x="1392" y="623" on="0"/>
        <pt x="1317" y="368" on="0"/>
        <pt x="1184" y="170" on="0"/>
        <pt x="1001" y="35" on="0"/>
        <pt x="893" y="3" on="1"/>
        <pt x="924" y="-59" on="0"/>
        <pt x="1021" y="-140" on="0"/>
        <pt x="1141" y="-188" on="0"/>
        <pt x="1279" y="-207" on="0"/>
        <pt x="1350" y="-207" on="1"/>
        <pt x="1361" y="-207" on="1"/>
        <pt x="1402" y="-206" on="0"/>
        <pt x="1468" y="-195" on="0"/>
        <pt x="1490" y="-182" on="1"/>
        <pt x="1490" y="-305" on="1"/>
        <pt x="1473" y="-319" on="0"/>
        <pt x="1385" y="-347" on="0"/>
        <pt x="1306" y="-348" on="1"/>
        <pt x="1302" y="-348" on="1"/>
        <pt x="1223" y="-348" on="0"/>
        <pt x="1066" y="-307" on="0"/>
        <pt x="932" y="-224" on="0"/>
        <pt x="831" y="-99" on="0"/>
        <pt x="809" y="-15" on="1"/>
        <pt x="787" y="-19" on="0"/>
        <pt x="743" y="-22" on="0"/>
      </contour>
      <contour>
        <pt x="733" y="65" on="1"/>
        <pt x="841" y="65" on="0"/>
        <pt x="1023" y="155" on="0"/>
        <pt x="1155" y="334" on="0"/>
        <pt x="1228" y="599" on="0"/>
        <pt x="1228" y="774" on="1"/>
        <pt x="1228" y="921" on="0"/>
        <pt x="1163" y="1169" on="0"/>
        <pt x="1039" y="1350" on="0"/>
        <pt x="857" y="1451" on="0"/>
        <pt x="739" y="1451" on="1"/>
        <pt x="629" y="1451" on="0"/>
        <pt x="446" y="1363" on="0"/>
        <pt x="314" y="1188" on="0"/>
        <pt x="241" y="925" on="0"/>
        <pt x="241" y="750" on="1"/>
        <pt x="241" y="604" on="0"/>
        <pt x="306" y="354" on="0"/>
        <pt x="431" y="170" on="0"/>
        <pt x="614" y="65" on="0"/>
      </contour>
    </TTGlyph>
    <TTGlyph name="R" xMin="106" yMin="0" xMax="1410" yMax="1538">
      <contour>
        <pt x="106" y="82" on="1"/>
        <pt x="283" y="95" on="1"/>
        <pt x="283" y="1425" on="1"/>
        <pt x="117" y="1445" on="1"/>
        <pt x="117" y="1522" on="1"/>
        <pt x="360" y="1522" on="1"/>
        <pt x="442" y="1522" on="0"/>
        <pt x="598" y="1538" on="0"/>
        <pt x="672" y="1538" on="1"/>
        <pt x="822" y="1538" on="0"/>
        <pt x="1029" y="1487" on="0"/>
        <pt x="1158" y="1387" on="0"/>
        <pt x="1216" y="1236" on="0"/>
        <pt x="1216" y="1137" on="1"/>
        <pt x="1216" y="1063" on="0"/>
        <pt x="1170" y="925" on="0"/>
        <pt x="1085" y="809" on="0"/>
        <pt x="965" y="723" on="0"/>
        <pt x="891" y="702" on="1"/>
        <pt x="928" y="675" on="0"/>
        <pt x="1007" y="568" on="0"/>
        <pt x="1087" y="438" on="0"/>
        <pt x="1164" y="299" on="0"/>
        <pt x="1236" y="183" on="0"/>
        <pt x="1298" y="103" on="0"/>
        <pt x="1323" y="97" on="1"/>
        <pt x="1410" y="77" on="1"/>
        <pt x="1410" y="0" on="1"/>
        <pt x="1194" y="0" on="1"/>
        <pt x="1175" y="0" on="0"/>
        <pt x="1128" y="51" on="0"/>
        <pt x="1075" y="135" on="0"/>
        <pt x="1017" y="245" on="0"/>
        <pt x="955" y="363" on="0"/>
        <pt x="892" y="482" on="0"/>
        <pt x="830" y="583" on="0"/>
        <pt x="768" y="659" on="0"/>
        <pt x="739" y="676" on="1"/>
        <pt x="725" y="676" on="0"/>
        <pt x="674" y="676" on="0"/>
        <pt x="612" y="676" on="0"/>
        <pt x="546" y="677" on="0"/>
        <pt x="486" y="678" on="0"/>
        <pt x="440" y="678" on="0"/>
        <pt x="430" y="679" on="1"/>
        <pt x="430" y="95" on="1"/>
        <pt x="645" y="82" on="1"/>
        <pt x="645" y="0" on="1"/>
        <pt x="106" y="0" on="1"/>
      </contour>
      <contour>
        <pt x="430" y="777" on="1"/>
        <pt x="461" y="775" on="0"/>
        <pt x="547" y="774" on="0"/>
        <pt x="633" y="773" on="0"/>
        <pt x="707" y="773" on="0"/>
        <pt x="727" y="773" on="1"/>
        <pt x="796" y="773" on="0"/>
        <pt x="917" y="816" on="0"/>
        <pt x="1005" y="903" on="0"/>
        <pt x="1056" y="1034" on="0"/>
        <pt x="1056" y="1123" on="1"/>
        <pt x="1056" y="1193" on="0"/>
        <pt x="1019" y="1311" on="0"/>
        <pt x="929" y="1396" on="0"/>
        <pt x="776" y="1443" on="0"/>
        <pt x="660" y="1443" on="1"/>
        <pt x="579" y="1443" on="0"/>
        <pt x="471" y="1430" on="0"/>
        <pt x="430" y="1430" on="1"/>
      </contour>
    </TTGlyph>
    <TTGlyph name="Racute" xMin="106" yMin="0" xMax="1410" yMax="2007">
      <contour>
        <pt x="106" y="82" on="1"/>
        <pt x="283" y="95" on="1"/>
        <pt x="283" y="1425" on="1"/>
        <pt x="117" y="1445" on="1"/>
        <pt x="117" y="1522" on="1"/>
        <pt x="360" y="1522" on="1"/>
        <pt x="442" y="1522" on="0"/>
        <pt x="598" y="1538" on="0"/>
        <pt x="672" y="1538" on="1"/>
        <pt x="822" y="1538" on="0"/>
        <pt x="1029" y="1487" on="0"/>
        <pt x="1158" y="1387" on="0"/>
        <pt x="1216" y="1236" on="0"/>
        <pt x="1216" y="1137" on="1"/>
        <pt x="1216" y="1063" on="0"/>
        <pt x="1170" y="925" on="0"/>
        <pt x="1085" y="809" on="0"/>
        <pt x="965" y="723" on="0"/>
        <pt x="891" y="702" on="1"/>
        <pt x="928" y="675" on="0"/>
        <pt x="1007" y="568" on="0"/>
        <pt x="1087" y="438" on="0"/>
        <pt x="1164" y="299" on="0"/>
        <pt x="1236" y="183" on="0"/>
        <pt x="1298" y="103" on="0"/>
        <pt x="1323" y="97" on="1"/>
        <pt x="1410" y="77" on="1"/>
        <pt x="1410" y="0" on="1"/>
        <pt x="1194" y="0" on="1"/>
        <pt x="1175" y="0" on="0"/>
        <pt x="1128" y="51" on="0"/>
        <pt x="1075" y="135" on="0"/>
        <pt x="1017" y="245" on="0"/>
        <pt x="955" y="363" on="0"/>
        <pt x="892" y="482" on="0"/>
        <pt x="830" y="583" on="0"/>
        <pt x="768" y="659" on="0"/>
        <pt x="739" y="676" on="1"/>
        <pt x="725" y="676" on="0"/>
        <pt x="674" y="676" on="0"/>
        <pt x="612" y="676" on="0"/>
        <pt x="546" y="677" on="0"/>
        <pt x="486" y="678" on="0"/>
        <pt x="440" y="678" on="0"/>
        <pt x="430" y="679" on="1"/>
        <pt x="430" y="95" on="1"/>
        <pt x="645" y="82" on="1"/>
        <pt x="645" y="0" on="1"/>
        <pt x="106" y="0" on="1"/>
      </contour>
      <contour>
        <pt x="430" y="777" on="1"/>
        <pt x="461" y="775" on="0"/>
        <pt x="547" y="774" on="0"/>
        <pt x="633" y="773" on="0"/>
        <pt x="707" y="773" on="0"/>
        <pt x="727" y="773" on="1"/>
        <pt x="796" y="773" on="0"/>
        <pt x="917" y="816" on="0"/>
        <pt x="1005" y="903" on="0"/>
        <pt x="1056" y="1034" on="0"/>
        <pt x="1056" y="1123" on="1"/>
        <pt x="1056" y="1193" on="0"/>
        <pt x="1019" y="1311" on="0"/>
        <pt x="929" y="1396" on="0"/>
        <pt x="776" y="1443" on="0"/>
        <pt x="660" y="1443" on="1"/>
        <pt x="579" y="1443" on="0"/>
        <pt x="471" y="1430" on="0"/>
        <pt x="430" y="1430" on="1"/>
      </contour>
      <contour>
        <pt x="583" y="1699" on="1"/>
        <pt x="924" y="2007" on="1"/>
        <pt x="925" y="2007" on="1"/>
        <pt x="1027" y="1908" on="1"/>
        <pt x="1009" y="1887" on="0"/>
        <pt x="950" y="1838" on="0"/>
        <pt x="877" y="1788" on="0"/>
        <pt x="798" y="1740" on="0"/>
        <pt x="722" y="1697" on="0"/>
        <pt x="655" y="1662" on="0"/>
        <pt x="632" y="1651" on="1"/>
        <pt x="631" y="1651" on="1"/>
      </contour>
    </TTGlyph>
    <TTGlyph name="Rcaron" xMin="106" yMin="0" xMax="1410" yMax="2010">
      <contour>
        <pt x="399" y="1972" on="1"/>
        <pt x="467" y="2010" on="1"/>
        <pt x="717" y="1800" on="1"/>
        <pt x="973" y="2010" on="1"/>
        <pt x="1034" y="1974" on="1"/>
        <pt x="790" y="1699" on="1"/>
        <pt x="646" y="1699" on="1"/>
      </contour>
      <contour>
        <pt x="106" y="82" on="1"/>
        <pt x="283" y="95" on="1"/>
        <pt x="283" y="1425" on="1"/>
        <pt x="117" y="1445" on="1"/>
        <pt x="117" y="1522" on="1"/>
        <pt x="360" y="1522" on="1"/>
        <pt x="442" y="1522" on="0"/>
        <pt x="598" y="1538" on="0"/>
        <pt x="672" y="1538" on="1"/>
        <pt x="822" y="1538" on="0"/>
        <pt x="1029" y="1487" on="0"/>
        <pt x="1158" y="1387" on="0"/>
        <pt x="1216" y="1236" on="0"/>
        <pt x="1216" y="1137" on="1"/>
        <pt x="1216" y="1063" on="0"/>
        <pt x="1170" y="925" on="0"/>
        <pt x="1085" y="809" on="0"/>
        <pt x="965" y="723" on="0"/>
        <pt x="891" y="702" on="1"/>
        <pt x="928" y="675" on="0"/>
        <pt x="1007" y="568" on="0"/>
        <pt x="1087" y="438" on="0"/>
        <pt x="1164" y="299" on="0"/>
        <pt x="1236" y="183" on="0"/>
        <pt x="1298" y="103" on="0"/>
        <pt x="1323" y="97" on="1"/>
        <pt x="1410" y="77" on="1"/>
        <pt x="1410" y="0" on="1"/>
        <pt x="1194" y="0" on="1"/>
        <pt x="1175" y="0" on="0"/>
        <pt x="1128" y="51" on="0"/>
        <pt x="1075" y="135" on="0"/>
        <pt x="1017" y="245" on="0"/>
        <pt x="955" y="363" on="0"/>
        <pt x="892" y="482" on="0"/>
        <pt x="830" y="583" on="0"/>
        <pt x="768" y="659" on="0"/>
        <pt x="739" y="676" on="1"/>
        <pt x="725" y="676" on="0"/>
        <pt x="674" y="676" on="0"/>
        <pt x="612" y="676" on="0"/>
        <pt x="546" y="677" on="0"/>
        <pt x="486" y="678" on="0"/>
        <pt x="440" y="678" on="0"/>
        <pt x="430" y="679" on="1"/>
        <pt x="430" y="95" on="1"/>
        <pt x="645" y="82" on="1"/>
        <pt x="645" y="0" on="1"/>
        <pt x="106" y="0" on="1"/>
      </contour>
      <contour>
        <pt x="430" y="777" on="1"/>
        <pt x="461" y="775" on="0"/>
        <pt x="547" y="774" on="0"/>
        <pt x="633" y="773" on="0"/>
        <pt x="707" y="773" on="0"/>
        <pt x="727" y="773" on="1"/>
        <pt x="796" y="773" on="0"/>
        <pt x="917" y="816" on="0"/>
        <pt x="1005" y="903" on="0"/>
        <pt x="1056" y="1034" on="0"/>
        <pt x="1056" y="1123" on="1"/>
        <pt x="1056" y="1193" on="0"/>
        <pt x="1019" y="1311" on="0"/>
        <pt x="929" y="1396" on="0"/>
        <pt x="776" y="1443" on="0"/>
        <pt x="660" y="1443" on="1"/>
        <pt x="579" y="1443" on="0"/>
        <pt x="471" y="1430" on="0"/>
        <pt x="430" y="1430" on="1"/>
      </contour>
    </TTGlyph>
    <TTGlyph name="Rcommaaccent" xMin="106" yMin="-560" xMax="1410" yMax="1538">
      <contour>
        <pt x="679" y="-205" on="1"/>
        <pt x="679" y="-179" on="0"/>
        <pt x="697" y="-146" on="0"/>
        <pt x="722" y="-128" on="0"/>
        <pt x="748" y="-121" on="0"/>
        <pt x="756" y="-121" on="1"/>
        <pt x="765" y="-121" on="1"/>
        <pt x="817" y="-121" on="0"/>
        <pt x="884" y="-209" on="0"/>
        <pt x="884" y="-290" on="1"/>
        <pt x="884" y="-354" on="0"/>
        <pt x="841" y="-452" on="0"/>
        <pt x="786" y="-519" on="0"/>
        <pt x="736" y="-556" on="0"/>
        <pt x="729" y="-560" on="1"/>
        <pt x="727" y="-560" on="1"/>
        <pt x="685" y="-521" on="1"/>
        <pt x="685" y="-511" on="1"/>
        <pt x="700" y="-504" on="0"/>
        <pt x="728" y="-472" on="0"/>
        <pt x="749" y="-429" on="0"/>
        <pt x="761" y="-379" on="0"/>
        <pt x="761" y="-353" on="1"/>
        <pt x="761" y="-319" on="0"/>
        <pt x="737" y="-287" on="0"/>
        <pt x="721" y="-276" on="1"/>
        <pt x="705" y="-265" on="0"/>
        <pt x="679" y="-236" on="0"/>
      </contour>
      <contour>
        <pt x="106" y="82" on="1"/>
        <pt x="283" y="95" on="1"/>
        <pt x="283" y="1425" on="1"/>
        <pt x="117" y="1445" on="1"/>
        <pt x="117" y="1522" on="1"/>
        <pt x="360" y="1522" on="1"/>
        <pt x="442" y="1522" on="0"/>
        <pt x="598" y="1538" on="0"/>
        <pt x="672" y="1538" on="1"/>
        <pt x="822" y="1538" on="0"/>
        <pt x="1029" y="1487" on="0"/>
        <pt x="1158" y="1387" on="0"/>
        <pt x="1216" y="1236" on="0"/>
        <pt x="1216" y="1137" on="1"/>
        <pt x="1216" y="1063" on="0"/>
        <pt x="1170" y="925" on="0"/>
        <pt x="1085" y="809" on="0"/>
        <pt x="965" y="723" on="0"/>
        <pt x="891" y="702" on="1"/>
        <pt x="928" y="675" on="0"/>
        <pt x="1007" y="568" on="0"/>
        <pt x="1087" y="438" on="0"/>
        <pt x="1164" y="299" on="0"/>
        <pt x="1236" y="183" on="0"/>
        <pt x="1298" y="103" on="0"/>
        <pt x="1323" y="97" on="1"/>
        <pt x="1410" y="77" on="1"/>
        <pt x="1410" y="0" on="1"/>
        <pt x="1194" y="0" on="1"/>
        <pt x="1175" y="0" on="0"/>
        <pt x="1128" y="51" on="0"/>
        <pt x="1075" y="135" on="0"/>
        <pt x="1017" y="245" on="0"/>
        <pt x="955" y="363" on="0"/>
        <pt x="892" y="482" on="0"/>
        <pt x="830" y="583" on="0"/>
        <pt x="768" y="659" on="0"/>
        <pt x="739" y="676" on="1"/>
        <pt x="725" y="676" on="0"/>
        <pt x="674" y="676" on="0"/>
        <pt x="612" y="676" on="0"/>
        <pt x="546" y="677" on="0"/>
        <pt x="486" y="678" on="0"/>
        <pt x="440" y="678" on="0"/>
        <pt x="430" y="679" on="1"/>
        <pt x="430" y="95" on="1"/>
        <pt x="645" y="82" on="1"/>
        <pt x="645" y="0" on="1"/>
        <pt x="106" y="0" on="1"/>
      </contour>
      <contour>
        <pt x="430" y="777" on="1"/>
        <pt x="461" y="775" on="0"/>
        <pt x="547" y="774" on="0"/>
        <pt x="633" y="773" on="0"/>
        <pt x="707" y="773" on="0"/>
        <pt x="727" y="773" on="1"/>
        <pt x="796" y="773" on="0"/>
        <pt x="917" y="816" on="0"/>
        <pt x="1005" y="903" on="0"/>
        <pt x="1056" y="1034" on="0"/>
        <pt x="1056" y="1123" on="1"/>
        <pt x="1056" y="1193" on="0"/>
        <pt x="1019" y="1311" on="0"/>
        <pt x="929" y="1396" on="0"/>
        <pt x="776" y="1443" on="0"/>
        <pt x="660" y="1443" on="1"/>
        <pt x="579" y="1443" on="0"/>
        <pt x="471" y="1430" on="0"/>
        <pt x="430" y="1430" on="1"/>
      </contour>
    </TTGlyph>
    <TTGlyph name="S" xMin="135" yMin="-23" xMax="1111" yMax="1538">
      <contour>
        <pt x="152" y="436" on="1"/>
        <pt x="246" y="436" on="1"/>
        <pt x="272" y="160" on="1"/>
        <pt x="291" y="143" on="0"/>
        <pt x="355" y="111" on="0"/>
        <pt x="439" y="86" on="0"/>
        <pt x="539" y="70" on="0"/>
        <pt x="595" y="70" on="1"/>
        <pt x="683" y="70" on="0"/>
        <pt x="817" y="112" on="0"/>
        <pt x="908" y="190" on="0"/>
        <pt x="954" y="300" on="0"/>
        <pt x="954" y="367" on="1"/>
        <pt x="954" y="437" on="0"/>
        <pt x="895" y="538" on="0"/>
        <pt x="793" y="616" on="0"/>
        <pt x="656" y="679" on="0"/>
        <pt x="578" y="712" on="1"/>
        <pt x="535" y="730" on="0"/>
        <pt x="440" y="773" on="0"/>
        <pt x="346" y="827" on="0"/>
        <pt x="260" y="895" on="0"/>
        <pt x="194" y="981" on="0"/>
        <pt x="155" y="1087" on="0"/>
        <pt x="155" y="1153" on="1"/>
        <pt x="155" y="1240" on="0"/>
        <pt x="227" y="1383" on="0"/>
        <pt x="354" y="1483" on="0"/>
        <pt x="530" y="1538" on="0"/>
        <pt x="634" y="1538" on="1"/>
        <pt x="703" y="1538" on="0"/>
        <pt x="822" y="1518" on="0"/>
        <pt x="919" y="1492" on="0"/>
        <pt x="992" y="1469" on="0"/>
        <pt x="1015" y="1465" on="1"/>
        <pt x="1002" y="1129" on="1"/>
        <pt x="912" y="1129" on="1"/>
        <pt x="878" y="1389" on="1"/>
        <pt x="867" y="1398" on="0"/>
        <pt x="819" y="1419" on="0"/>
        <pt x="752" y="1436" on="0"/>
        <pt x="669" y="1448" on="0"/>
        <pt x="624" y="1448" on="1"/>
        <pt x="466" y="1448" on="0"/>
        <pt x="298" y="1321" on="0"/>
        <pt x="298" y="1189" on="1"/>
        <pt x="298" y="1121" on="0"/>
        <pt x="352" y="1025" on="0"/>
        <pt x="449" y="950" on="0"/>
        <pt x="583" y="885" on="0"/>
        <pt x="663" y="848" on="1"/>
        <pt x="740" y="812" on="0"/>
        <pt x="900" y="734" on="0"/>
        <pt x="1029" y="633" on="0"/>
        <pt x="1111" y="499" on="0"/>
        <pt x="1111" y="406" on="1"/>
        <pt x="1111" y="326" on="0"/>
        <pt x="1039" y="173" on="0"/>
        <pt x="904" y="51" on="0"/>
        <pt x="708" y="-23" on="0"/>
        <pt x="584" y="-23" on="1"/>
        <pt x="498" y="-23" on="0"/>
        <pt x="354" y="5" on="0"/>
        <pt x="240" y="39" on="0"/>
        <pt x="159" y="69" on="0"/>
        <pt x="135" y="71" on="1"/>
      </contour>
    </TTGlyph>
    <TTGlyph name="Sacute" xMin="135" yMin="-23" xMax="1111" yMax="2007">
      <contour>
        <pt x="152" y="436" on="1"/>
        <pt x="246" y="436" on="1"/>
        <pt x="272" y="160" on="1"/>
        <pt x="291" y="143" on="0"/>
        <pt x="355" y="111" on="0"/>
        <pt x="439" y="86" on="0"/>
        <pt x="539" y="70" on="0"/>
        <pt x="595" y="70" on="1"/>
        <pt x="683" y="70" on="0"/>
        <pt x="817" y="112" on="0"/>
        <pt x="908" y="190" on="0"/>
        <pt x="954" y="300" on="0"/>
        <pt x="954" y="367" on="1"/>
        <pt x="954" y="437" on="0"/>
        <pt x="895" y="538" on="0"/>
        <pt x="793" y="616" on="0"/>
        <pt x="656" y="679" on="0"/>
        <pt x="578" y="712" on="1"/>
        <pt x="535" y="730" on="0"/>
        <pt x="440" y="773" on="0"/>
        <pt x="346" y="827" on="0"/>
        <pt x="260" y="895" on="0"/>
        <pt x="194" y="981" on="0"/>
        <pt x="155" y="1087" on="0"/>
        <pt x="155" y="1153" on="1"/>
        <pt x="155" y="1240" on="0"/>
        <pt x="227" y="1383" on="0"/>
        <pt x="354" y="1483" on="0"/>
        <pt x="530" y="1538" on="0"/>
        <pt x="634" y="1538" on="1"/>
        <pt x="703" y="1538" on="0"/>
        <pt x="822" y="1518" on="0"/>
        <pt x="919" y="1492" on="0"/>
        <pt x="992" y="1469" on="0"/>
        <pt x="1015" y="1465" on="1"/>
        <pt x="1002" y="1129" on="1"/>
        <pt x="912" y="1129" on="1"/>
        <pt x="878" y="1389" on="1"/>
        <pt x="867" y="1398" on="0"/>
        <pt x="819" y="1419" on="0"/>
        <pt x="752" y="1436" on="0"/>
        <pt x="669" y="1448" on="0"/>
        <pt x="624" y="1448" on="1"/>
        <pt x="466" y="1448" on="0"/>
        <pt x="298" y="1321" on="0"/>
        <pt x="298" y="1189" on="1"/>
        <pt x="298" y="1121" on="0"/>
        <pt x="352" y="1025" on="0"/>
        <pt x="449" y="950" on="0"/>
        <pt x="583" y="885" on="0"/>
        <pt x="663" y="848" on="1"/>
        <pt x="740" y="812" on="0"/>
        <pt x="900" y="734" on="0"/>
        <pt x="1029" y="633" on="0"/>
        <pt x="1111" y="499" on="0"/>
        <pt x="1111" y="406" on="1"/>
        <pt x="1111" y="326" on="0"/>
        <pt x="1039" y="173" on="0"/>
        <pt x="904" y="51" on="0"/>
        <pt x="708" y="-23" on="0"/>
        <pt x="584" y="-23" on="1"/>
        <pt x="498" y="-23" on="0"/>
        <pt x="354" y="5" on="0"/>
        <pt x="240" y="39" on="0"/>
        <pt x="159" y="69" on="0"/>
        <pt x="135" y="71" on="1"/>
      </contour>
      <contour>
        <pt x="512" y="1699" on="1"/>
        <pt x="853" y="2007" on="1"/>
        <pt x="854" y="2007" on="1"/>
        <pt x="956" y="1908" on="1"/>
        <pt x="938" y="1887" on="0"/>
        <pt x="879" y="1838" on="0"/>
        <pt x="806" y="1788" on="0"/>
        <pt x="727" y="1740" on="0"/>
        <pt x="651" y="1697" on="0"/>
        <pt x="584" y="1662" on="0"/>
        <pt x="561" y="1651" on="1"/>
        <pt x="560" y="1651" on="1"/>
      </contour>
    </TTGlyph>
    <TTGlyph name="Scaron" xMin="135" yMin="-23" xMax="1111" yMax="2010">
      <contour>
        <pt x="152" y="436" on="1"/>
        <pt x="246" y="436" on="1"/>
        <pt x="272" y="160" on="1"/>
        <pt x="291" y="143" on="0"/>
        <pt x="355" y="111" on="0"/>
        <pt x="439" y="86" on="0"/>
        <pt x="539" y="70" on="0"/>
        <pt x="595" y="70" on="1"/>
        <pt x="683" y="70" on="0"/>
        <pt x="817" y="112" on="0"/>
        <pt x="908" y="190" on="0"/>
        <pt x="954" y="300" on="0"/>
        <pt x="954" y="367" on="1"/>
        <pt x="954" y="437" on="0"/>
        <pt x="895" y="538" on="0"/>
        <pt x="793" y="616" on="0"/>
        <pt x="656" y="679" on="0"/>
        <pt x="578" y="712" on="1"/>
        <pt x="535" y="730" on="0"/>
        <pt x="440" y="773" on="0"/>
        <pt x="346" y="827" on="0"/>
        <pt x="260" y="895" on="0"/>
        <pt x="194" y="981" on="0"/>
        <pt x="155" y="1087" on="0"/>
        <pt x="155" y="1153" on="1"/>
        <pt x="155" y="1240" on="0"/>
        <pt x="227" y="1383" on="0"/>
        <pt x="354" y="1483" on="0"/>
        <pt x="530" y="1538" on="0"/>
        <pt x="634" y="1538" on="1"/>
        <pt x="703" y="1538" on="0"/>
        <pt x="822" y="1518" on="0"/>
        <pt x="919" y="1492" on="0"/>
        <pt x="992" y="1469" on="0"/>
        <pt x="1015" y="1465" on="1"/>
        <pt x="1002" y="1129" on="1"/>
        <pt x="912" y="1129" on="1"/>
        <pt x="878" y="1389" on="1"/>
        <pt x="867" y="1398" on="0"/>
        <pt x="819" y="1419" on="0"/>
        <pt x="752" y="1436" on="0"/>
        <pt x="669" y="1448" on="0"/>
        <pt x="624" y="1448" on="1"/>
        <pt x="466" y="1448" on="0"/>
        <pt x="298" y="1321" on="0"/>
        <pt x="298" y="1189" on="1"/>
        <pt x="298" y="1121" on="0"/>
        <pt x="352" y="1025" on="0"/>
        <pt x="449" y="950" on="0"/>
        <pt x="583" y="885" on="0"/>
        <pt x="663" y="848" on="1"/>
        <pt x="740" y="812" on="0"/>
        <pt x="900" y="734" on="0"/>
        <pt x="1029" y="633" on="0"/>
        <pt x="1111" y="499" on="0"/>
        <pt x="1111" y="406" on="1"/>
        <pt x="1111" y="326" on="0"/>
        <pt x="1039" y="173" on="0"/>
        <pt x="904" y="51" on="0"/>
        <pt x="708" y="-23" on="0"/>
        <pt x="584" y="-23" on="1"/>
        <pt x="498" y="-23" on="0"/>
        <pt x="354" y="5" on="0"/>
        <pt x="240" y="39" on="0"/>
        <pt x="159" y="69" on="0"/>
        <pt x="135" y="71" on="1"/>
      </contour>
      <contour>
        <pt x="327" y="1972" on="1"/>
        <pt x="395" y="2010" on="1"/>
        <pt x="645" y="1800" on="1"/>
        <pt x="901" y="2010" on="1"/>
        <pt x="962" y="1974" on="1"/>
        <pt x="718" y="1699" on="1"/>
        <pt x="574" y="1699" on="1"/>
      </contour>
    </TTGlyph>
    <TTGlyph name="Scedilla" xMin="135" yMin="-477" xMax="1111" yMax="1538">
      <contour>
        <pt x="152" y="436" on="1"/>
        <pt x="246" y="436" on="1"/>
        <pt x="272" y="160" on="1"/>
        <pt x="291" y="143" on="0"/>
        <pt x="355" y="111" on="0"/>
        <pt x="439" y="86" on="0"/>
        <pt x="539" y="70" on="0"/>
        <pt x="595" y="70" on="1"/>
        <pt x="683" y="70" on="0"/>
        <pt x="817" y="112" on="0"/>
        <pt x="908" y="190" on="0"/>
        <pt x="954" y="300" on="0"/>
        <pt x="954" y="367" on="1"/>
        <pt x="954" y="437" on="0"/>
        <pt x="895" y="538" on="0"/>
        <pt x="793" y="616" on="0"/>
        <pt x="656" y="679" on="0"/>
        <pt x="578" y="712" on="1"/>
        <pt x="535" y="730" on="0"/>
        <pt x="440" y="773" on="0"/>
        <pt x="346" y="827" on="0"/>
        <pt x="260" y="895" on="0"/>
        <pt x="194" y="981" on="0"/>
        <pt x="155" y="1087" on="0"/>
        <pt x="155" y="1153" on="1"/>
        <pt x="155" y="1240" on="0"/>
        <pt x="227" y="1383" on="0"/>
        <pt x="354" y="1483" on="0"/>
        <pt x="530" y="1538" on="0"/>
        <pt x="634" y="1538" on="1"/>
        <pt x="703" y="1538" on="0"/>
        <pt x="822" y="1518" on="0"/>
        <pt x="919" y="1492" on="0"/>
        <pt x="992" y="1469" on="0"/>
        <pt x="1015" y="1465" on="1"/>
        <pt x="1002" y="1129" on="1"/>
        <pt x="912" y="1129" on="1"/>
        <pt x="878" y="1389" on="1"/>
        <pt x="867" y="1398" on="0"/>
        <pt x="819" y="1419" on="0"/>
        <pt x="752" y="1436" on="0"/>
        <pt x="669" y="1448" on="0"/>
        <pt x="624" y="1448" on="1"/>
        <pt x="466" y="1448" on="0"/>
        <pt x="298" y="1321" on="0"/>
        <pt x="298" y="1189" on="1"/>
        <pt x="298" y="1121" on="0"/>
        <pt x="352" y="1025" on="0"/>
        <pt x="449" y="950" on="0"/>
        <pt x="583" y="885" on="0"/>
        <pt x="663" y="848" on="1"/>
        <pt x="740" y="812" on="0"/>
        <pt x="900" y="734" on="0"/>
        <pt x="1029" y="633" on="0"/>
        <pt x="1111" y="499" on="0"/>
        <pt x="1111" y="406" on="1"/>
        <pt x="1111" y="332" on="0"/>
        <pt x="1049" y="188" on="0"/>
        <pt x="932" y="71" on="0"/>
        <pt x="761" y="-9" on="0"/>
        <pt x="653" y="-19" on="1"/>
        <pt x="670" y="-39" on="0"/>
        <pt x="712" y="-97" on="0"/>
        <pt x="747" y="-168" on="0"/>
        <pt x="769" y="-249" on="0"/>
        <pt x="768" y="-291" on="1"/>
        <pt x="766" y="-343" on="0"/>
        <pt x="732" y="-414" on="0"/>
        <pt x="669" y="-458" on="0"/>
        <pt x="579" y="-477" on="0"/>
        <pt x="522" y="-477" on="1"/>
        <pt x="521" y="-477" on="1"/>
        <pt x="504" y="-477" on="0"/>
        <pt x="465" y="-473" on="0"/>
        <pt x="426" y="-466" on="0"/>
        <pt x="391" y="-456" on="0"/>
        <pt x="378" y="-450" on="1"/>
        <pt x="379" y="-342" on="1"/>
        <pt x="401" y="-350" on="0"/>
        <pt x="459" y="-359" on="0"/>
        <pt x="476" y="-359" on="1"/>
        <pt x="477" y="-359" on="1"/>
        <pt x="516" y="-359" on="0"/>
        <pt x="576" y="-348" on="0"/>
        <pt x="618" y="-316" on="0"/>
        <pt x="639" y="-258" on="0"/>
        <pt x="639" y="-211" on="1"/>
        <pt x="639" y="-184" on="0"/>
        <pt x="625" y="-129" on="0"/>
        <pt x="605" y="-80" on="0"/>
        <pt x="582" y="-38" on="0"/>
        <pt x="572" y="-23" on="1"/>
        <pt x="488" y="-22" on="0"/>
        <pt x="348" y="6" on="0"/>
        <pt x="238" y="40" on="0"/>
        <pt x="158" y="69" on="0"/>
        <pt x="135" y="71" on="1"/>
      </contour>
    </TTGlyph>
    <TTGlyph name="Scircumflex" xMin="135" yMin="-23" xMax="1111" yMax="2014">
      <contour>
        <pt x="152" y="436" on="1"/>
        <pt x="246" y="436" on="1"/>
        <pt x="272" y="160" on="1"/>
        <pt x="291" y="143" on="0"/>
        <pt x="355" y="111" on="0"/>
        <pt x="439" y="86" on="0"/>
        <pt x="539" y="70" on="0"/>
        <pt x="595" y="70" on="1"/>
        <pt x="683" y="70" on="0"/>
        <pt x="817" y="112" on="0"/>
        <pt x="908" y="190" on="0"/>
        <pt x="954" y="300" on="0"/>
        <pt x="954" y="367" on="1"/>
        <pt x="954" y="437" on="0"/>
        <pt x="895" y="538" on="0"/>
        <pt x="793" y="616" on="0"/>
        <pt x="656" y="679" on="0"/>
        <pt x="578" y="712" on="1"/>
        <pt x="535" y="730" on="0"/>
        <pt x="440" y="773" on="0"/>
        <pt x="346" y="827" on="0"/>
        <pt x="260" y="895" on="0"/>
        <pt x="194" y="981" on="0"/>
        <pt x="155" y="1087" on="0"/>
        <pt x="155" y="1153" on="1"/>
        <pt x="155" y="1240" on="0"/>
        <pt x="227" y="1383" on="0"/>
        <pt x="354" y="1483" on="0"/>
        <pt x="530" y="1538" on="0"/>
        <pt x="634" y="1538" on="1"/>
        <pt x="703" y="1538" on="0"/>
        <pt x="822" y="1518" on="0"/>
        <pt x="919" y="1492" on="0"/>
        <pt x="992" y="1469" on="0"/>
        <pt x="1015" y="1465" on="1"/>
        <pt x="1002" y="1129" on="1"/>
        <pt x="912" y="1129" on="1"/>
        <pt x="878" y="1389" on="1"/>
        <pt x="867" y="1398" on="0"/>
        <pt x="819" y="1419" on="0"/>
        <pt x="752" y="1436" on="0"/>
        <pt x="669" y="1448" on="0"/>
        <pt x="624" y="1448" on="1"/>
        <pt x="466" y="1448" on="0"/>
        <pt x="298" y="1321" on="0"/>
        <pt x="298" y="1189" on="1"/>
        <pt x="298" y="1121" on="0"/>
        <pt x="352" y="1025" on="0"/>
        <pt x="449" y="950" on="0"/>
        <pt x="583" y="885" on="0"/>
        <pt x="663" y="848" on="1"/>
        <pt x="740" y="812" on="0"/>
        <pt x="900" y="734" on="0"/>
        <pt x="1029" y="633" on="0"/>
        <pt x="1111" y="499" on="0"/>
        <pt x="1111" y="406" on="1"/>
        <pt x="1111" y="326" on="0"/>
        <pt x="1039" y="173" on="0"/>
        <pt x="904" y="51" on="0"/>
        <pt x="708" y="-23" on="0"/>
        <pt x="584" y="-23" on="1"/>
        <pt x="498" y="-23" on="0"/>
        <pt x="354" y="5" on="0"/>
        <pt x="240" y="39" on="0"/>
        <pt x="159" y="69" on="0"/>
        <pt x="135" y="71" on="1"/>
      </contour>
      <contour>
        <pt x="310" y="1718" on="1"/>
        <pt x="569" y="2014" on="1"/>
        <pt x="713" y="2014" on="1"/>
        <pt x="975" y="1720" on="1"/>
        <pt x="907" y="1681" on="1"/>
        <pt x="642" y="1904" on="1"/>
        <pt x="372" y="1681" on="1"/>
      </contour>
    </TTGlyph>
    <TTGlyph name="T" xMin="38" yMin="0" xMax="1336" yMax="1522">
      <contour>
        <pt x="340" y="82" on="1"/>
        <pt x="612" y="95" on="1"/>
        <pt x="612" y="1439" on="1"/>
        <pt x="200" y="1428" on="1"/>
        <pt x="138" y="1008" on="1"/>
        <pt x="38" y="1008" on="1"/>
        <pt x="72" y="1522" on="1"/>
        <pt x="1313" y="1522" on="1"/>
        <pt x="1336" y="1008" on="1"/>
        <pt x="1238" y="1008" on="1"/>
        <pt x="1184" y="1428" on="1"/>
        <pt x="766" y="1439" on="1"/>
        <pt x="766" y="96" on="1"/>
        <pt x="1063" y="82" on="1"/>
        <pt x="1063" y="0" on="1"/>
        <pt x="340" y="0" on="1"/>
      </contour>
    </TTGlyph>
    <TTGlyph name="Tbar" xMin="58" yMin="0" xMax="1356" yMax="1522">
      <contour>
        <pt x="360" y="82" on="1"/>
        <pt x="632" y="95" on="1"/>
        <pt x="632" y="695" on="1"/>
        <pt x="368" y="695" on="1"/>
        <pt x="368" y="793" on="1"/>
        <pt x="632" y="793" on="1"/>
        <pt x="632" y="1439" on="1"/>
        <pt x="220" y="1428" on="1"/>
        <pt x="158" y="1008" on="1"/>
        <pt x="58" y="1008" on="1"/>
        <pt x="92" y="1522" on="1"/>
        <pt x="1333" y="1522" on="1"/>
        <pt x="1356" y="1008" on="1"/>
        <pt x="1258" y="1008" on="1"/>
        <pt x="1204" y="1428" on="1"/>
        <pt x="786" y="1439" on="1"/>
        <pt x="786" y="793" on="1"/>
        <pt x="1054" y="793" on="1"/>
        <pt x="1054" y="695" on="1"/>
        <pt x="786" y="695" on="1"/>
        <pt x="786" y="96" on="1"/>
        <pt x="1083" y="82" on="1"/>
        <pt x="1083" y="0" on="1"/>
        <pt x="360" y="0" on="1"/>
      </contour>
    </TTGlyph>
    <TTGlyph name="Tcaron" xMin="38" yMin="0" xMax="1336" yMax="2010">
      <contour>
        <pt x="392" y="1972" on="1"/>
        <pt x="460" y="2010" on="1"/>
        <pt x="710" y="1800" on="1"/>
        <pt x="966" y="2010" on="1"/>
        <pt x="1027" y="1974" on="1"/>
        <pt x="783" y="1699" on="1"/>
        <pt x="639" y="1699" on="1"/>
      </contour>
      <contour>
        <pt x="340" y="82" on="1"/>
        <pt x="612" y="95" on="1"/>
        <pt x="612" y="1439" on="1"/>
        <pt x="200" y="1428" on="1"/>
        <pt x="138" y="1008" on="1"/>
        <pt x="38" y="1008" on="1"/>
        <pt x="72" y="1522" on="1"/>
        <pt x="1313" y="1522" on="1"/>
        <pt x="1336" y="1008" on="1"/>
        <pt x="1238" y="1008" on="1"/>
        <pt x="1184" y="1428" on="1"/>
        <pt x="766" y="1439" on="1"/>
        <pt x="766" y="96" on="1"/>
        <pt x="1063" y="82" on="1"/>
        <pt x="1063" y="0" on="1"/>
        <pt x="340" y="0" on="1"/>
      </contour>
    </TTGlyph>
    <TTGlyph name="Thorn" xMin="106" yMin="0" xMax="1226" yMax="1524">
      <contour>
        <pt x="106" y="82" on="1"/>
        <pt x="282" y="96" on="1"/>
        <pt x="282" y="1421" on="1"/>
        <pt x="109" y="1442" on="1"/>
        <pt x="109" y="1524" on="1"/>
        <pt x="614" y="1524" on="1"/>
        <pt x="614" y="1442" on="1"/>
        <pt x="426" y="1421" on="1"/>
        <pt x="426" y="1168" on="1"/>
        <pt x="501" y="1175" on="0"/>
        <pt x="674" y="1189" on="0"/>
        <pt x="759" y="1189" on="1"/>
        <pt x="867" y="1189" on="0"/>
        <pt x="1040" y="1138" on="0"/>
        <pt x="1161" y="1037" on="0"/>
        <pt x="1226" y="885" on="0"/>
        <pt x="1226" y="785" on="1"/>
        <pt x="1226" y="670" on="0"/>
        <pt x="1151" y="501" on="0"/>
        <pt x="1011" y="389" on="0"/>
        <pt x="813" y="334" on="0"/>
        <pt x="689" y="334" on="1"/>
        <pt x="601" y="334" on="0"/>
        <pt x="474" y="337" on="0"/>
        <pt x="426" y="342" on="1"/>
        <pt x="426" y="96" on="1"/>
        <pt x="649" y="82" on="1"/>
        <pt x="649" y="0" on="1"/>
        <pt x="106" y="0" on="1"/>
      </contour>
      <contour>
        <pt x="426" y="427" on="1"/>
        <pt x="492" y="419" on="0"/>
        <pt x="627" y="418" on="0"/>
        <pt x="687" y="418" on="1"/>
        <pt x="768" y="418" on="0"/>
        <pt x="907" y="456" on="0"/>
        <pt x="1007" y="541" on="0"/>
        <pt x="1064" y="678" on="0"/>
        <pt x="1064" y="776" on="1"/>
        <pt x="1064" y="854" on="0"/>
        <pt x="1019" y="977" on="0"/>
        <pt x="924" y="1060" on="0"/>
        <pt x="779" y="1102" on="0"/>
        <pt x="679" y="1099" on="1"/>
        <pt x="607" y="1097" on="0"/>
        <pt x="474" y="1084" on="0"/>
        <pt x="426" y="1078" on="1"/>
      </contour>
    </TTGlyph>
    <TTGlyph name="U" xMin="59" yMin="-16" xMax="1472" yMax="1522">
      <contour>
        <pt x="213" y="1419" on="1"/>
        <pt x="59" y="1441" on="1"/>
        <pt x="59" y="1522" on="1"/>
        <pt x="543" y="1522" on="1"/>
        <pt x="543" y="1441" on="1"/>
        <pt x="363" y="1419" on="1"/>
        <pt x="363" y="637" on="1"/>
        <pt x="363" y="473" on="0"/>
        <pt x="426" y="257" on="0"/>
        <pt x="539" y="128" on="0"/>
        <pt x="696" y="75" on="0"/>
        <pt x="790" y="75" on="1"/>
        <pt x="994" y="75" on="0"/>
        <pt x="1197" y="350" on="0"/>
        <pt x="1197" y="620" on="1"/>
        <pt x="1197" y="1419" on="1"/>
        <pt x="1024" y="1441" on="1"/>
        <pt x="1024" y="1522" on="1"/>
        <pt x="1472" y="1522" on="1"/>
        <pt x="1472" y="1441" on="1"/>
        <pt x="1312" y="1419" on="1"/>
        <pt x="1312" y="628" on="1"/>
        <pt x="1312" y="461" on="0"/>
        <pt x="1232" y="218" on="0"/>
        <pt x="1089" y="60" on="0"/>
        <pt x="892" y="-16" on="0"/>
        <pt x="775" y="-16" on="1"/>
        <pt x="628" y="-16" on="0"/>
        <pt x="416" y="66" on="0"/>
        <pt x="278" y="232" on="0"/>
        <pt x="213" y="484" on="0"/>
        <pt x="213" y="654" on="1"/>
      </contour>
    </TTGlyph>
    <TTGlyph name="U+018F" xMin="84" yMin="-23" xMax="1246" yMax="1538">
      <contour>
        <pt x="84" y="583" on="1"/>
        <pt x="84" y="646" on="0"/>
        <pt x="87" y="744" on="0"/>
        <pt x="95" y="779" on="1"/>
        <pt x="1096" y="779" on="1"/>
        <pt x="1096" y="790" on="1"/>
        <pt x="1089" y="952" on="0"/>
        <pt x="1008" y="1196" on="0"/>
        <pt x="878" y="1360" on="0"/>
        <pt x="709" y="1442" on="0"/>
        <pt x="614" y="1442" on="1"/>
        <pt x="539" y="1442" on="0"/>
        <pt x="425" y="1422" on="0"/>
        <pt x="338" y="1392" on="0"/>
        <pt x="274" y="1355" on="0"/>
        <pt x="251" y="1339" on="1"/>
        <pt x="215" y="1169" on="1"/>
        <pt x="118" y="1169" on="1"/>
        <pt x="130" y="1459" on="1"/>
        <pt x="173" y="1461" on="0"/>
        <pt x="265" y="1486" on="0"/>
        <pt x="383" y="1515" on="0"/>
        <pt x="539" y="1538" on="0"/>
        <pt x="646" y="1538" on="1"/>
        <pt x="785" y="1538" on="0"/>
        <pt x="1007" y="1425" on="0"/>
        <pt x="1163" y="1222" on="0"/>
        <pt x="1246" y="940" on="0"/>
        <pt x="1246" y="770" on="1"/>
        <pt x="1246" y="594" on="0"/>
        <pt x="1147" y="303" on="0"/>
        <pt x="973" y="93" on="0"/>
        <pt x="734" y="-23" on="0"/>
        <pt x="594" y="-23" on="1"/>
        <pt x="479" y="-23" on="0"/>
        <pt x="294" y="59" on="0"/>
        <pt x="162" y="214" on="0"/>
        <pt x="88" y="439" on="0"/>
      </contour>
      <contour>
        <pt x="236" y="575" on="1"/>
        <pt x="236" y="487" on="0"/>
        <pt x="284" y="312" on="0"/>
        <pt x="383" y="172" on="0"/>
        <pt x="533" y="85" on="0"/>
        <pt x="635" y="85" on="1"/>
        <pt x="729" y="85" on="0"/>
        <pt x="893" y="154" on="0"/>
        <pt x="1018" y="300" on="0"/>
        <pt x="1093" y="527" on="0"/>
        <pt x="1097" y="684" on="1"/>
        <pt x="246" y="684" on="1"/>
        <pt x="241" y="658" on="0"/>
        <pt x="236" y="604" on="0"/>
      </contour>
    </TTGlyph>
</ttFont>
